<?xml version="1.0" encoding="utf-8"?>
<!-- Generator: Adobe Illustrator 22.1.0, SVG Export Plug-In . SVG Version: 6.00 Build 0)  -->
<svg version="1.1" id="Layer_1" xmlns="http://www.w3.org/2000/svg" xmlns:xlink="http://www.w3.org/1999/xlink" x="0px" y="0px"
	 viewBox="0 0 287.2 87.3" style="enable-background:new 0 0 287.2 87.3;" xml:space="preserve">
<style type="text/css">
	.st0{fill:#F1D5C9;}
	.st1{fill:#C9D7EE;}
	.st2{fill:none;stroke:#E1E4E3;stroke-width:1.5753;stroke-miterlimit:10;}
	.st3{fill:#7AA974;stroke:#000000;stroke-width:0.3938;stroke-miterlimit:10;}
	.st4{fill:#D56C55;stroke:#000000;stroke-width:0.3938;stroke-miterlimit:10;}
	.st5{fill:#DCECCB;stroke:#000000;stroke-width:0.3938;stroke-miterlimit:10;}
	.st6{fill:#F2F2F3;stroke:#000000;stroke-width:0.3938;stroke-miterlimit:10;}
	.st7{fill:#E3DCD1;stroke:#000000;stroke-width:0.3938;stroke-miterlimit:10;}
	.st8{fill:#E3DCD1;stroke:#000000;stroke-width:0.3938;stroke-linecap:round;stroke-miterlimit:10;}
	.st9{fill:#C49A6C;stroke:#000000;stroke-width:0.3938;stroke-miterlimit:10;}
	.st10{fill:#754C29;stroke:#000000;stroke-width:0.3938;stroke-miterlimit:10;}
	.st11{fill:#EAC264;stroke:#000000;stroke-width:0.3938;stroke-miterlimit:10;}
	.st12{fill:#FFEDCE;}
	.st13{fill:#FFFFFF;stroke:#000000;stroke-width:0.574;stroke-miterlimit:10;}
	.st14{fill:#D56C55;stroke:#000000;stroke-width:0.574;stroke-miterlimit:10;}
	.st15{fill:none;stroke:#939598;stroke-width:0.3872;stroke-miterlimit:10;}
	.st16{font-family:'ArialMT';}
	.st17{font-size:6.3139px;}
	.st18{fill:none;stroke:#000000;stroke-width:0.574;stroke-miterlimit:10;}
	.st19{fill:#FFFFFF;stroke:#000000;stroke-width:0.3245;stroke-miterlimit:10;}
	.st20{fill:none;stroke:#000000;stroke-width:0.2387;stroke-miterlimit:10;}
	.st21{fill:#FFFFFF;}
	.st22{clip-path:url(#SVGID_2_);}
	.st23{fill:#D56C55;stroke:#D56C55;stroke-width:0.44;stroke-miterlimit:10;}
	.st24{clip-path:url(#SVGID_2_);fill:#D56C55;stroke:#D56C55;stroke-width:0.44;stroke-miterlimit:10;}
	.st25{fill:none;stroke:#000000;stroke-width:0.3938;stroke-miterlimit:10;}
	.st26{fill:#E3DCD0;stroke:#000000;stroke-width:0.2394;stroke-miterlimit:10;}
	.st27{fill:#FFFFFF;stroke:#000000;stroke-width:0.2394;stroke-miterlimit:10;}
	.st28{clip-path:url(#SVGID_4_);}
	.st29{clip-path:url(#SVGID_4_);fill:#D56C55;stroke:#D56C55;stroke-width:0.44;stroke-miterlimit:10;}
	.st30{clip-path:url(#SVGID_6_);}
	.st31{clip-path:url(#SVGID_6_);fill:#D56C55;stroke:#D56C55;stroke-width:0.44;stroke-miterlimit:10;}
	.st32{clip-path:url(#SVGID_8_);}
	.st33{clip-path:url(#SVGID_8_);fill:#D56C55;stroke:#D56C55;stroke-width:0.44;stroke-miterlimit:10;}
	.st34{clip-path:url(#SVGID_10_);}
	.st35{clip-path:url(#SVGID_10_);fill:#D56C55;stroke:#D56C55;stroke-width:0.44;stroke-miterlimit:10;}
	.st36{clip-path:url(#SVGID_12_);}
	.st37{clip-path:url(#SVGID_12_);fill:#D56C55;stroke:#D56C55;stroke-width:0.44;stroke-miterlimit:10;}
	.st38{clip-path:url(#SVGID_14_);}
	.st39{clip-path:url(#SVGID_14_);fill:#D56C55;stroke:#D56C55;stroke-width:0.44;stroke-miterlimit:10;}
	.st40{clip-path:url(#SVGID_16_);}
	.st41{clip-path:url(#SVGID_16_);fill:#D56C55;stroke:#D56C55;stroke-width:0.44;stroke-miterlimit:10;}
	.st42{fill:#F1F2F2;}
	.st43{font-family:'Cabin-Italic';}
	.st44{font-size:8px;}
	.st45{clip-path:url(#SVGID_18_);}
	.st46{clip-path:url(#SVGID_20_);}
	.st47{clip-path:url(#SVGID_22_);}
</style>
<rect x="213.3" y="1.6" class="st0" width="67.6" height="16.5"/>
<rect x="213.3" y="31.4" class="st0" width="67.6" height="16.5"/>
<rect x="210.3" y="68.7" class="st0" width="76.9" height="16.5"/>
<g>
	<rect class="st1" width="39" height="16.5"/>
	<rect y="31.5" class="st1" width="39" height="16.5"/>
	<rect y="70.8" class="st1" width="39" height="16.5"/>
	<g>
		<g>
			<polyline class="st2" points="68.2,15 68.2,28.8 52.5,28.8 52.5,43.2 52.5,73.4 			"/>
			<polyline class="st2" points="68.2,28.8 83.4,28.8 83.4,49.6 72.9,49.6 72.9,73.4 			"/>
			<polyline class="st2" points="83.4,49.6 92,49.6 92,73.4 			"/>
		</g>
		<g>
			<polyline class="st2" points="155.8,15 155.8,28.8 140.1,28.8 140.1,43.2 140.1,73.4 			"/>
			<polyline class="st2" points="155.8,28.8 179.6,28.8 179.6,49.6 160.5,49.6 160.5,73.4 			"/>
			<polyline class="st2" points="171,49.6 179.6,49.6 179.6,73.4 			"/>
		</g>
		<g>
			<path class="st3" d="M112.5,8.3c-0.1-0.3-1.7-4.2-1.7-4.2l3,2.7V2.6l2.3,3.3c0,0,4-2.1,3.8-1.9c-0.1,0.2-2.8,2.7-2.8,2.7l4.3-0.4
				l-3.1,2.6L112.5,8.3z"/>
			<ellipse class="st4" cx="114.4" cy="5.8" rx="1" ry="0.6"/>
			<ellipse class="st4" cx="112.7" cy="6.9" rx="1" ry="0.6"/>
			<ellipse class="st4" cx="117.3" cy="6" rx="1" ry="0.6"/>
			<ellipse class="st4" cx="119" cy="7.1" rx="1" ry="0.6"/>
			<path class="st5" d="M112.1,8.7l-1.4-2.4l2.5,0.9l-0.9-2.3l2.5,1.4l1.6-2.2l0.4,1.8l2.5,0.1l-1.1,1.2h2.3l-1.8,1.5
				c0,0-1.6,0.8-3,0.7S112.1,8.7,112.1,8.7z"/>
			<path class="st6" d="M116.5,13.6h-1.9c-0.8,0-1.4-0.5-1.7-1.2L111,7.6h9.2l-2.2,5C117.7,13.2,117.2,13.6,116.5,13.6z"/>
		</g>
		<g>
			<ellipse class="st6" cx="155.8" cy="12.1" rx="5.9" ry="1.5"/>
			<path class="st7" d="M158.8,10.8c0,0.1,0,0.1-0.1,0.2c0.3,0.2,0.5,0.4,0.5,0.6c0,0.7-1.7,1.3-3.7,1.3c-2,0-3.7-0.6-3.7-1.3
				c0-0.3,0.4-0.6,1-0.9c0-0.1,0-0.2,0-0.3c0-0.3,0.1-0.5,0.3-0.7c-0.2-0.2-0.3-0.5-0.3-0.8c0-0.8,0.6-1.4,1.4-1.4
				c0.3,0,0.5,0.1,0.7,0.2c0.2-0.1,0.5-0.2,0.8-0.2c0.9,0,1.6,0.6,1.7,1.4c0,0,0,0,0,0c0.3,0,0.6,0.1,0.9,0.3
				c0.2-0.2,0.4-0.3,0.7-0.3c0.5,0,0.9,0.4,0.9,0.9c0,0.5-0.4,0.9-0.9,0.9C158.9,10.8,158.8,10.8,158.8,10.8z"/>
			<path class="st8" d="M153.9,11.4c0,0,0.3-0.9,0.9-0.7"/>
			<path class="st8" d="M156.6,10.6c0,0,1,0.1,0.9,0.7"/>
			<path class="st8" d="M154.2,8.8c0,0,1-0.1,1,0.5"/>
		</g>
		<g>
			<path class="st9" d="M72.1,9.6c0,1-0.4,1.8-1,2.5c-0.4,0.4-1,0.7-1.6,0.7l-2.5,0c-0.6,0-1.1-0.2-1.5-0.6c-0.6-0.7-1-1.6-1-2.5
				H72.1z"/>
			<path class="st9" d="M64.5,6.6c0-2.1,1.7-3.8,3.8-3.8c2.1,0,3.8,1.7,3.8,3.8H64.5z"/>
			<path class="st10" d="M72.3,9.6h-7.9c-0.7,0-1.3-0.6-1.3-1.3v0c0-0.7,0.6-1.3,1.3-1.3h7.9c0.7,0,1.3,0.6,1.3,1.3v0
				C73.7,9,73.1,9.6,72.3,9.6z"/>
			<polygon class="st11" points="66,7.1 68.2,8.5 70.6,7.1 			"/>
			<path class="st4" d="M66,5.6"/>
			<g>
				<g>
					<path class="st12" d="M65.8,5.4c0.3,0,0.3-0.4,0-0.4C65.6,5,65.6,5.4,65.8,5.4L65.8,5.4z"/>
				</g>
			</g>
			<g>
				<g>
					<path class="st12" d="M67.6,4.9c0.3,0,0.3-0.4,0-0.4C67.3,4.5,67.3,4.9,67.6,4.9L67.6,4.9z"/>
				</g>
			</g>
			<g>
				<g>
					<path class="st12" d="M66.9,5.9c0.3,0,0.3-0.4,0-0.4C66.7,5.5,66.7,5.9,66.9,5.9L66.9,5.9z"/>
				</g>
			</g>
			<g>
				<g>
					<path class="st12" d="M66.7,4.2C66.7,4.2,66.7,4.2,66.7,4.2c0.3,0,0.3-0.4,0.1-0.4c0,0,0,0-0.1,0C66.4,3.8,66.4,4.2,66.7,4.2
						L66.7,4.2z"/>
				</g>
			</g>
			<g>
				<g>
					<path class="st12" d="M69.5,3.8c0.3,0,0.3-0.4,0-0.4C69.3,3.4,69.3,3.8,69.5,3.8L69.5,3.8z"/>
				</g>
			</g>
			<g>
				<g>
					<path class="st12" d="M68.3,3.8c0.3,0,0.3-0.4,0-0.4C68,3.4,68,3.8,68.3,3.8L68.3,3.8z"/>
				</g>
			</g>
			<g>
				<g>
					<path class="st12" d="M68.9,5.8c0.3,0,0.3-0.4,0-0.4C68.6,5.4,68.6,5.8,68.9,5.8L68.9,5.8z"/>
				</g>
			</g>
			<g>
				<g>
					<path class="st12" d="M69.2,4.5c0.3,0,0.3-0.4,0-0.4C69,4.1,69,4.5,69.2,4.5L69.2,4.5z"/>
				</g>
			</g>
			<g>
				<g>
					<path class="st12" d="M70.5,5.5c0.3,0,0.3-0.4,0-0.4C70.2,5.1,70.2,5.5,70.5,5.5L70.5,5.5z"/>
				</g>
			</g>
			<g>
				<g>
					<path class="st12" d="M70.3,4.5c0.3,0,0.3-0.4,0-0.4C70.1,4.2,70.1,4.5,70.3,4.5L70.3,4.5z"/>
				</g>
			</g>
			<g>
				<g>
					<path class="st12" d="M67.9,6c0.3,0,0.3-0.4,0-0.4C67.6,5.6,67.6,6,67.9,6L67.9,6z"/>
				</g>
			</g>
		</g>
		<g>
			<g>
				<polyline class="st13" points="57,37.5 57,44.9 48,44.9 48,37.9 				"/>
				<rect x="48" y="35.5" class="st14" width="9" height="2.4"/>
			</g>
			<path class="st15" d="M49.8,35.5"/>
			<text transform="matrix(1 0 0 1 50.7283 43.5185)" class="st16 st17">2</text>
			<path class="st18" d="M49.6,36.9c-0.5,0-0.8-0.6-0.8-1.4s0.4-1.4,0.8-1.4c0.5,0,0.8,0.6,0.8,1.4"/>
			<path class="st18" d="M54.9,36.9c-0.5,0-0.8-0.6-0.8-1.4s0.4-1.4,0.8-1.4c0.5,0,0.8,0.6,0.8,1.4"/>
		</g>
		<g>
			<g>
				<polyline class="st13" points="87.9,37.5 87.9,44.9 78.9,44.9 78.9,37.9 				"/>
				<rect x="78.9" y="35.5" class="st14" width="9" height="2.4"/>
			</g>
			<path class="st15" d="M80.7,35.5"/>
			<text transform="matrix(1 0 0 1 81.6297 43.5185)" class="st16 st17">5</text>
			<path class="st18" d="M80.5,36.9c-0.5,0-0.8-0.6-0.8-1.4s0.4-1.4,0.8-1.4c0.5,0,0.8,0.6,0.8,1.4"/>
			<path class="st18" d="M85.8,36.9c-0.5,0-0.8-0.6-0.8-1.4s0.4-1.4,0.8-1.4c0.5,0,0.8,0.6,0.8,1.4"/>
		</g>
		<g>
			<g>
				<polyline class="st13" points="143.9,37.5 143.9,44.9 134.9,44.9 134.9,37.9 				"/>
				<rect x="134.9" y="35.5" class="st14" width="9" height="2.4"/>
			</g>
			<path class="st15" d="M136.7,35.5"/>
			<text transform="matrix(1 0 0 1 137.6282 43.518)" class="st16 st17">1</text>
			<path class="st18" d="M136.5,36.9c-0.5,0-0.8-0.6-0.8-1.4s0.4-1.4,0.8-1.4c0.5,0,0.8,0.6,0.8,1.4"/>
			<path class="st18" d="M141.8,36.9c-0.5,0-0.8-0.6-0.8-1.4s0.4-1.4,0.8-1.4c0.5,0,0.8,0.6,0.8,1.4"/>
		</g>
		<g>
			<g>
				<polyline class="st13" points="184,37.5 184,44.9 175.1,44.9 175.1,37.9 				"/>
				<rect x="175.1" y="35.5" class="st14" width="9" height="2.4"/>
			</g>
			<path class="st15" d="M176.9,35.5"/>
			<text transform="matrix(1 0 0 1 176.0501 43.518)" class="st16 st17">17</text>
			<path class="st18" d="M176.7,36.9c-0.5,0-0.8-0.6-0.8-1.4s0.4-1.4,0.8-1.4c0.5,0,0.8,0.6,0.8,1.4"/>
			<path class="st18" d="M182,36.9c-0.5,0-0.8-0.6-0.8-1.4s0.4-1.4,0.8-1.4c0.5,0,0.8,0.6,0.8,1.4"/>
		</g>
		<path class="st19" d="M70.4,61.3"/>
		<g>
			<path class="st20" d="M51.4,83.5c0,0,3-3.9-0.5-6.4"/>
			<path class="st20" d="M53.8,83.5c0,0-3-3.9,0.5-6.4"/>
			<path class="st21" d="M58.2,76.5c0,1.4-2.5,2.5-5.5,2.5c-1.5,0-2.8-0.3-3.8-0.7c-1.1-0.5-1.7-1.1-1.7-1.8H58.2z"/>
			<g>
				<defs>
					<path id="SVGID_1_" d="M58.2,76.5c0,1.4-2.5,2.5-5.5,2.5c-1.5,0-2.8-0.3-3.8-0.7c-0.1-0.1-0.3-0.1-0.4-0.2
						c-0.1-0.1-0.3-0.1-0.4-0.2c-0.6-0.4-0.9-0.9-0.9-1.4h2.2h0.2H58.2z"/>
				</defs>
				<clipPath id="SVGID_2_">
					<use xlink:href="#SVGID_1_"  style="overflow:visible;"/>
				</clipPath>
				<g class="st22">
					<line class="st23" x1="47.7" y1="79.4" x2="51.3" y2="76"/>
					<line class="st23" x1="46.7" y1="78.8" x2="50.3" y2="75.4"/>
					<line class="st23" x1="49.3" y1="79.5" x2="52.8" y2="76.1"/>
					<line class="st23" x1="50.8" y1="79.6" x2="54.4" y2="76.1"/>
					<line class="st23" x1="52.4" y1="79.6" x2="56" y2="76.2"/>
					<line class="st23" x1="54" y1="79.6" x2="57.6" y2="76.1"/>
				</g>
				<line class="st24" x1="56" y1="75.7" x2="59" y2="78.7"/>
				<line class="st24" x1="54.3" y1="76" x2="57.3" y2="79"/>
				<line class="st24" x1="52.9" y1="76.4" x2="56" y2="79.3"/>
				<line class="st24" x1="51.4" y1="76.4" x2="54.5" y2="79.3"/>
				<line class="st24" x1="49.8" y1="76.4" x2="52.9" y2="79.3"/>
				<line class="st24" x1="48.4" y1="76.2" x2="51.4" y2="79.2"/>
				<line class="st24" x1="47" y1="76.1" x2="50.1" y2="79.1"/>
			</g>
			<path class="st25" d="M58.2,76.5c0,1.4-2.5,2.5-5.5,2.5c-1.5,0-2.8-0.3-3.8-0.7c-1.1-0.5-1.7-1.1-1.7-1.8H58.2z"/>
			<path class="st19" d="M48.3,78"/>
			<path class="st19" d="M47.4,75.4"/>
			<path class="st19" d="M62.9,76.1"/>
			<g>
				<path class="st26" d="M54.3,80.2c0,0.5,1.1,0.8,2.5,0.8c0.5,0,1.1,0,1.5-0.1c0.6-0.2,1.1-0.4,1.1-0.7c0,0,0,0,0,0
					c2.8-9.4,0.7-6.9,0.7-6.9l-1.4,6.4c-0.4-0.2-1.1-0.3-1.9-0.3C55.5,79.3,54.3,79.7,54.3,80.2z"/>
				<line class="st27" x1="59.4" y1="83.7" x2="58.1" y2="80.9"/>
				<line class="st27" x1="55.9" y1="80.9" x2="55.1" y2="83.7"/>
			</g>
			<g>
				<path class="st26" d="M51,80.2c0,0.5-1.1,0.8-2.5,0.8c-0.5,0-1.1,0-1.5-0.1c-0.6-0.2-1.1-0.4-1.1-0.7c0,0,0,0,0,0
					c-2.8-9.4-0.7-6.9-0.7-6.9l1.4,6.4c0.4-0.2,1.1-0.3,1.9-0.3C49.8,79.3,51,79.7,51,80.2z"/>
				<line class="st27" x1="45.9" y1="83.7" x2="47.2" y2="80.9"/>
				<line class="st27" x1="49.4" y1="80.9" x2="50.2" y2="83.7"/>
			</g>
		</g>
		<g>
			<path class="st20" d="M71.6,83c0,0,3-3.9-0.5-6.4"/>
			<path class="st20" d="M73.9,83c0,0-3-3.9,0.5-6.4"/>
			<path class="st21" d="M78.3,76c0,1.4-2.5,2.5-5.5,2.5c-1.5,0-2.8-0.3-3.8-0.7c-1.1-0.5-1.7-1.1-1.7-1.8H78.3z"/>
			<g>
				<defs>
					<path id="SVGID_3_" d="M78.3,76c0,1.4-2.5,2.5-5.5,2.5c-1.5,0-2.8-0.3-3.8-0.7c-0.1-0.1-0.3-0.1-0.4-0.2
						c-0.1-0.1-0.3-0.1-0.4-0.2c-0.6-0.4-0.9-0.9-0.9-1.4h2.2h0.2H78.3z"/>
				</defs>
				<clipPath id="SVGID_4_">
					<use xlink:href="#SVGID_3_"  style="overflow:visible;"/>
				</clipPath>
				<g class="st28">
					<line class="st23" x1="67.8" y1="78.8" x2="71.4" y2="75.4"/>
					<line class="st23" x1="66.8" y1="78.3" x2="70.4" y2="74.9"/>
					<line class="st23" x1="69.4" y1="79" x2="73" y2="75.5"/>
					<line class="st23" x1="71" y1="79" x2="74.6" y2="75.6"/>
					<line class="st23" x1="72.6" y1="79.1" x2="76.2" y2="75.7"/>
					<line class="st23" x1="74.2" y1="79" x2="77.7" y2="75.6"/>
				</g>
				<line class="st29" x1="76.1" y1="75.2" x2="79.2" y2="78.2"/>
				<line class="st29" x1="74.4" y1="75.5" x2="77.5" y2="78.4"/>
				<line class="st29" x1="73" y1="75.8" x2="76.1" y2="78.8"/>
				<line class="st29" x1="71.6" y1="75.8" x2="74.6" y2="78.8"/>
				<line class="st29" x1="70" y1="75.8" x2="73" y2="78.8"/>
				<line class="st29" x1="68.5" y1="75.6" x2="71.6" y2="78.6"/>
				<line class="st29" x1="67.1" y1="75.6" x2="70.2" y2="78.6"/>
			</g>
			<path class="st25" d="M78.3,76c0,1.4-2.5,2.5-5.5,2.5c-1.5,0-2.8-0.3-3.8-0.7c-1.1-0.5-1.7-1.1-1.7-1.8H78.3z"/>
			<path class="st19" d="M68.4,77.5"/>
			<path class="st19" d="M67.5,74.9"/>
			<path class="st19" d="M83,75.6"/>
			<g>
				<path class="st26" d="M74.5,79.6c0,0.5,1.1,0.8,2.5,0.8c0.5,0,1.1,0,1.5-0.1c0.6-0.2,1.1-0.4,1.1-0.7c0,0,0,0,0,0
					c2.8-9.4,0.7-6.9,0.7-6.9L78.9,79c-0.4-0.2-1.1-0.3-1.9-0.3C75.6,78.8,74.5,79.2,74.5,79.6z"/>
				<line class="st27" x1="79.6" y1="83.2" x2="78.2" y2="80.4"/>
				<line class="st27" x1="76" y1="80.4" x2="75.2" y2="83.2"/>
			</g>
			<g>
				<path class="st26" d="M71.1,79.6c0,0.5-1.1,0.8-2.5,0.8c-0.5,0-1.1,0-1.5-0.1c-0.6-0.2-1.1-0.4-1.1-0.7c0,0,0,0,0,0
					c-2.8-9.4-0.7-6.9-0.7-6.9l1.4,6.4c0.4-0.2,1.1-0.3,1.9-0.3C70,78.8,71.1,79.2,71.1,79.6z"/>
				<line class="st27" x1="66" y1="83.2" x2="67.4" y2="80.4"/>
				<line class="st27" x1="69.6" y1="80.4" x2="70.4" y2="83.2"/>
			</g>
		</g>
		<g>
			<path class="st20" d="M90.6,83c0,0,3-3.9-0.5-6.4"/>
			<path class="st20" d="M92.9,83c0,0-3-3.9,0.5-6.4"/>
			<path class="st21" d="M97.3,76c0,1.4-2.5,2.5-5.5,2.5c-1.5,0-2.8-0.3-3.8-0.7c-1.1-0.5-1.7-1.1-1.7-1.8H97.3z"/>
			<g>
				<defs>
					<path id="SVGID_5_" d="M97.3,76c0,1.4-2.5,2.5-5.5,2.5c-1.5,0-2.8-0.3-3.8-0.7c-0.1-0.1-0.3-0.1-0.4-0.2
						c-0.1-0.1-0.3-0.1-0.4-0.2c-0.6-0.4-0.9-0.9-0.9-1.4h2.2h0.2H97.3z"/>
				</defs>
				<clipPath id="SVGID_6_">
					<use xlink:href="#SVGID_5_"  style="overflow:visible;"/>
				</clipPath>
				<g class="st30">
					<line class="st23" x1="86.8" y1="78.8" x2="90.4" y2="75.4"/>
					<line class="st23" x1="85.8" y1="78.3" x2="89.4" y2="74.9"/>
					<line class="st23" x1="88.4" y1="79" x2="92" y2="75.5"/>
					<line class="st23" x1="90" y1="79" x2="93.6" y2="75.6"/>
					<line class="st23" x1="91.6" y1="79.1" x2="95.2" y2="75.7"/>
					<line class="st23" x1="93.2" y1="79" x2="96.7" y2="75.6"/>
				</g>
				<line class="st31" x1="95.1" y1="75.2" x2="98.2" y2="78.2"/>
				<line class="st31" x1="93.4" y1="75.5" x2="96.5" y2="78.4"/>
				<line class="st31" x1="92" y1="75.8" x2="95.1" y2="78.8"/>
				<line class="st31" x1="90.6" y1="75.8" x2="93.6" y2="78.8"/>
				<line class="st31" x1="89" y1="75.8" x2="92" y2="78.8"/>
				<line class="st31" x1="87.5" y1="75.6" x2="90.6" y2="78.6"/>
				<line class="st31" x1="86.1" y1="75.6" x2="89.2" y2="78.6"/>
			</g>
			<path class="st25" d="M97.3,76c0,1.4-2.5,2.5-5.5,2.5c-1.5,0-2.8-0.3-3.8-0.7c-1.1-0.5-1.7-1.1-1.7-1.8H97.3z"/>
			<path class="st19" d="M87.4,77.5"/>
			<path class="st19" d="M86.5,74.9"/>
			<path class="st19" d="M102,75.6"/>
			<g>
				<path class="st26" d="M93.5,79.6c0,0.5,1.1,0.8,2.5,0.8c0.5,0,1.1,0,1.5-0.1c0.6-0.2,1.1-0.4,1.1-0.7c0,0,0,0,0,0
					c2.8-9.4,0.7-6.9,0.7-6.9L97.9,79c-0.4-0.2-1.1-0.3-1.9-0.3C94.6,78.8,93.5,79.2,93.5,79.6z"/>
				<line class="st27" x1="98.6" y1="83.2" x2="97.2" y2="80.4"/>
				<line class="st27" x1="95" y1="80.4" x2="94.2" y2="83.2"/>
			</g>
			<g>
				<path class="st26" d="M90.1,79.6c0,0.5-1.1,0.8-2.5,0.8c-0.5,0-1.1,0-1.5-0.1c-0.6-0.2-1.1-0.4-1.1-0.7c0,0,0,0,0,0
					c-2.8-9.4-0.7-6.9-0.7-6.9l1.4,6.4c0.4-0.2,1.1-0.3,1.9-0.3C89,78.8,90.1,79.2,90.1,79.6z"/>
				<line class="st27" x1="85" y1="83.2" x2="86.4" y2="80.4"/>
				<line class="st27" x1="88.6" y1="80.4" x2="89.4" y2="83.2"/>
			</g>
		</g>
		<g>
			<path class="st20" d="M114,82.7c0,0,3-3.9-0.5-6.4"/>
			<path class="st20" d="M116.4,82.7c0,0-3-3.9,0.5-6.4"/>
			<path class="st21" d="M120.8,75.7c0,1.4-2.5,2.5-5.5,2.5c-1.5,0-2.8-0.3-3.8-0.7c-1.1-0.5-1.7-1.1-1.7-1.8H120.8z"/>
			<g>
				<defs>
					<path id="SVGID_7_" d="M120.8,75.7c0,1.4-2.5,2.5-5.5,2.5c-1.5,0-2.8-0.3-3.8-0.7c-0.1-0.1-0.3-0.1-0.4-0.2
						c-0.1-0.1-0.3-0.1-0.4-0.2c-0.6-0.4-0.9-0.9-0.9-1.4h2.2h0.2H120.8z"/>
				</defs>
				<clipPath id="SVGID_8_">
					<use xlink:href="#SVGID_7_"  style="overflow:visible;"/>
				</clipPath>
				<g class="st32">
					<line class="st23" x1="110.3" y1="78.5" x2="113.9" y2="75.1"/>
					<line class="st23" x1="109.3" y1="78" x2="112.9" y2="74.6"/>
					<line class="st23" x1="111.9" y1="78.7" x2="115.5" y2="75.2"/>
					<line class="st23" x1="113.5" y1="78.7" x2="117" y2="75.3"/>
					<line class="st23" x1="115" y1="78.8" x2="118.6" y2="75.4"/>
					<line class="st23" x1="116.6" y1="78.7" x2="120.2" y2="75.3"/>
				</g>
				<line class="st33" x1="118.6" y1="74.9" x2="121.7" y2="77.9"/>
				<line class="st33" x1="116.9" y1="75.2" x2="120" y2="78.2"/>
				<line class="st33" x1="115.5" y1="75.5" x2="118.6" y2="78.5"/>
				<line class="st33" x1="114" y1="75.5" x2="117.1" y2="78.5"/>
				<line class="st33" x1="112.4" y1="75.5" x2="115.5" y2="78.5"/>
				<line class="st33" x1="111" y1="75.3" x2="114" y2="78.3"/>
				<line class="st33" x1="109.6" y1="75.3" x2="112.7" y2="78.3"/>
			</g>
			<path class="st25" d="M120.8,75.7c0,1.4-2.5,2.5-5.5,2.5c-1.5,0-2.8-0.3-3.8-0.7c-1.1-0.5-1.7-1.1-1.7-1.8H120.8z"/>
			<path class="st19" d="M110.9,77.2"/>
			<path class="st19" d="M110,74.6"/>
			<path class="st19" d="M125.5,75.3"/>
			<g>
				<path class="st26" d="M117,79.3c0,0.5,1.1,0.8,2.5,0.8c0.5,0,1.1,0,1.5-0.1c0.6-0.2,1.1-0.4,1.1-0.7c0,0,0,0,0,0
					c2.8-9.4,0.7-6.9,0.7-6.9l-1.4,6.4c-0.4-0.2-1.1-0.3-1.9-0.3C118.1,78.5,117,78.9,117,79.3z"/>
				<line class="st27" x1="122" y1="82.9" x2="120.7" y2="80.1"/>
				<line class="st27" x1="118.5" y1="80.1" x2="117.7" y2="82.9"/>
			</g>
			<g>
				<path class="st26" d="M113.6,79.3c0,0.5-1.1,0.8-2.5,0.8c-0.5,0-1.1,0-1.5-0.1c-0.6-0.2-1.1-0.4-1.1-0.7c0,0,0,0,0,0
					c-2.8-9.4-0.7-6.9-0.7-6.9l1.4,6.4c0.4-0.2,1.1-0.3,1.9-0.3C112.4,78.5,113.6,78.9,113.6,79.3z"/>
				<line class="st27" x1="108.5" y1="82.9" x2="109.8" y2="80.1"/>
				<line class="st27" x1="112" y1="80.1" x2="112.8" y2="82.9"/>
			</g>
		</g>
		<g>
			<path class="st20" d="M139,82.4c0,0,3-3.9-0.5-6.4"/>
			<path class="st20" d="M141.4,82.4c0,0-3-3.9,0.5-6.4"/>
			<path class="st21" d="M145.8,75.4c0,1.4-2.5,2.5-5.5,2.5c-1.5,0-2.8-0.3-3.8-0.7c-1.1-0.5-1.7-1.1-1.7-1.8H145.8z"/>
			<g>
				<defs>
					<path id="SVGID_9_" d="M145.8,75.4c0,1.4-2.5,2.5-5.5,2.5c-1.5,0-2.8-0.3-3.8-0.7c-0.1-0.1-0.3-0.1-0.4-0.2
						c-0.1-0.1-0.3-0.1-0.4-0.2c-0.6-0.4-0.9-0.9-0.9-1.4h2.2h0.2H145.8z"/>
				</defs>
				<clipPath id="SVGID_10_">
					<use xlink:href="#SVGID_9_"  style="overflow:visible;"/>
				</clipPath>
				<g class="st34">
					<line class="st23" x1="135.3" y1="78.3" x2="138.9" y2="74.9"/>
					<line class="st23" x1="134.3" y1="77.7" x2="137.9" y2="74.3"/>
					<line class="st23" x1="136.9" y1="78.4" x2="140.5" y2="75"/>
					<line class="st23" x1="138.5" y1="78.5" x2="142" y2="75"/>
					<line class="st23" x1="140" y1="78.5" x2="143.6" y2="75.1"/>
					<line class="st23" x1="141.6" y1="78.5" x2="145.2" y2="75"/>
				</g>
				<line class="st35" x1="143.6" y1="74.6" x2="146.6" y2="77.6"/>
				<line class="st35" x1="141.9" y1="74.9" x2="145" y2="77.9"/>
				<line class="st35" x1="140.5" y1="75.3" x2="143.6" y2="78.2"/>
				<line class="st35" x1="139" y1="75.3" x2="142.1" y2="78.2"/>
				<line class="st35" x1="137.4" y1="75.3" x2="140.5" y2="78.2"/>
				<line class="st35" x1="136" y1="75.1" x2="139" y2="78.1"/>
				<line class="st35" x1="134.6" y1="75" x2="137.7" y2="78"/>
			</g>
			<path class="st25" d="M145.8,75.4c0,1.4-2.5,2.5-5.5,2.5c-1.5,0-2.8-0.3-3.8-0.7c-1.1-0.5-1.7-1.1-1.7-1.8H145.8z"/>
			<path class="st19" d="M135.9,76.9"/>
			<path class="st19" d="M135,74.3"/>
			<path class="st19" d="M150.5,75"/>
			<g>
				<path class="st26" d="M142,79.1c0,0.5,1.1,0.8,2.5,0.8c0.5,0,1.1,0,1.5-0.1c0.6-0.2,1.1-0.4,1.1-0.7c0,0,0,0,0,0
					c2.8-9.4,0.7-6.9,0.7-6.9l-1.4,6.4c-0.4-0.2-1.1-0.3-1.9-0.3C143.1,78.2,142,78.6,142,79.1z"/>
				<line class="st27" x1="147" y1="82.6" x2="145.7" y2="79.8"/>
				<line class="st27" x1="143.5" y1="79.8" x2="142.7" y2="82.6"/>
			</g>
			<g>
				<path class="st26" d="M138.6,79.1c0,0.5-1.1,0.8-2.5,0.8c-0.5,0-1.1,0-1.5-0.1c-0.6-0.2-1.1-0.4-1.1-0.7c0,0,0,0,0,0
					c-2.8-9.4-0.7-6.9-0.7-6.9l1.4,6.4c0.4-0.2,1.1-0.3,1.9-0.3C137.4,78.2,138.6,78.6,138.6,79.1z"/>
				<line class="st27" x1="133.5" y1="82.6" x2="134.8" y2="79.8"/>
				<line class="st27" x1="137" y1="79.8" x2="137.8" y2="82.6"/>
			</g>
		</g>
		<g>
			<path class="st20" d="M159.3,82.4c0,0,3-3.9-0.5-6.4"/>
			<path class="st20" d="M161.6,82.4c0,0-3-3.9,0.5-6.4"/>
			<path class="st21" d="M166,75.4c0,1.4-2.5,2.5-5.5,2.5c-1.5,0-2.8-0.3-3.8-0.7c-1.1-0.5-1.7-1.1-1.7-1.8H166z"/>
			<g>
				<defs>
					<path id="SVGID_11_" d="M166,75.4c0,1.4-2.5,2.5-5.5,2.5c-1.5,0-2.8-0.3-3.8-0.7c-0.1-0.1-0.3-0.1-0.4-0.2
						c-0.1-0.1-0.3-0.1-0.4-0.2c-0.6-0.4-0.9-0.9-0.9-1.4h2.2h0.2H166z"/>
				</defs>
				<clipPath id="SVGID_12_">
					<use xlink:href="#SVGID_11_"  style="overflow:visible;"/>
				</clipPath>
				<g class="st36">
					<line class="st23" x1="155.5" y1="78.3" x2="159.1" y2="74.9"/>
					<line class="st23" x1="154.5" y1="77.7" x2="158.1" y2="74.3"/>
					<line class="st23" x1="157.1" y1="78.4" x2="160.7" y2="75"/>
					<line class="st23" x1="158.7" y1="78.5" x2="162.3" y2="75"/>
					<line class="st23" x1="160.3" y1="78.5" x2="163.9" y2="75.1"/>
					<line class="st23" x1="161.9" y1="78.5" x2="165.4" y2="75"/>
				</g>
				<line class="st37" x1="163.8" y1="74.6" x2="166.9" y2="77.6"/>
				<line class="st37" x1="162.1" y1="74.9" x2="165.2" y2="77.9"/>
				<line class="st37" x1="160.7" y1="75.3" x2="163.8" y2="78.2"/>
				<line class="st37" x1="159.3" y1="75.3" x2="162.3" y2="78.2"/>
				<line class="st37" x1="157.7" y1="75.3" x2="160.7" y2="78.2"/>
				<line class="st37" x1="156.2" y1="75.1" x2="159.3" y2="78.1"/>
				<line class="st37" x1="154.8" y1="75" x2="157.9" y2="78"/>
			</g>
			<path class="st25" d="M166,75.4c0,1.4-2.5,2.5-5.5,2.5c-1.5,0-2.8-0.3-3.8-0.7c-1.1-0.5-1.7-1.1-1.7-1.8H166z"/>
			<path class="st19" d="M156.1,76.9"/>
			<path class="st19" d="M155.2,74.3"/>
			<path class="st19" d="M170.7,75"/>
			<g>
				<path class="st26" d="M162.2,79.1c0,0.5,1.1,0.8,2.5,0.8c0.5,0,1.1,0,1.5-0.1c0.6-0.2,1.1-0.4,1.1-0.7c0,0,0,0,0,0
					c2.8-9.4,0.7-6.9,0.7-6.9l-1.4,6.4c-0.4-0.2-1.1-0.3-1.9-0.3C163.3,78.2,162.2,78.6,162.2,79.1z"/>
				<line class="st27" x1="167.3" y1="82.6" x2="165.9" y2="79.8"/>
				<line class="st27" x1="163.7" y1="79.8" x2="162.9" y2="82.6"/>
			</g>
			<g>
				<path class="st26" d="M158.8,79.1c0,0.5-1.1,0.8-2.5,0.8c-0.5,0-1.1,0-1.5-0.1c-0.6-0.2-1.1-0.4-1.1-0.7c0,0,0,0,0,0
					c-2.8-9.4-0.7-6.9-0.7-6.9l1.4,6.4c0.4-0.2,1.1-0.3,1.9-0.3C157.7,78.2,158.8,78.6,158.8,79.1z"/>
				<line class="st27" x1="153.7" y1="82.6" x2="155.1" y2="79.8"/>
				<line class="st27" x1="157.3" y1="79.8" x2="158.1" y2="82.6"/>
			</g>
		</g>
		<g>
			<path class="st20" d="M178.4,82.4c0,0,3-3.9-0.5-6.4"/>
			<path class="st20" d="M180.8,82.4c0,0-3-3.9,0.5-6.4"/>
			<path class="st21" d="M185.2,75.4c0,1.4-2.5,2.5-5.5,2.5c-1.5,0-2.8-0.3-3.8-0.7c-1.1-0.5-1.7-1.1-1.7-1.8H185.2z"/>
			<g>
				<defs>
					<path id="SVGID_13_" d="M185.2,75.4c0,1.4-2.5,2.5-5.5,2.5c-1.5,0-2.8-0.3-3.8-0.7c-0.1-0.1-0.3-0.1-0.4-0.2
						c-0.1-0.1-0.3-0.1-0.4-0.2c-0.6-0.4-0.9-0.9-0.9-1.4h2.2h0.2H185.2z"/>
				</defs>
				<clipPath id="SVGID_14_">
					<use xlink:href="#SVGID_13_"  style="overflow:visible;"/>
				</clipPath>
				<g class="st38">
					<line class="st23" x1="174.7" y1="78.3" x2="178.3" y2="74.9"/>
					<line class="st23" x1="173.7" y1="77.7" x2="177.3" y2="74.3"/>
					<line class="st23" x1="176.3" y1="78.4" x2="179.8" y2="75"/>
					<line class="st23" x1="177.8" y1="78.5" x2="181.4" y2="75"/>
					<line class="st23" x1="179.4" y1="78.5" x2="183" y2="75.1"/>
					<line class="st23" x1="181" y1="78.5" x2="184.6" y2="75"/>
				</g>
				<line class="st39" x1="183" y1="74.6" x2="186" y2="77.6"/>
				<line class="st39" x1="181.3" y1="74.9" x2="184.3" y2="77.9"/>
				<line class="st39" x1="179.9" y1="75.3" x2="183" y2="78.2"/>
				<line class="st39" x1="178.4" y1="75.3" x2="181.5" y2="78.2"/>
				<line class="st39" x1="176.8" y1="75.3" x2="179.9" y2="78.2"/>
				<line class="st39" x1="175.4" y1="75.1" x2="178.4" y2="78.1"/>
				<line class="st39" x1="174" y1="75" x2="177.1" y2="78"/>
			</g>
			<path class="st25" d="M185.2,75.4c0,1.4-2.5,2.5-5.5,2.5c-1.5,0-2.8-0.3-3.8-0.7c-1.1-0.5-1.7-1.1-1.7-1.8H185.2z"/>
			<path class="st19" d="M175.3,76.9"/>
			<path class="st19" d="M174.4,74.3"/>
			<path class="st19" d="M189.9,75"/>
			<g>
				<path class="st26" d="M181.3,79.1c0,0.5,1.1,0.8,2.5,0.8c0.5,0,1.1,0,1.5-0.1c0.6-0.2,1.1-0.4,1.1-0.7c0,0,0,0,0,0
					c2.8-9.4,0.7-6.9,0.7-6.9l-1.4,6.4c-0.4-0.2-1.1-0.3-1.9-0.3C182.5,78.2,181.3,78.6,181.3,79.1z"/>
				<line class="st27" x1="186.4" y1="82.6" x2="185.1" y2="79.8"/>
				<line class="st27" x1="182.9" y1="79.8" x2="182.1" y2="82.6"/>
			</g>
			<g>
				<path class="st26" d="M178,79.1c0,0.5-1.1,0.8-2.5,0.8c-0.5,0-1.1,0-1.5-0.1c-0.6-0.2-1.1-0.4-1.1-0.7c0,0,0,0,0,0
					c-2.8-9.4-0.7-6.9-0.7-6.9l1.4,6.4c0.4-0.2,1.1-0.3,1.9-0.3C176.8,78.2,178,78.6,178,79.1z"/>
				<line class="st27" x1="172.9" y1="82.6" x2="174.2" y2="79.8"/>
				<line class="st27" x1="176.4" y1="79.8" x2="177.2" y2="82.6"/>
			</g>
		</g>
		<g>
			<path class="st20" d="M196.9,82.4c0,0,3-3.9-0.5-6.4"/>
			<path class="st20" d="M199.2,82.4c0,0-3-3.9,0.5-6.4"/>
			<path class="st21" d="M203.6,75.4c0,1.4-2.5,2.5-5.5,2.5c-1.5,0-2.8-0.3-3.8-0.7c-1.1-0.5-1.7-1.1-1.7-1.8H203.6z"/>
			<g>
				<defs>
					<path id="SVGID_15_" d="M203.6,75.4c0,1.4-2.5,2.5-5.5,2.5c-1.5,0-2.8-0.3-3.8-0.7c-0.1-0.1-0.3-0.1-0.4-0.2
						c-0.1-0.1-0.3-0.1-0.4-0.2c-0.6-0.4-0.9-0.9-0.9-1.4h2.2h0.2H203.6z"/>
				</defs>
				<clipPath id="SVGID_16_">
					<use xlink:href="#SVGID_15_"  style="overflow:visible;"/>
				</clipPath>
				<g class="st40">
					<line class="st23" x1="193.1" y1="78.3" x2="196.7" y2="74.9"/>
					<line class="st23" x1="192.1" y1="77.7" x2="195.7" y2="74.3"/>
					<line class="st23" x1="194.7" y1="78.4" x2="198.3" y2="75"/>
					<line class="st23" x1="196.3" y1="78.5" x2="199.9" y2="75"/>
					<line class="st23" x1="197.9" y1="78.5" x2="201.5" y2="75.1"/>
					<line class="st23" x1="199.5" y1="78.5" x2="203.1" y2="75"/>
				</g>
				<line class="st41" x1="201.4" y1="74.6" x2="204.5" y2="77.6"/>
				<line class="st41" x1="199.7" y1="74.9" x2="202.8" y2="77.9"/>
				<line class="st41" x1="198.3" y1="75.3" x2="201.4" y2="78.2"/>
				<line class="st41" x1="196.9" y1="75.3" x2="199.9" y2="78.2"/>
				<line class="st41" x1="195.3" y1="75.3" x2="198.3" y2="78.2"/>
				<line class="st41" x1="193.8" y1="75.1" x2="196.9" y2="78.1"/>
				<line class="st41" x1="192.4" y1="75" x2="195.5" y2="78"/>
			</g>
			<path class="st25" d="M203.6,75.4c0,1.4-2.5,2.5-5.5,2.5c-1.5,0-2.8-0.3-3.8-0.7c-1.1-0.5-1.7-1.1-1.7-1.8H203.6z"/>
			<path class="st19" d="M193.7,76.9"/>
			<path class="st19" d="M192.8,74.3"/>
			<path class="st19" d="M208.3,75"/>
			<g>
				<path class="st26" d="M199.8,79.1c0,0.5,1.1,0.8,2.5,0.8c0.5,0,1.1,0,1.5-0.1c0.6-0.2,1.1-0.4,1.1-0.7c0,0,0,0,0,0
					c2.8-9.4,0.7-6.9,0.7-6.9l-1.4,6.4c-0.4-0.2-1.1-0.3-1.9-0.3C200.9,78.2,199.8,78.6,199.8,79.1z"/>
				<line class="st27" x1="204.9" y1="82.6" x2="203.5" y2="79.8"/>
				<line class="st27" x1="201.3" y1="79.8" x2="200.5" y2="82.6"/>
			</g>
			<g>
				<path class="st26" d="M196.4,79.1c0,0.5-1.1,0.8-2.5,0.8c-0.5,0-1.1,0-1.5-0.1c-0.6-0.2-1.1-0.4-1.1-0.7c0,0,0,0,0,0
					c-2.8-9.4-0.7-6.9-0.7-6.9l1.4,6.4c0.4-0.2,1.1-0.3,1.9-0.3C195.3,78.2,196.4,78.6,196.4,79.1z"/>
				<line class="st27" x1="191.3" y1="82.6" x2="192.7" y2="79.8"/>
				<line class="st27" x1="194.9" y1="79.8" x2="195.7" y2="82.6"/>
			</g>
		</g>
		<path class="st42" d="M68.2,15"/>
		<polyline class="st2" points="115.2,15 115.2,40.9 115.2,73.4 		"/>
		<g>
			<g>
				<polyline class="st13" points="119.9,37.5 119.9,44.9 110.9,44.9 110.9,37.9 				"/>
				<rect x="110.9" y="35.5" class="st14" width="9" height="2.4"/>
			</g>
			<path class="st15" d="M112.7,35.5"/>
			<text transform="matrix(1 0 0 1 111.8894 43.518)" class="st16 st17">31</text>
			<path class="st18" d="M112.5,36.9c-0.5,0-0.8-0.6-0.8-1.4s0.4-1.4,0.8-1.4c0.5,0,0.8,0.6,0.8,1.4"/>
			<path class="st18" d="M117.9,36.9c-0.5,0-0.8-0.6-0.8-1.4s0.4-1.4,0.8-1.4c0.5,0,0.8,0.6,0.8,1.4"/>
		</g>
		<polyline class="st2" points="179.6,49.6 198.1,49.6 198.3,73.4 		"/>
	</g>
	<g>
		<text transform="matrix(1 0 0 1 5.2498 7.5548)" class="st43 st44">growth</text>
		<text transform="matrix(1 0 0 1 7.7269 13.3123)" class="st43 st44">medium</text>
	</g>
	<g>
		<text transform="matrix(1 0 0 1 2.3845 39.765)" class="st43 st44">biological</text>
		<text transform="matrix(1 0 0 1 5.8845 45.7705)" class="st43 st44">replicates</text>
	</g>
	<g>
		<text transform="matrix(1 0 0 1 3.0597 78.4274)" class="st43 st44">technical</text>
		<text transform="matrix(1 0 0 1 5.233 84.4331)" class="st43 st44">replicates</text>
	</g>
</g>
<g>
	<defs>
		<rect id="SVGID_17_" x="220.5" y="4.7" width="55.5" height="10.3"/>
	</defs>
	<clipPath id="SVGID_18_">
		<use xlink:href="#SVGID_17_"  style="overflow:visible;"/>
	</clipPath>
	<path class="st45" d="M224.2,11.4c-0.9,0.7-1.6,0.9-2,0.9c-0.6,0-0.9-0.4-0.9-1.1c0-0.5,0.3-1.5,0.6-2c0.5-0.7,1-0.9,1.3-0.9
		c1,0,1,1.3,1,2C224.2,10.7,224.2,11.2,224.2,11.4 M224.8,10.1c0-1.5-0.9-2-1.6-2c-1.3,0-2.6,1.4-2.6,2.8c0,0.9,0.6,1.6,1.6,1.6
		c0.6,0,1.3-0.2,2.1-0.8c0.1,0.5,0.4,0.8,0.9,0.8c0.5,0,0.8-0.5,0.8-0.7c0-0.1-0.1-0.1-0.1-0.1c-0.1,0-0.1,0-0.1,0.1
		c-0.2,0.5-0.5,0.5-0.5,0.5c-0.3,0-0.3-0.8-0.3-1c0-0.2,0-0.2,0.1-0.3c0.9-1.1,1.1-2.3,1.1-2.3c0,0,0-0.1-0.1-0.1
		c-0.1,0-0.1,0-0.1,0.2c-0.2,0.6-0.5,1.4-1,1.9V10.1z"/>
	<path class="st45" d="M228.6,6.7c0.6-0.2,0.8-0.3,1-0.4c0.1-0.1,0.2-0.1,0.2-0.2c0-0.1-0.1-0.2-0.2-0.2c0,0-0.1,0-0.1,0.1l-0.9,0.6
		l0.1-1c0-0.1,0-0.3-0.2-0.3c-0.1,0-0.2,0.1-0.2,0.2c0,0.1,0,0.3,0,0.3c0,0.1,0.1,0.6,0.1,0.8l-0.9-0.6c-0.1,0-0.1-0.1-0.1-0.1
		c-0.1,0-0.2,0.1-0.2,0.2c0,0.1,0.1,0.2,0.1,0.2l1,0.4c-0.6,0.2-0.8,0.3-1,0.4c-0.1,0.1-0.2,0.1-0.2,0.2c0,0.1,0.1,0.2,0.2,0.2
		c0,0,0.1,0,0.1-0.1l0.9-0.6l-0.1,1.1c0,0.1,0.1,0.2,0.2,0.2c0.1,0,0.2-0.1,0.2-0.2c0-0.1,0-0.3,0-0.3c0-0.1-0.1-0.6-0.1-0.8
		l0.8,0.5c0.2,0.1,0.2,0.1,0.3,0.1c0.1,0,0.2-0.1,0.2-0.2c0-0.1-0.1-0.2-0.1-0.2L228.6,6.7"/>
	<path class="st45" d="M240.6,9.1c0-0.2-0.1-0.3-0.1-0.3c0,0-0.1,0.1-0.1,0.3c0,0.9-0.7,1.5-1.4,1.5c-0.6,0-1.1-0.4-1.6-0.8
		c-0.5-0.4-1-0.9-1.7-0.9c-1.1,0-1.6,1.1-1.6,2c0,0.3,0.1,0.3,0.1,0.3c0.1,0,0.1-0.2,0.1-0.2c0-1.1,0.8-1.5,1.4-1.5
		c0.6,0,1.1,0.4,1.6,0.8c0.5,0.4,1,0.9,1.7,0.9C240.1,11.1,240.6,10,240.6,9.1"/>
	<path class="st45" d="M246.8,6.8c0.2,0.5,0.4,1.2,0.8,2.4c0.6,1.7,0.9,2.3,1.5,3.2c0.1,0.2,0.1,0.2,0.2,0.2c0.1,0,0.3-0.1,0.4-0.2
		c0.1-0.1,0.1-0.1,0.3-0.6c0.6-2.6,1.3-5.2,1.5-5.7c0,0,0.2-0.4,1.4-0.4c0.2,0,0.4-0.5,0.4-0.7c0-0.2-0.1-0.2-0.2-0.2
		c-1,0-1.4,0.4-1.5,0.5c-0.3,0.3-0.5,1.1-1,2.7c-0.3,1.2-0.7,2.5-1,3.8c-0.5-0.8-0.8-1.6-1.3-2.8c-0.5-1.4-0.8-2.4-1.1-3.3
		c-0.1-0.2-0.1-0.2-0.2-0.2c0,0-0.2,0-0.5,0.2c-0.1,0.1-0.1,0.2-0.1,0.3c-0.3,2.6-1.2,5.1-1.4,5.6c-0.1,0.1-0.2,0.3-0.4,0.3
		c-0.1,0-0.5,0-0.7-0.3c0,0-0.1,0-0.1,0c-0.2,0-0.4,0.5-0.4,0.7c0,0.3,0.6,0.5,0.9,0.5c0.6,0,1.1-1.4,1.3-1.8
		C246.3,9.3,246.6,7.8,246.8,6.8"/>
	<path class="st45" d="M256.4,14.7c0,0,0,0-0.2-0.2c-1.2-1.2-1.5-3.1-1.5-4.5c0-1.7,0.4-3.4,1.6-4.6c0.1-0.1,0.1-0.1,0.1-0.2
		c0-0.1,0-0.1-0.1-0.1c-0.1,0-1,0.7-1.5,1.9c-0.5,1.1-0.6,2.1-0.6,3c0,0.8,0.1,1.9,0.6,3C255.4,14.2,256.3,14.8,256.4,14.7
		C256.4,14.8,256.4,14.8,256.4,14.7"/>
	<path class="st45" d="M259.3,9c0-0.2,0.1-0.6,0.1-0.6c0-0.2-0.1-0.3-0.3-0.3c0,0-0.3,0-0.4,0.3l-1.4,5.6c0,0.1,0,0.1,0,0.2
		c0,0.1,0.1,0.3,0.3,0.3c0.2,0,0.3-0.2,0.3-0.2c0-0.1,0.2-0.6,0.5-2.1c0.3,0.3,0.7,0.3,0.9,0.3c0.7,0,1.1-0.4,1.3-0.7
		c0.1,0.4,0.4,0.7,0.9,0.7c0.3,0,0.6-0.2,0.7-0.5c0.2-0.3,0.3-0.9,0.3-1c0-0.1-0.1-0.1-0.1-0.1c-0.1,0-0.1,0-0.1,0.2
		c-0.2,0.6-0.3,1.2-0.7,1.2c-0.3,0-0.3-0.3-0.3-0.4c0-0.2,0.1-0.7,0.2-1l0.3-1c0-0.1,0.1-0.5,0.2-0.7c0-0.2,0.1-0.6,0.1-0.7
		c0-0.2-0.1-0.3-0.3-0.3c0,0-0.3,0-0.4,0.3l-0.5,1.8c-0.1,0.5-0.2,0.9-0.3,1c0,0-0.5,0.9-1.3,0.9c-0.5,0-0.7-0.3-0.7-0.8
		c0-0.3,0.1-0.6,0.1-0.8L259.3,9"/>
	<path class="st45" d="M264.8,12.4c0-0.6-0.2-1-0.6-1c-0.3,0-0.5,0.2-0.5,0.5c0,0.3,0.2,0.5,0.5,0.5c0.1,0,0.2,0,0.3-0.1
		c0,0,0,0,0,0s0,0,0,0.1c0,0.7-0.3,1.3-0.7,1.6c-0.1,0.1-0.1,0.1-0.1,0.2c0,0.1,0,0.1,0.1,0.1C264.1,14.2,264.8,13.5,264.8,12.4"/>
	<path class="st45" d="M269,12.3c-0.5,0-0.9-0.3-0.9-1c0-0.3,0.1-1.1,0.5-1.7c0.4-0.7,1-0.8,1.3-0.8c0.8,0,0.9,0.6,0.9,0.9
		c0,0.5-0.2,1.3-0.5,1.7C269.9,12,269.4,12.3,269,12.3 M272.2,8.7c0.1,0,0.5,0,0.5-0.3c0-0.2-0.2-0.2-0.4-0.2h-2.2
		c-1.5,0-2.5,1.6-2.5,2.8c0,0.9,0.6,1.5,1.5,1.5c1.1,0,2.4-1.2,2.4-2.7c0-0.2,0-0.6-0.3-1.1H272.2z"/>
	<path class="st45" d="M275.9,9.9c0-0.8-0.1-1.9-0.6-3c-0.6-1.2-1.4-1.8-1.5-1.8c-0.1,0-0.1,0-0.1,0.1c0,0,0,0,0.2,0.2
		c1,1,1.5,2.5,1.5,4.5c0,1.7-0.4,3.4-1.6,4.6c-0.1,0.1-0.1,0.1-0.1,0.2c0,0.1,0,0.1,0.1,0.1c0.1,0,1-0.7,1.5-1.9
		C275.8,11.8,275.9,10.8,275.9,9.9"/>
</g>
<g>
	<defs>
		<rect id="SVGID_19_" x="217.3" y="34.5" width="61.9" height="10.3"/>
	</defs>
	<clipPath id="SVGID_20_">
		<use xlink:href="#SVGID_19_"  style="overflow:visible;"/>
	</clipPath>
	<path class="st46" d="M220.9,41.2c-0.9,0.7-1.6,0.9-2,0.9c-0.6,0-0.9-0.4-0.9-1.1c0-0.5,0.3-1.5,0.6-2c0.5-0.7,1-0.9,1.3-0.9
		c1,0,1,1.3,1,2C220.9,40.5,220.9,41,220.9,41.2 M221.6,39.9c0-1.5-0.9-2-1.6-2c-1.3,0-2.6,1.4-2.6,2.8c0,0.9,0.6,1.6,1.6,1.6
		c0.6,0,1.3-0.2,2.1-0.8c0.1,0.5,0.4,0.8,0.9,0.8c0.5,0,0.8-0.5,0.8-0.7c0-0.1-0.1-0.1-0.1-0.1c-0.1,0-0.1,0-0.1,0.1
		c-0.2,0.5-0.5,0.5-0.5,0.5c-0.3,0-0.3-0.8-0.3-1c0-0.2,0-0.2,0.1-0.3c0.9-1.1,1.1-2.3,1.1-2.3c0,0,0-0.1-0.1-0.1
		c-0.1,0-0.1,0-0.1,0.2c-0.2,0.6-0.5,1.4-1,1.9V39.9z"/>
	<path class="st46" d="M223.9,42.8c0,0.1-0.1,0.2-0.1,0.3c0,0.3,0.3,0.6,0.6,0.6c0.7,0,1-0.9,1-1c0-0.1-0.1-0.1-0.1-0.1
		c-0.1,0-0.1,0-0.1,0.1c-0.2,0.5-0.5,0.8-0.7,0.8c-0.1,0-0.2-0.1-0.2-0.2c0-0.2,0-0.3,0.1-0.4c0.1-0.2,0.1-0.4,0.2-0.5
		c0.1-0.2,0.3-0.8,0.3-0.9c0-0.1,0-0.1,0-0.2c0-0.3-0.3-0.6-0.6-0.6c-0.7,0-1,0.9-1,1c0,0.1,0.1,0.1,0.1,0.1c0.1,0,0.1,0,0.1-0.1
		c0.2-0.6,0.5-0.8,0.7-0.8c0.1,0,0.2,0.1,0.2,0.2c0,0.2,0,0.3-0.2,0.7L223.9,42.8 M225.3,39.4c0-0.1-0.1-0.3-0.3-0.3
		c-0.2,0-0.4,0.2-0.4,0.4c0,0.1,0.1,0.3,0.3,0.3C225.1,39.8,225.3,39.6,225.3,39.4z"/>
	<path class="st46" d="M236.1,38.9c0-0.2-0.1-0.3-0.1-0.3c0,0-0.1,0.1-0.1,0.3c0,0.9-0.7,1.5-1.4,1.5c-0.6,0-1.1-0.4-1.6-0.8
		c-0.5-0.4-1-0.9-1.7-0.9c-1.1,0-1.6,1.1-1.6,2c0,0.3,0.1,0.3,0.1,0.3c0.1,0,0.1-0.2,0.1-0.2c0-1.1,0.8-1.5,1.4-1.5
		c0.6,0,1.1,0.4,1.6,0.8c0.5,0.4,1,0.9,1.7,0.9C235.5,40.9,236.1,39.8,236.1,38.9"/>
	<path class="st46" d="M242.3,36.6c0.2,0.5,0.4,1.2,0.8,2.4c0.6,1.7,0.9,2.3,1.5,3.2c0.1,0.2,0.1,0.2,0.2,0.2c0.1,0,0.3-0.1,0.4-0.2
		c0.1-0.1,0.1-0.1,0.3-0.6c0.6-2.6,1.3-5.2,1.5-5.7c0,0,0.2-0.4,1.4-0.4c0.2,0,0.4-0.5,0.4-0.7c0-0.2-0.1-0.2-0.2-0.2
		c-1,0-1.4,0.4-1.5,0.5c-0.3,0.3-0.5,1.1-1,2.7c-0.3,1.2-0.7,2.5-1,3.8c-0.5-0.8-0.8-1.6-1.3-2.8c-0.5-1.4-0.8-2.4-1.1-3.3
		c-0.1-0.2-0.1-0.2-0.2-0.2c0,0-0.2,0-0.5,0.2c-0.1,0.1-0.1,0.2-0.1,0.3c-0.3,2.6-1.2,5.1-1.4,5.6c-0.1,0.1-0.2,0.3-0.4,0.3
		c-0.1,0-0.5,0-0.7-0.3c0,0-0.1,0-0.1,0c-0.2,0-0.4,0.5-0.4,0.7c0,0.3,0.6,0.5,0.9,0.5c0.6,0,1.1-1.4,1.3-1.8
		C241.8,39.1,242.1,37.6,242.3,36.6"/>
	<path class="st46" d="M251.9,44.5c0,0,0,0-0.2-0.2c-1.2-1.2-1.5-3.1-1.5-4.5c0-1.7,0.4-3.4,1.6-4.6c0.1-0.1,0.1-0.1,0.1-0.2
		c0-0.1,0-0.1-0.1-0.1c-0.1,0-1,0.7-1.5,1.9c-0.5,1.1-0.6,2.1-0.6,3c0,0.8,0.1,1.9,0.6,3C250.9,44,251.7,44.6,251.9,44.5
		C251.9,44.6,251.9,44.6,251.9,44.5"/>
	<path class="st46" d="M256.4,41.2c-0.9,0.7-1.6,0.9-2,0.9c-0.6,0-0.9-0.4-0.9-1.1c0-0.5,0.3-1.5,0.6-2c0.5-0.7,1-0.9,1.3-0.9
		c1,0,1,1.3,1,2C256.4,40.5,256.4,41,256.4,41.2 M257.1,39.9c0-1.5-0.9-2-1.6-2c-1.3,0-2.6,1.4-2.6,2.8c0,0.9,0.6,1.6,1.6,1.6
		c0.6,0,1.3-0.2,2.1-0.8c0.1,0.5,0.4,0.8,0.9,0.8c0.5,0,0.8-0.5,0.8-0.7c0-0.1-0.1-0.1-0.1-0.1c-0.1,0-0.1,0-0.1,0.1
		c-0.2,0.5-0.5,0.5-0.5,0.5c-0.3,0-0.3-0.8-0.3-1c0-0.2,0-0.2,0.1-0.3c0.9-1.1,1.1-2.3,1.1-2.3c0,0,0-0.1-0.1-0.1
		c-0.1,0-0.1,0-0.1,0.2c-0.2,0.6-0.5,1.4-1,1.9V39.9z"/>
	<path class="st46" d="M260.9,36.5c0.6-0.2,0.8-0.3,1-0.4c0.1-0.1,0.2-0.1,0.2-0.2c0-0.1-0.1-0.2-0.2-0.2c0,0-0.1,0-0.1,0.1
		l-0.9,0.6l0.1-1c0-0.1,0-0.3-0.2-0.3c-0.1,0-0.2,0.1-0.2,0.2c0,0.1,0,0.3,0,0.3c0,0.1,0.1,0.6,0.1,0.8l-0.9-0.6
		c-0.1,0-0.1-0.1-0.1-0.1c-0.1,0-0.2,0.1-0.2,0.2c0,0.1,0.1,0.2,0.1,0.2l1,0.4c-0.6,0.2-0.8,0.3-1,0.4c-0.1,0.1-0.2,0.1-0.2,0.2
		c0,0.1,0.1,0.2,0.2,0.2c0,0,0.1,0,0.1-0.1l0.9-0.6l-0.1,1.1c0,0.1,0.1,0.2,0.2,0.2c0.1,0,0.2-0.1,0.2-0.2c0-0.1,0-0.3,0-0.3
		c0-0.1-0.1-0.6-0.1-0.8l0.8,0.5c0.2,0.1,0.2,0.1,0.3,0.1c0.1,0,0.2-0.1,0.2-0.2c0-0.1-0.1-0.2-0.1-0.2L260.9,36.5"/>
	<path class="st46" d="M265.1,42.2c0-0.6-0.2-1-0.6-1c-0.3,0-0.5,0.2-0.5,0.5c0,0.3,0.2,0.5,0.5,0.5c0.1,0,0.2,0,0.3-0.1
		c0,0,0,0,0,0s0,0,0,0.1c0,0.7-0.3,1.3-0.7,1.6c-0.1,0.1-0.1,0.1-0.1,0.2c0,0.1,0,0.1,0.1,0.1C264.4,44,265.1,43.3,265.1,42.2"/>
	<path class="st46" d="M269.3,42.1c-0.5,0-0.9-0.3-0.9-1c0-0.3,0.1-1.1,0.5-1.7c0.4-0.7,1-0.8,1.3-0.8c0.8,0,0.9,0.6,0.9,0.9
		c0,0.5-0.2,1.3-0.5,1.7C270.2,41.8,269.7,42.1,269.3,42.1 M272.5,38.5c0.1,0,0.5,0,0.5-0.3c0-0.2-0.2-0.2-0.4-0.2h-2.2
		c-1.5,0-2.5,1.6-2.5,2.8c0,0.9,0.6,1.5,1.5,1.5c1.1,0,2.4-1.2,2.4-2.7c0-0.2,0-0.6-0.3-1.1H272.5z"/>
	<path class="st46" d="M273.8,42.8c0,0.1-0.1,0.2-0.1,0.3c0,0.3,0.3,0.6,0.6,0.6c0.7,0,1-0.9,1-1c0-0.1-0.1-0.1-0.1-0.1
		c-0.1,0-0.1,0-0.1,0.1c-0.2,0.5-0.5,0.8-0.7,0.8c-0.1,0-0.2-0.1-0.2-0.2c0-0.2,0-0.3,0.1-0.4c0.1-0.2,0.1-0.4,0.2-0.5
		c0.1-0.2,0.3-0.8,0.3-0.9c0-0.1,0-0.1,0-0.2c0-0.3-0.3-0.6-0.6-0.6c-0.7,0-1,0.9-1,1c0,0.1,0.1,0.1,0.1,0.1c0.1,0,0.1,0,0.1-0.1
		c0.2-0.6,0.5-0.8,0.7-0.8c0.1,0,0.2,0.1,0.2,0.2c0,0.2,0,0.3-0.2,0.7L273.8,42.8 M275.2,39.4c0-0.1-0.1-0.3-0.3-0.3
		c-0.2,0-0.4,0.2-0.4,0.4c0,0.1,0.1,0.3,0.3,0.3C275,39.8,275.2,39.6,275.2,39.4z"/>
	<path class="st46" d="M279.1,39.7c0-0.8-0.1-1.9-0.6-3c-0.6-1.2-1.4-1.8-1.5-1.8c-0.1,0-0.1,0-0.1,0.1c0,0,0,0,0.2,0.2
		c1,1,1.5,2.5,1.5,4.5c0,1.7-0.4,3.4-1.6,4.6c-0.1,0.1-0.1,0.1-0.1,0.2c0,0.1,0,0.1,0.1,0.1c0.1,0,1-0.7,1.5-1.9
		C278.9,41.6,279.1,40.6,279.1,39.7"/>
</g>
<g>
	<defs>
		<rect id="SVGID_21_" x="212" y="71.7" width="72.5" height="10.6"/>
	</defs>
	<clipPath id="SVGID_22_">
		<use xlink:href="#SVGID_21_"  style="overflow:visible;"/>
	</clipPath>
	<path class="st47" d="M215.8,78.4c-0.9,0.7-1.6,0.9-2,0.9c-0.6,0-0.9-0.4-0.9-1.1c0-0.5,0.3-1.5,0.6-2c0.5-0.7,1-0.9,1.3-0.9
		c1,0,1,1.3,1,2C215.8,77.7,215.8,78.2,215.8,78.4 M216.4,77.1c0-1.5-0.9-2-1.6-2c-1.3,0-2.6,1.4-2.6,2.8c0,0.9,0.6,1.6,1.6,1.6
		c0.6,0,1.3-0.2,2.1-0.8c0.1,0.5,0.4,0.8,0.9,0.8c0.5,0,0.8-0.5,0.8-0.7c0-0.1-0.1-0.1-0.1-0.1c-0.1,0-0.1,0-0.1,0.1
		c-0.2,0.5-0.5,0.5-0.5,0.5c-0.3,0-0.3-0.8-0.3-1c0-0.2,0-0.2,0.1-0.3c0.9-1.1,1.1-2.3,1.1-2.3c0,0,0-0.1-0.1-0.1
		c-0.1,0-0.1,0-0.1,0.2c-0.2,0.6-0.5,1.4-1,1.9V77.1z"/>
	<path class="st47" d="M218.8,80c0,0.1-0.1,0.2-0.1,0.3c0,0.3,0.3,0.6,0.6,0.6c0.7,0,1-0.9,1-1c0-0.1-0.1-0.1-0.1-0.1
		c-0.1,0-0.1,0-0.1,0.1c-0.2,0.5-0.5,0.8-0.7,0.8c-0.1,0-0.2-0.1-0.2-0.2c0-0.2,0-0.3,0.1-0.4c0.1-0.2,0.1-0.4,0.2-0.5
		c0.1-0.2,0.3-0.8,0.3-0.9c0-0.1,0-0.1,0-0.2c0-0.3-0.3-0.6-0.6-0.6c-0.7,0-1,0.9-1,1c0,0.1,0.1,0.1,0.1,0.1c0.1,0,0.1,0,0.1-0.1
		c0.2-0.6,0.5-0.8,0.7-0.8c0.1,0,0.2,0.1,0.2,0.2c0,0.2,0,0.3-0.2,0.7L218.8,80 M220.2,76.6c0-0.1-0.1-0.3-0.3-0.3
		c-0.2,0-0.4,0.2-0.4,0.4c0,0.1,0.1,0.3,0.3,0.3C220,77,220.2,76.8,220.2,76.6z"/>
	<path class="st47" d="M222.2,80.7c0,0.4-0.1,0.8-0.5,1.2c0,0,0,0,0,0.1c0,0,0.1,0.1,0.1,0.1c0.1,0,0.7-0.5,0.7-1.3
		c0-0.4-0.2-0.7-0.5-0.7c-0.2,0-0.4,0.2-0.4,0.4c0,0.2,0.2,0.4,0.4,0.4C222.1,80.8,222.2,80.7,222.2,80.7"/>
	<path class="st47" d="M224.6,81.2c-0.1,0.5-0.5,0.9-0.9,0.9c-0.1,0-0.2,0-0.2,0c0.2-0.1,0.2-0.2,0.2-0.3c0-0.2-0.1-0.3-0.3-0.3
		c-0.2,0-0.4,0.2-0.4,0.4c0,0.3,0.3,0.4,0.7,0.4c0.4,0,1.2-0.2,1.4-1.1l0.6-2.4c0-0.1,0-0.1,0-0.2c0-0.4-0.3-0.6-0.7-0.6
		c-0.8,0-1.2,0.9-1.2,1c0,0.1,0.1,0.1,0.1,0.1c0.1,0,0.1,0,0.1-0.1c0.2-0.4,0.5-0.8,0.9-0.8c0.2,0,0.2,0.1,0.2,0.3
		c0,0.1,0,0.2,0,0.2L224.6,81.2 M226,76.6c0-0.1-0.1-0.3-0.3-0.3c-0.2,0-0.4,0.2-0.4,0.4c0,0.1,0.1,0.3,0.3,0.3
		C225.8,77,226,76.8,226,76.6z"/>
	<path class="st47" d="M236.8,76.1c0-0.2-0.1-0.3-0.1-0.3c0,0-0.1,0.1-0.1,0.3c0,0.9-0.7,1.5-1.4,1.5c-0.6,0-1.1-0.4-1.6-0.8
		c-0.5-0.4-1-0.9-1.7-0.9c-1.1,0-1.6,1.1-1.6,2c0,0.3,0.1,0.3,0.1,0.3c0.1,0,0.1-0.2,0.1-0.2c0-1.1,0.8-1.5,1.4-1.5
		c0.6,0,1.1,0.4,1.6,0.8c0.5,0.4,1,0.9,1.7,0.9C236.3,78.1,236.8,77,236.8,76.1"/>
	<path class="st47" d="M243,73.8c0.2,0.5,0.4,1.2,0.8,2.4c0.6,1.7,0.9,2.3,1.5,3.2c0.1,0.2,0.1,0.2,0.2,0.2c0.1,0,0.3-0.1,0.4-0.2
		c0.1-0.1,0.1-0.1,0.3-0.6c0.6-2.6,1.3-5.2,1.5-5.7c0,0,0.2-0.4,1.4-0.4c0.2,0,0.4-0.5,0.4-0.7c0-0.2-0.1-0.2-0.2-0.2
		c-1,0-1.4,0.4-1.5,0.5c-0.3,0.3-0.5,1.1-1,2.7c-0.3,1.2-0.7,2.5-1,3.8c-0.5-0.8-0.8-1.6-1.3-2.8c-0.5-1.4-0.8-2.4-1.1-3.3
		c-0.1-0.2-0.1-0.2-0.2-0.2c0,0-0.2,0-0.5,0.2c-0.1,0.1-0.1,0.2-0.1,0.3c-0.3,2.6-1.2,5.1-1.4,5.6c-0.1,0.1-0.2,0.3-0.4,0.3
		c-0.1,0-0.5,0-0.7-0.3c0,0-0.1,0-0.1,0c-0.2,0-0.4,0.5-0.4,0.7c0,0.3,0.6,0.5,0.9,0.5c0.6,0,1.1-1.4,1.3-1.8
		C242.5,76.3,242.8,74.8,243,73.8"/>
	<path class="st47" d="M252.7,81.7c0,0,0,0-0.2-0.2c-1.2-1.2-1.5-3.1-1.5-4.5c0-1.7,0.4-3.4,1.6-4.6c0.1-0.1,0.1-0.1,0.1-0.2
		c0-0.1,0-0.1-0.1-0.1c-0.1,0-1,0.7-1.5,1.9c-0.5,1.1-0.6,2.1-0.6,3c0,0.8,0.1,1.9,0.6,3C251.6,81.2,252.5,81.8,252.7,81.7
		C252.6,81.8,252.7,81.8,252.7,81.7"/>
	<path class="st47" d="M257.2,78.4c-0.9,0.7-1.6,0.9-2,0.9c-0.6,0-0.9-0.4-0.9-1.1c0-0.5,0.3-1.5,0.6-2c0.5-0.7,1-0.9,1.3-0.9
		c1,0,1,1.3,1,2C257.2,77.7,257.2,78.2,257.2,78.4 M257.9,77.1c0-1.5-0.9-2-1.6-2c-1.3,0-2.6,1.4-2.6,2.8c0,0.9,0.6,1.6,1.6,1.6
		c0.6,0,1.3-0.2,2.1-0.8c0.1,0.5,0.4,0.8,0.9,0.8c0.5,0,0.8-0.5,0.8-0.7c0-0.1-0.1-0.1-0.1-0.1c-0.1,0-0.1,0-0.1,0.1
		c-0.2,0.5-0.5,0.5-0.5,0.5c-0.3,0-0.3-0.8-0.3-1c0-0.2,0-0.2,0.1-0.3c0.9-1.1,1.1-2.3,1.1-2.3c0,0,0-0.1-0.1-0.1
		c-0.1,0-0.1,0-0.1,0.2c-0.2,0.6-0.5,1.4-1,1.9V77.1z"/>
	<path class="st47" d="M260.2,80c0,0.1-0.1,0.2-0.1,0.3c0,0.3,0.3,0.6,0.6,0.6c0.7,0,1-0.9,1-1c0-0.1-0.1-0.1-0.1-0.1
		c-0.1,0-0.1,0-0.1,0.1c-0.2,0.5-0.5,0.8-0.7,0.8c-0.1,0-0.2-0.1-0.2-0.2c0-0.2,0-0.3,0.1-0.4c0.1-0.2,0.1-0.4,0.2-0.5
		c0.1-0.2,0.3-0.8,0.3-0.9c0-0.1,0-0.1,0-0.2c0-0.3-0.3-0.6-0.6-0.6c-0.7,0-1,0.9-1,1c0,0.1,0.1,0.1,0.1,0.1c0.1,0,0.1,0,0.1-0.1
		c0.2-0.6,0.5-0.8,0.7-0.8c0.1,0,0.2,0.1,0.2,0.2c0,0.2,0,0.3-0.2,0.7L260.2,80 M261.6,76.6c0-0.1-0.1-0.3-0.3-0.3
		c-0.2,0-0.4,0.2-0.4,0.4c0,0.1,0.1,0.3,0.3,0.3C261.4,77,261.6,76.8,261.6,76.6z"/>
	<path class="st47" d="M264.6,79.4c0-0.6-0.2-1-0.6-1c-0.3,0-0.5,0.2-0.5,0.5c0,0.3,0.2,0.5,0.5,0.5c0.1,0,0.2,0,0.3-0.1
		c0,0,0,0,0,0s0,0,0,0.1c0,0.7-0.3,1.3-0.7,1.6c-0.1,0.1-0.1,0.1-0.1,0.2c0,0.1,0,0.1,0.1,0.1C263.9,81.2,264.6,80.5,264.6,79.4"/>
	<path class="st47" d="M268.8,79.3c-0.5,0-0.9-0.3-0.9-1c0-0.3,0.1-1.1,0.5-1.7c0.4-0.7,1-0.8,1.3-0.8c0.8,0,0.9,0.6,0.9,0.9
		c0,0.5-0.2,1.3-0.5,1.7C269.7,79,269.2,79.3,268.8,79.3 M272,75.7c0.1,0,0.5,0,0.5-0.3c0-0.2-0.2-0.2-0.4-0.2h-2.2
		c-1.5,0-2.5,1.6-2.5,2.8c0,0.9,0.6,1.5,1.5,1.5c1.1,0,2.4-1.2,2.4-2.7c0-0.2,0-0.6-0.3-1.1H272z"/>
	<path class="st47" d="M273.3,80c0,0.1-0.1,0.2-0.1,0.3c0,0.3,0.3,0.6,0.6,0.6c0.7,0,1-0.9,1-1c0-0.1-0.1-0.1-0.1-0.1
		c-0.1,0-0.1,0-0.1,0.1c-0.2,0.5-0.5,0.8-0.7,0.8c-0.1,0-0.2-0.1-0.2-0.2c0-0.2,0-0.3,0.1-0.4c0.1-0.2,0.1-0.4,0.2-0.5
		c0.1-0.2,0.3-0.8,0.3-0.9c0-0.1,0-0.1,0-0.2c0-0.3-0.3-0.6-0.6-0.6c-0.7,0-1,0.9-1,1c0,0.1,0.1,0.1,0.1,0.1c0.1,0,0.1,0,0.1-0.1
		c0.2-0.6,0.5-0.8,0.7-0.8c0.1,0,0.2,0.1,0.2,0.2c0,0.2,0,0.3-0.2,0.7L273.3,80 M274.7,76.6c0-0.1-0.1-0.3-0.3-0.3
		c-0.2,0-0.4,0.2-0.4,0.4c0,0.1,0.1,0.3,0.3,0.3C274.5,77,274.7,76.8,274.7,76.6z"/>
	<path class="st47" d="M276.7,80.7c0,0.4-0.1,0.8-0.5,1.2c0,0,0,0,0,0.1c0,0,0.1,0.1,0.1,0.1c0.1,0,0.7-0.5,0.7-1.3
		c0-0.4-0.2-0.7-0.5-0.7c-0.2,0-0.4,0.2-0.4,0.4c0,0.2,0.2,0.4,0.4,0.4C276.6,80.8,276.7,80.7,276.7,80.7"/>
	<path class="st47" d="M279.1,81.2c-0.1,0.5-0.5,0.9-0.9,0.9c-0.1,0-0.2,0-0.2,0c0.2-0.1,0.2-0.2,0.2-0.3c0-0.2-0.1-0.3-0.3-0.3
		c-0.2,0-0.4,0.2-0.4,0.4c0,0.3,0.3,0.4,0.7,0.4c0.4,0,1.2-0.2,1.4-1.1l0.6-2.4c0-0.1,0-0.1,0-0.2c0-0.4-0.3-0.6-0.7-0.6
		c-0.8,0-1.2,0.9-1.2,1c0,0.1,0.1,0.1,0.1,0.1c0.1,0,0.1,0,0.1-0.1c0.2-0.4,0.5-0.8,0.9-0.8c0.2,0,0.2,0.1,0.2,0.3
		c0,0.1,0,0.2,0,0.2L279.1,81.2 M280.6,76.6c0-0.1-0.1-0.3-0.3-0.3c-0.2,0-0.4,0.2-0.4,0.4c0,0.1,0.1,0.3,0.3,0.3
		C280.4,77,280.6,76.8,280.6,76.6z"/>
	<path class="st47" d="M284.5,76.9c0-0.8-0.1-1.9-0.6-3c-0.6-1.2-1.4-1.8-1.5-1.8c-0.1,0-0.1,0-0.1,0.1c0,0,0,0,0.2,0.2
		c1,1,1.5,2.5,1.5,4.5c0,1.7-0.4,3.4-1.6,4.6c-0.1,0.1-0.1,0.1-0.1,0.2c0,0.1,0,0.1,0.1,0.1c0.1,0,1-0.7,1.5-1.9
		C284.4,78.8,284.5,77.8,284.5,76.9"/>
</g>
</svg>
