<?xml version="1.0" encoding="utf-8" standalone="no"?>
<!DOCTYPE svg PUBLIC "-//W3C//DTD SVG 1.1//EN"
  "http://www.w3.org/Graphics/SVG/1.1/DTD/svg11.dtd">
<!-- Created with matplotlib (https://matplotlib.org/) -->
<svg height="136.405625pt" version="1.1" viewBox="0 0 227.97 136.405625" width="227.97pt" xmlns="http://www.w3.org/2000/svg" xmlns:xlink="http://www.w3.org/1999/xlink">
 <defs>
  <style type="text/css">
*{stroke-linecap:butt;stroke-linejoin:round;white-space:pre;}
  </style>
 </defs>
 <g id="figure_1">
  <g id="patch_1">
   <path d="M 0 136.405625 
L 227.97 136.405625 
L 227.97 0 
L 0 0 
z
" style="fill:#ffffff;"/>
  </g>
  <g id="axes_1">
   <g id="patch_2">
    <path d="M 39.42 88.74 
L 220.77 88.74 
L 220.77 7.2 
L 39.42 7.2 
z
" style="fill:#efefef;"/>
   </g>
   <g id="matplotlib.axis_1">
    <g id="xtick_1">
     <g id="line2d_1"/>
     <g id="text_1">
      <!-- acetate -->
      <defs>
       <path d="M 38.28125 6.453125 
Q 33.6875 2.484375 29.4375 0.65625 
Q 25.203125 -1.171875 20.359375 -1.171875 
Q 13.1875 -1.171875 8.78125 3.046875 
Q 4.390625 7.28125 4.390625 13.875 
Q 4.390625 18.21875 6.359375 21.5625 
Q 8.34375 24.90625 11.609375 26.921875 
Q 14.890625 28.953125 19.625 29.828125 
Q 22.609375 30.421875 30.9375 30.765625 
Q 39.265625 31.109375 42.875 32.515625 
Q 43.890625 36.140625 43.890625 38.53125 
Q 43.890625 41.609375 41.65625 43.359375 
Q 38.578125 45.796875 32.671875 45.796875 
Q 27.09375 45.796875 23.546875 43.328125 
Q 20.015625 40.875 18.40625 36.328125 
L 9.46875 37.109375 
Q 12.203125 44.828125 18.140625 48.921875 
Q 24.078125 53.03125 33.109375 53.03125 
Q 42.71875 53.03125 48.34375 48.4375 
Q 52.640625 45.015625 52.640625 39.546875 
Q 52.640625 35.40625 51.421875 29.9375 
L 48.53125 17.046875 
Q 47.171875 10.890625 47.171875 7.03125 
Q 47.171875 4.59375 48.25 0 
L 39.3125 0 
Q 38.578125 2.546875 38.28125 6.453125 
z
M 41.546875 26.265625 
Q 39.703125 25.53125 37.578125 25.140625 
Q 35.453125 24.75 30.46875 24.3125 
Q 22.75 23.640625 19.578125 22.578125 
Q 16.40625 21.53125 14.796875 19.234375 
Q 13.1875 16.9375 13.1875 14.15625 
Q 13.1875 10.453125 15.75 8.0625 
Q 18.3125 5.671875 23.046875 5.671875 
Q 27.4375 5.671875 31.484375 7.984375 
Q 35.546875 10.296875 37.890625 14.453125 
Q 40.234375 18.609375 41.546875 26.265625 
z
" id="Arial-ItalicMT-97"/>
       <path d="M 39.109375 18.890625 
L 47.953125 17.96875 
Q 44.625 8.25 38.5 3.53125 
Q 32.375 -1.171875 24.5625 -1.171875 
Q 16.109375 -1.171875 10.859375 4.296875 
Q 5.609375 9.765625 5.609375 19.578125 
Q 5.609375 28.078125 8.984375 36.28125 
Q 12.359375 44.484375 18.625 48.75 
Q 24.90625 53.03125 32.953125 53.03125 
Q 41.3125 53.03125 46.1875 48.3125 
Q 51.078125 43.609375 51.078125 35.84375 
L 42.390625 35.25 
Q 42.328125 40.1875 39.515625 42.96875 
Q 36.71875 45.75 32.125 45.75 
Q 26.8125 45.75 22.90625 42.375 
Q 19 39.015625 16.765625 32.15625 
Q 14.546875 25.296875 14.546875 18.953125 
Q 14.546875 12.3125 17.46875 8.984375 
Q 20.40625 5.671875 24.703125 5.671875 
Q 29 5.671875 32.921875 8.9375 
Q 36.859375 12.203125 39.109375 18.890625 
z
" id="Arial-ItalicMT-99"/>
       <path d="M 41.40625 17.625 
L 50 16.75 
Q 48.140625 10.359375 41.46875 4.59375 
Q 34.8125 -1.171875 25.59375 -1.171875 
Q 19.828125 -1.171875 15.015625 1.484375 
Q 10.203125 4.15625 7.6875 9.234375 
Q 5.171875 14.3125 5.171875 20.796875 
Q 5.171875 29.296875 9.09375 37.28125 
Q 13.03125 45.265625 19.28125 49.140625 
Q 25.53125 53.03125 32.8125 53.03125 
Q 42.09375 53.03125 47.625 47.265625 
Q 53.171875 41.5 53.171875 31.546875 
Q 53.171875 27.734375 52.484375 23.734375 
L 14.3125 23.734375 
Q 14.109375 22.21875 14.109375 21 
Q 14.109375 13.71875 17.453125 9.890625 
Q 20.796875 6.0625 25.640625 6.0625 
Q 30.171875 6.0625 34.5625 9.03125 
Q 38.96875 12.015625 41.40625 17.625 
z
M 15.71875 30.46875 
L 44.828125 30.46875 
Q 44.875 31.84375 44.875 32.421875 
Q 44.875 39.0625 41.546875 42.59375 
Q 38.234375 46.140625 33.015625 46.140625 
Q 27.34375 46.140625 22.671875 42.234375 
Q 18.015625 38.328125 15.71875 30.46875 
z
" id="Arial-ItalicMT-101"/>
       <path d="M 23.96875 7.171875 
L 22.515625 -0.046875 
Q 19.34375 -0.875 16.359375 -0.875 
Q 11.078125 -0.875 7.953125 1.703125 
Q 5.609375 3.65625 5.609375 7.03125 
Q 5.609375 8.734375 6.890625 14.890625 
L 13.1875 45.015625 
L 6.203125 45.015625 
L 7.625 51.859375 
L 14.59375 51.859375 
L 17.28125 64.59375 
L 27.390625 70.703125 
L 23.4375 51.859375 
L 32.125 51.859375 
L 30.671875 45.015625 
L 22.015625 45.015625 
L 16.015625 16.359375 
Q 14.890625 10.890625 14.890625 9.8125 
Q 14.890625 8.25 15.796875 7.421875 
Q 16.703125 6.59375 18.75 6.59375 
Q 21.6875 6.59375 23.96875 7.171875 
z
" id="Arial-ItalicMT-116"/>
      </defs>
      <g style="fill:#444147;" transform="translate(54.851719 127.54)rotate(-90)scale(0.1 -0.1)">
       <use xlink:href="#Arial-ItalicMT-97"/>
       <use x="55.615234" xlink:href="#Arial-ItalicMT-99"/>
       <use x="105.615234" xlink:href="#Arial-ItalicMT-101"/>
       <use x="161.230469" xlink:href="#Arial-ItalicMT-116"/>
       <use x="189.013672" xlink:href="#Arial-ItalicMT-97"/>
       <use x="244.628906" xlink:href="#Arial-ItalicMT-116"/>
       <use x="272.412109" xlink:href="#Arial-ItalicMT-101"/>
      </g>
      <!-- 37° C -->
      <defs>
       <path d="M 5.46875 18.75 
L 14.0625 19.828125 
Q 15.046875 12.3125 18.390625 9.0625 
Q 21.734375 5.8125 27.15625 5.8125 
Q 33.6875 5.8125 38.453125 10.5 
Q 43.21875 15.1875 43.21875 21.234375 
Q 43.21875 26.515625 39.640625 29.953125 
Q 36.078125 33.40625 30.078125 33.40625 
Q 29.390625 33.40625 27.25 33.203125 
L 28.765625 40.578125 
Q 30.03125 40.375 31.203125 40.375 
Q 38.765625 40.375 42.84375 44.0625 
Q 46.921875 47.75 46.921875 53.125 
Q 46.921875 58.0625 43.578125 61.421875 
Q 40.234375 64.796875 35.40625 64.796875 
Q 30.671875 64.796875 26.875 61.34375 
Q 23.09375 57.90625 22.015625 51.609375 
L 13.328125 53.375 
Q 15.484375 62.203125 21.578125 67.03125 
Q 27.6875 71.875 36.03125 71.875 
Q 44.828125 71.875 50.265625 66.546875 
Q 55.71875 61.234375 55.71875 53.46875 
Q 55.71875 47.796875 52.765625 43.578125 
Q 49.8125 39.359375 43.890625 36.578125 
Q 48.09375 34.078125 50.171875 30.5625 
Q 52.25 27.046875 52.25 22.515625 
Q 52.25 12.890625 45.046875 5.828125 
Q 37.84375 -1.21875 27.828125 -1.21875 
Q 18.109375 -1.21875 12.125 4.21875 
Q 6.15625 9.671875 5.46875 18.75 
z
" id="Arial-ItalicMT-51"/>
       <path d="M 14.5 0 
Q 15.671875 7.234375 19.484375 17.390625 
Q 24.03125 29.640625 31.390625 41.71875 
Q 38.765625 53.8125 47.796875 62.5 
L 12.109375 62.5 
L 13.8125 70.609375 
L 59.515625 70.609375 
L 57.859375 62.5 
Q 46.234375 52.296875 37.546875 36.1875 
Q 27.4375 17.578125 23.734375 0 
z
" id="Arial-ItalicMT-55"/>
       <path d="M 13.328125 59.28125 
Q 13.328125 64.890625 17.3125 68.84375 
Q 21.296875 72.796875 26.859375 72.796875 
Q 32.515625 72.796875 36.46875 68.84375 
Q 40.4375 64.890625 40.4375 59.28125 
Q 40.4375 53.65625 36.453125 49.671875 
Q 32.46875 45.703125 26.859375 45.703125 
Q 21.296875 45.703125 17.3125 49.65625 
Q 13.328125 53.609375 13.328125 59.28125 
z
M 18.65625 59.28125 
Q 18.65625 55.859375 21.0625 53.4375 
Q 23.484375 51.03125 26.90625 51.03125 
Q 30.28125 51.03125 32.6875 53.4375 
Q 35.109375 55.859375 35.109375 59.28125 
Q 35.109375 62.703125 32.6875 65.109375 
Q 30.28125 67.53125 26.90625 67.53125 
Q 23.484375 67.53125 21.0625 65.109375 
Q 18.65625 62.703125 18.65625 59.28125 
z
" id="Arial-ItalicMT-176"/>
       <path id="Arial-ItalicMT-32"/>
       <path d="M 60.296875 25.203125 
L 69.78125 23.875 
Q 65.28125 11.46875 56.6875 5.125 
Q 48.09375 -1.21875 37.40625 -1.21875 
Q 24.359375 -1.21875 16.71875 6.734375 
Q 9.078125 14.703125 9.078125 29.546875 
Q 9.078125 48.875 20.703125 61.53125 
Q 31.0625 72.796875 46.4375 72.796875 
Q 57.8125 72.796875 64.859375 66.6875 
Q 71.921875 60.59375 73.046875 50.296875 
L 64.109375 49.46875 
Q 62.703125 57.234375 58.28125 61.0625 
Q 53.859375 64.890625 46.875 64.890625 
Q 33.734375 64.890625 25.640625 53.21875 
Q 18.609375 43.171875 18.609375 29.34375 
Q 18.609375 18.3125 24.015625 12.5 
Q 29.4375 6.6875 38.140625 6.6875 
Q 45.5625 6.6875 51.5625 11.515625 
Q 57.5625 16.359375 60.296875 25.203125 
z
" id="Arial-ItalicMT-67"/>
      </defs>
      <g style="fill:#444147;" transform="translate(65.428594 123.700156)rotate(-90)scale(0.1 -0.1)">
       <use xlink:href="#Arial-ItalicMT-51"/>
       <use x="55.615234" xlink:href="#Arial-ItalicMT-55"/>
       <use x="111.230469" xlink:href="#Arial-ItalicMT-176"/>
       <use x="151.220703" xlink:href="#Arial-ItalicMT-32"/>
       <use x="179.003906" xlink:href="#Arial-ItalicMT-67"/>
      </g>
     </g>
    </g>
    <g id="xtick_2">
     <g id="line2d_2"/>
     <g id="text_2">
      <!-- glycerol -->
      <defs>
       <path d="M 2.828125 -4.6875 
L 11.765625 -5.515625 
Q 11.671875 -8.546875 12.5 -10.0625 
Q 13.328125 -11.578125 15.140625 -12.40625 
Q 17.53125 -13.484375 21.34375 -13.484375 
Q 29.34375 -13.484375 32.859375 -9.328125 
Q 35.15625 -6.546875 37.109375 2.78125 
L 37.984375 6.984375 
Q 31.109375 0 23.34375 0 
Q 15.484375 0 10.1875 5.78125 
Q 4.890625 11.578125 4.890625 22.171875 
Q 4.890625 30.90625 9.0625 38.234375 
Q 13.234375 45.5625 18.984375 49.296875 
Q 24.75 53.03125 30.859375 53.03125 
Q 41.0625 53.03125 46.578125 43.359375 
L 48.34375 51.859375 
L 56.453125 51.859375 
L 46 1.8125 
Q 44.28125 -6.453125 41.5 -11.0625 
Q 38.71875 -15.671875 33.765625 -18.203125 
Q 28.8125 -20.75 22.3125 -20.75 
Q 16.0625 -20.75 11.546875 -19.140625 
Q 7.03125 -17.53125 4.8125 -14.421875 
Q 2.59375 -11.328125 2.59375 -7.328125 
Q 2.59375 -6.109375 2.828125 -4.6875 
z
M 13.875 22.953125 
Q 13.875 17.625 14.890625 14.9375 
Q 16.359375 11.1875 19.0625 9.203125 
Q 21.78125 7.234375 25.09375 7.234375 
Q 29.4375 7.234375 33.734375 10.28125 
Q 38.03125 13.328125 40.6875 19.71875 
Q 43.359375 26.125 43.359375 31.9375 
Q 43.359375 38.328125 39.8125 42.109375 
Q 36.28125 45.90625 31.0625 45.90625 
Q 27.828125 45.90625 24.796875 44.171875 
Q 21.78125 42.4375 19.15625 38.890625 
Q 16.546875 35.359375 15.203125 30.421875 
Q 13.875 25.484375 13.875 22.953125 
z
" id="Arial-ItalicMT-103"/>
       <path d="M 2.640625 0 
L 17.578125 71.578125 
L 26.421875 71.578125 
L 11.46875 0 
z
" id="Arial-ItalicMT-108"/>
       <path d="M 0 -20.015625 
L 0.53125 -11.71875 
Q 3.265625 -12.5 5.859375 -12.5 
Q 8.546875 -12.5 10.203125 -11.28125 
Q 12.359375 -9.671875 14.890625 -5.21875 
L 17.71875 -0.140625 
L 9.078125 51.859375 
L 17.78125 51.859375 
L 21.6875 25.640625 
Q 22.859375 17.875 23.6875 10.109375 
L 46.875 51.859375 
L 56.109375 51.859375 
L 23.046875 -6.890625 
Q 18.265625 -15.484375 14.546875 -18.265625 
Q 10.84375 -21.046875 6 -21.046875 
Q 2.9375 -21.046875 0 -20.015625 
z
" id="Arial-ItalicMT-121"/>
       <path d="M 3.328125 0 
L 14.15625 51.859375 
L 21.96875 51.859375 
L 19.78125 41.265625 
Q 23.78125 47.265625 27.609375 50.140625 
Q 31.453125 53.03125 35.453125 53.03125 
Q 38.09375 53.03125 41.9375 51.125 
L 38.328125 42.921875 
Q 36.03125 44.578125 33.296875 44.578125 
Q 28.65625 44.578125 23.765625 39.40625 
Q 18.890625 34.234375 16.109375 20.796875 
L 11.71875 0 
z
" id="Arial-ItalicMT-114"/>
       <path d="M 4.890625 19.671875 
Q 4.890625 34.859375 13.8125 44.828125 
Q 21.1875 53.03125 33.15625 53.03125 
Q 42.53125 53.03125 48.265625 47.171875 
Q 54 41.3125 54 31.34375 
Q 54 22.40625 50.390625 14.71875 
Q 46.78125 7.03125 40.109375 2.921875 
Q 33.453125 -1.171875 26.078125 -1.171875 
Q 20.015625 -1.171875 15.0625 1.40625 
Q 10.109375 4 7.5 8.734375 
Q 4.890625 13.484375 4.890625 19.671875 
z
M 13.71875 20.5625 
Q 13.71875 13.234375 17.234375 9.453125 
Q 20.75 5.671875 26.171875 5.671875 
Q 29 5.671875 31.78125 6.8125 
Q 34.578125 7.953125 36.96875 10.296875 
Q 39.359375 12.640625 41.03125 15.640625 
Q 42.71875 18.65625 43.75 22.125 
Q 45.265625 26.953125 45.265625 31.390625 
Q 45.265625 38.421875 41.71875 42.296875 
Q 38.1875 46.1875 32.8125 46.1875 
Q 28.65625 46.1875 25.234375 44.203125 
Q 21.828125 42.234375 19.0625 38.421875 
Q 16.3125 34.625 15.015625 29.5625 
Q 13.71875 24.515625 13.71875 20.5625 
z
" id="Arial-ItalicMT-111"/>
      </defs>
      <g style="fill:#444147;" transform="translate(91.063125 129.19625)rotate(-90)scale(0.1 -0.1)">
       <use xlink:href="#Arial-ItalicMT-103"/>
       <use x="55.615234" xlink:href="#Arial-ItalicMT-108"/>
       <use x="77.832031" xlink:href="#Arial-ItalicMT-121"/>
       <use x="127.832031" xlink:href="#Arial-ItalicMT-99"/>
       <use x="177.832031" xlink:href="#Arial-ItalicMT-101"/>
       <use x="233.447266" xlink:href="#Arial-ItalicMT-114"/>
       <use x="266.748047" xlink:href="#Arial-ItalicMT-111"/>
       <use x="322.363281" xlink:href="#Arial-ItalicMT-108"/>
      </g>
      <!-- 37 °C -->
      <g style="fill:#444147;" transform="translate(101.757188 124.528281)rotate(-90)scale(0.1 -0.1)">
       <use xlink:href="#Arial-ItalicMT-51"/>
       <use x="55.615234" xlink:href="#Arial-ItalicMT-55"/>
       <use x="111.230469" xlink:href="#Arial-ItalicMT-32"/>
       <use x="139.013672" xlink:href="#Arial-ItalicMT-176"/>
       <use x="179.003906" xlink:href="#Arial-ItalicMT-67"/>
      </g>
     </g>
    </g>
    <g id="xtick_3">
     <g id="line2d_3"/>
     <g id="text_3">
      <!-- glucose -->
      <defs>
       <path d="M 38.71875 9.375 
Q 29.390625 -1.171875 19.625 -1.171875 
Q 13.625 -1.171875 9.9375 2.265625 
Q 6.25 5.71875 6.25 10.6875 
Q 6.25 13.96875 7.90625 21.921875 
L 14.15625 51.859375 
L 23 51.859375 
L 16.0625 18.703125 
Q 15.1875 14.546875 15.1875 12.25 
Q 15.1875 9.328125 16.96875 7.6875 
Q 18.75 6.0625 22.21875 6.0625 
Q 25.921875 6.0625 29.46875 7.859375 
Q 33.015625 9.671875 35.578125 12.75 
Q 38.140625 15.828125 39.75 20.015625 
Q 40.828125 22.703125 42.234375 29.4375 
L 46.921875 51.859375 
L 55.765625 51.859375 
L 44.921875 0 
L 36.765625 0 
z
" id="Arial-ItalicMT-117"/>
       <path d="M 4.15625 17.71875 
L 12.984375 18.265625 
Q 12.984375 14.453125 14.15625 11.765625 
Q 15.328125 9.078125 18.46875 7.375 
Q 21.625 5.671875 25.828125 5.671875 
Q 31.6875 5.671875 34.609375 8.015625 
Q 37.546875 10.359375 37.546875 13.53125 
Q 37.546875 15.828125 35.796875 17.875 
Q 33.984375 19.921875 26.96875 22.921875 
Q 19.96875 25.921875 18.015625 27.15625 
Q 14.75 29.15625 13.078125 31.859375 
Q 11.421875 34.578125 11.421875 38.09375 
Q 11.421875 44.234375 16.296875 48.625 
Q 21.1875 53.03125 29.984375 53.03125 
Q 39.75 53.03125 44.84375 48.515625 
Q 49.953125 44 50.140625 36.625 
L 41.5 36.03125 
Q 41.3125 40.71875 38.1875 43.453125 
Q 35.0625 46.1875 29.34375 46.1875 
Q 24.75 46.1875 22.203125 44.09375 
Q 19.671875 42 19.671875 39.546875 
Q 19.671875 37.109375 21.875 35.25 
Q 23.34375 33.984375 29.4375 31.34375 
Q 39.59375 26.953125 42.234375 24.421875 
Q 46.4375 20.359375 46.4375 14.546875 
Q 46.4375 10.6875 44.0625 6.96875 
Q 41.703125 3.265625 36.84375 1.046875 
Q 31.984375 -1.171875 25.390625 -1.171875 
Q 16.40625 -1.171875 10.109375 3.265625 
Q 3.8125 7.71875 4.15625 17.71875 
z
" id="Arial-ItalicMT-115"/>
      </defs>
      <g style="fill:#444147;" transform="translate(127.347969 129.205625)rotate(-90)scale(0.1 -0.1)">
       <use xlink:href="#Arial-ItalicMT-103"/>
       <use x="55.615234" xlink:href="#Arial-ItalicMT-108"/>
       <use x="77.832031" xlink:href="#Arial-ItalicMT-117"/>
       <use x="133.447266" xlink:href="#Arial-ItalicMT-99"/>
       <use x="183.447266" xlink:href="#Arial-ItalicMT-111"/>
       <use x="239.0625" xlink:href="#Arial-ItalicMT-115"/>
       <use x="289.0625" xlink:href="#Arial-ItalicMT-101"/>
      </g>
      <!-- 32 °C -->
      <defs>
       <path d="M 5.859375 0 
Q 7.234375 6.390625 9.640625 10.71875 
Q 12.0625 15.046875 16.0625 18.921875 
Q 20.0625 22.796875 31.5 31.9375 
Q 38.421875 37.453125 40.96875 40.09375 
Q 44.625 43.890625 46.296875 47.5625 
Q 47.40625 50.046875 47.40625 52.984375 
Q 47.40625 57.90625 43.921875 61.34375 
Q 40.4375 64.796875 35.359375 64.796875 
Q 30.328125 64.796875 26.5625 61.296875 
Q 22.796875 57.8125 21.1875 50.09375 
L 12.546875 51.375 
Q 13.8125 60.890625 19.9375 66.375 
Q 26.078125 71.875 35.203125 71.875 
Q 41.3125 71.875 46.265625 69.328125 
Q 51.21875 66.796875 53.703125 62.203125 
Q 56.203125 57.625 56.203125 52.734375 
Q 56.203125 45.609375 51.125 39.015625 
Q 48 34.90625 32.765625 22.859375 
Q 26.21875 17.671875 23.015625 14.34375 
Q 19.828125 11.03125 18.21875 8.109375 
L 50.25 8.109375 
L 48.53125 0 
z
" id="Arial-ItalicMT-50"/>
      </defs>
      <g style="fill:#444147;" transform="translate(138.012344 124.532969)rotate(-90)scale(0.1 -0.1)">
       <use xlink:href="#Arial-ItalicMT-51"/>
       <use x="55.615234" xlink:href="#Arial-ItalicMT-50"/>
       <use x="111.230469" xlink:href="#Arial-ItalicMT-32"/>
       <use x="139.013672" xlink:href="#Arial-ItalicMT-176"/>
       <use x="179.003906" xlink:href="#Arial-ItalicMT-67"/>
      </g>
     </g>
    </g>
    <g id="xtick_4">
     <g id="line2d_4"/>
     <g id="text_4">
      <!-- glucose -->
      <g style="fill:#444147;" transform="translate(163.617969 129.205625)rotate(-90)scale(0.1 -0.1)">
       <use xlink:href="#Arial-ItalicMT-103"/>
       <use x="55.615234" xlink:href="#Arial-ItalicMT-108"/>
       <use x="77.832031" xlink:href="#Arial-ItalicMT-117"/>
       <use x="133.447266" xlink:href="#Arial-ItalicMT-99"/>
       <use x="183.447266" xlink:href="#Arial-ItalicMT-111"/>
       <use x="239.0625" xlink:href="#Arial-ItalicMT-115"/>
       <use x="289.0625" xlink:href="#Arial-ItalicMT-101"/>
      </g>
      <!-- 42° C -->
      <defs>
       <path d="M 29.890625 0 
L 33.734375 18.265625 
L 4.546875 18.265625 
L 6.390625 27 
L 46.484375 71.578125 
L 53.71875 71.578125 
L 44.1875 26.078125 
L 54.25 26.078125 
L 52.640625 18.265625 
L 42.578125 18.265625 
L 38.71875 0 
z
M 35.359375 26.078125 
L 41.609375 55.953125 
L 14.9375 26.078125 
z
" id="Arial-ItalicMT-52"/>
      </defs>
      <g style="fill:#444147;" transform="translate(174.282344 124.532969)rotate(-90)scale(0.1 -0.1)">
       <use xlink:href="#Arial-ItalicMT-52"/>
       <use x="55.615234" xlink:href="#Arial-ItalicMT-50"/>
       <use x="111.230469" xlink:href="#Arial-ItalicMT-176"/>
       <use x="151.220703" xlink:href="#Arial-ItalicMT-32"/>
       <use x="179.003906" xlink:href="#Arial-ItalicMT-67"/>
      </g>
     </g>
    </g>
    <g id="xtick_5">
     <g id="line2d_5"/>
     <g id="text_5">
      <!-- glucose -->
      <g style="fill:#444147;" transform="translate(199.887969 129.205625)rotate(-90)scale(0.1 -0.1)">
       <use xlink:href="#Arial-ItalicMT-103"/>
       <use x="55.615234" xlink:href="#Arial-ItalicMT-108"/>
       <use x="77.832031" xlink:href="#Arial-ItalicMT-117"/>
       <use x="133.447266" xlink:href="#Arial-ItalicMT-99"/>
       <use x="183.447266" xlink:href="#Arial-ItalicMT-111"/>
       <use x="239.0625" xlink:href="#Arial-ItalicMT-115"/>
       <use x="289.0625" xlink:href="#Arial-ItalicMT-101"/>
      </g>
      <!--  37°C -->
      <g style="fill:#444147;" transform="translate(210.552344 124.532969)rotate(-90)scale(0.1 -0.1)">
       <use xlink:href="#Arial-ItalicMT-32"/>
       <use x="27.783203" xlink:href="#Arial-ItalicMT-51"/>
       <use x="83.398438" xlink:href="#Arial-ItalicMT-55"/>
       <use x="139.013672" xlink:href="#Arial-ItalicMT-176"/>
       <use x="179.003906" xlink:href="#Arial-ItalicMT-67"/>
      </g>
     </g>
    </g>
   </g>
   <g id="matplotlib.axis_2">
    <g id="ytick_1">
     <g id="line2d_6">
      <path clip-path="url(#p8a30043cb3)" d="M 39.42 81.327273 
L 220.77 81.327273 
" style="fill:none;stroke:#ffffff;stroke-linecap:square;stroke-width:0.75;"/>
     </g>
     <g id="line2d_7"/>
     <g id="text_6">
      <!-- 0.2 -->
      <defs>
       <path d="M 4.15625 35.296875 
Q 4.15625 48 6.765625 55.734375 
Q 9.375 63.484375 14.515625 67.671875 
Q 19.671875 71.875 27.484375 71.875 
Q 33.25 71.875 37.59375 69.546875 
Q 41.9375 67.234375 44.765625 62.859375 
Q 47.609375 58.5 49.21875 52.21875 
Q 50.828125 45.953125 50.828125 35.296875 
Q 50.828125 22.703125 48.234375 14.96875 
Q 45.65625 7.234375 40.5 3 
Q 35.359375 -1.21875 27.484375 -1.21875 
Q 17.140625 -1.21875 11.234375 6.203125 
Q 4.15625 15.140625 4.15625 35.296875 
z
M 13.1875 35.296875 
Q 13.1875 17.671875 17.3125 11.828125 
Q 21.4375 6 27.484375 6 
Q 33.546875 6 37.671875 11.859375 
Q 41.796875 17.71875 41.796875 35.296875 
Q 41.796875 52.984375 37.671875 58.78125 
Q 33.546875 64.59375 27.390625 64.59375 
Q 21.34375 64.59375 17.71875 59.46875 
Q 13.1875 52.9375 13.1875 35.296875 
z
" id="ArialMT-48"/>
       <path d="M 9.078125 0 
L 9.078125 10.015625 
L 19.09375 10.015625 
L 19.09375 0 
z
" id="ArialMT-46"/>
       <path d="M 50.34375 8.453125 
L 50.34375 0 
L 3.03125 0 
Q 2.9375 3.171875 4.046875 6.109375 
Q 5.859375 10.9375 9.828125 15.625 
Q 13.8125 20.3125 21.34375 26.46875 
Q 33.015625 36.03125 37.109375 41.625 
Q 41.21875 47.21875 41.21875 52.203125 
Q 41.21875 57.421875 37.46875 61 
Q 33.734375 64.59375 27.734375 64.59375 
Q 21.390625 64.59375 17.578125 60.78125 
Q 13.765625 56.984375 13.71875 50.25 
L 4.6875 51.171875 
Q 5.609375 61.28125 11.65625 66.578125 
Q 17.71875 71.875 27.9375 71.875 
Q 38.234375 71.875 44.234375 66.15625 
Q 50.25 60.453125 50.25 52 
Q 50.25 47.703125 48.484375 43.546875 
Q 46.734375 39.40625 42.65625 34.8125 
Q 38.578125 30.21875 29.109375 22.21875 
Q 21.1875 15.578125 18.9375 13.203125 
Q 16.703125 10.84375 15.234375 8.453125 
z
" id="ArialMT-50"/>
      </defs>
      <g style="fill:#444147;" transform="translate(22.3 84.190398)scale(0.08 -0.08)">
       <use xlink:href="#ArialMT-48"/>
       <use x="55.615234" xlink:href="#ArialMT-46"/>
       <use x="83.398438" xlink:href="#ArialMT-50"/>
      </g>
     </g>
    </g>
    <g id="ytick_2">
     <g id="line2d_8">
      <path clip-path="url(#p8a30043cb3)" d="M 39.42 51.676364 
L 220.77 51.676364 
" style="fill:none;stroke:#ffffff;stroke-linecap:square;stroke-width:0.75;"/>
     </g>
     <g id="line2d_9"/>
     <g id="text_7">
      <!-- 0.4 -->
      <defs>
       <path d="M 32.328125 0 
L 32.328125 17.140625 
L 1.265625 17.140625 
L 1.265625 25.203125 
L 33.9375 71.578125 
L 41.109375 71.578125 
L 41.109375 25.203125 
L 50.78125 25.203125 
L 50.78125 17.140625 
L 41.109375 17.140625 
L 41.109375 0 
z
M 32.328125 25.203125 
L 32.328125 57.46875 
L 9.90625 25.203125 
z
" id="ArialMT-52"/>
      </defs>
      <g style="fill:#444147;" transform="translate(22.3 54.539489)scale(0.08 -0.08)">
       <use xlink:href="#ArialMT-48"/>
       <use x="55.615234" xlink:href="#ArialMT-46"/>
       <use x="83.398438" xlink:href="#ArialMT-52"/>
      </g>
     </g>
    </g>
    <g id="ytick_3">
     <g id="line2d_10">
      <path clip-path="url(#p8a30043cb3)" d="M 39.42 22.025455 
L 220.77 22.025455 
" style="fill:none;stroke:#ffffff;stroke-linecap:square;stroke-width:0.75;"/>
     </g>
     <g id="line2d_11"/>
     <g id="text_8">
      <!-- 0.6 -->
      <defs>
       <path d="M 49.75 54.046875 
L 41.015625 53.375 
Q 39.84375 58.546875 37.703125 60.890625 
Q 34.125 64.65625 28.90625 64.65625 
Q 24.703125 64.65625 21.53125 62.3125 
Q 17.390625 59.28125 14.984375 53.46875 
Q 12.59375 47.65625 12.5 36.921875 
Q 15.671875 41.75 20.265625 44.09375 
Q 24.859375 46.4375 29.890625 46.4375 
Q 38.671875 46.4375 44.84375 39.96875 
Q 51.03125 33.5 51.03125 23.25 
Q 51.03125 16.5 48.125 10.71875 
Q 45.21875 4.9375 40.140625 1.859375 
Q 35.0625 -1.21875 28.609375 -1.21875 
Q 17.625 -1.21875 10.6875 6.859375 
Q 3.765625 14.9375 3.765625 33.5 
Q 3.765625 54.25 11.421875 63.671875 
Q 18.109375 71.875 29.4375 71.875 
Q 37.890625 71.875 43.28125 67.140625 
Q 48.6875 62.40625 49.75 54.046875 
z
M 13.875 23.1875 
Q 13.875 18.65625 15.796875 14.5 
Q 17.71875 10.359375 21.1875 8.171875 
Q 24.65625 6 28.46875 6 
Q 34.03125 6 38.03125 10.484375 
Q 42.046875 14.984375 42.046875 22.703125 
Q 42.046875 30.125 38.078125 34.390625 
Q 34.125 38.671875 28.125 38.671875 
Q 22.171875 38.671875 18.015625 34.390625 
Q 13.875 30.125 13.875 23.1875 
z
" id="ArialMT-54"/>
      </defs>
      <g style="fill:#444147;" transform="translate(22.3 24.88858)scale(0.08 -0.08)">
       <use xlink:href="#ArialMT-48"/>
       <use x="55.615234" xlink:href="#ArialMT-46"/>
       <use x="83.398438" xlink:href="#ArialMT-54"/>
      </g>
     </g>
    </g>
    <g id="text_9">
     <!-- growth rate [hr$^{-1}$] -->
     <defs>
      <path d="M 13.1875 0 
L 7.765625 51.859375 
L 16.265625 51.859375 
L 18.609375 28.5625 
L 19.53125 15.484375 
Q 19.625 14.015625 19.828125 9.578125 
Q 21.296875 14.546875 22.3125 17.203125 
Q 23.34375 19.875 25.59375 24.8125 
L 37.9375 51.859375 
L 47.5625 51.859375 
L 49.265625 25.921875 
Q 49.65625 20.015625 49.75 10.15625 
Q 52.203125 16.703125 57.71875 28.328125 
L 68.84375 51.859375 
L 77.6875 51.859375 
L 52.34375 0 
L 43.171875 0 
L 41.21875 30.421875 
Q 41.015625 33.25 40.921875 41.453125 
Q 38.921875 36.234375 36.1875 30.171875 
L 22.46875 0 
z
" id="Arial-ItalicMT-119"/>
      <path d="M 3.328125 0 
L 18.265625 71.578125 
L 27.09375 71.578125 
L 21.390625 44.09375 
Q 26.3125 48.875 30.5625 50.953125 
Q 34.8125 53.03125 39.3125 53.03125 
Q 45.75 53.03125 49.3125 49.625 
Q 52.875 46.234375 52.875 40.671875 
Q 52.875 37.9375 51.3125 30.609375 
L 44.921875 0 
L 36.078125 0 
L 42.671875 31.390625 
Q 44.09375 38.234375 44.09375 39.984375 
Q 44.09375 42.53125 42.328125 44.140625 
Q 40.578125 45.75 37.25 45.75 
Q 32.46875 45.75 28.125 43.234375 
Q 23.78125 40.71875 21.3125 36.34375 
Q 18.84375 31.984375 16.796875 22.265625 
L 12.15625 0 
z
" id="Arial-ItalicMT-104"/>
      <path d="M 0.640625 -19.578125 
L 19.4375 71.578125 
L 39.109375 71.578125 
L 37.703125 64.796875 
L 27 64.796875 
L 10.796875 -12.796875 
L 21.578125 -12.796875 
L 20.171875 -19.578125 
z
" id="Arial-ItalicMT-91"/>
      <path d="M 10.59375 35.5 
L 73.1875 35.5 
L 73.1875 27.203125 
L 10.59375 27.203125 
z
" id="DejaVuSans-8722"/>
      <path d="M 12.40625 8.296875 
L 28.515625 8.296875 
L 28.515625 63.921875 
L 10.984375 60.40625 
L 10.984375 69.390625 
L 28.421875 72.90625 
L 38.28125 72.90625 
L 38.28125 8.296875 
L 54.390625 8.296875 
L 54.390625 0 
L 12.40625 0 
z
" id="DejaVuSans-49"/>
      <path d="M 13.671875 -19.578125 
L -5.859375 -19.578125 
L -4.4375 -12.796875 
L 6.34375 -12.796875 
L 22.5625 64.796875 
L 11.8125 64.796875 
L 13.234375 71.578125 
L 32.90625 71.578125 
z
" id="Arial-ItalicMT-93"/>
     </defs>
     <g style="fill:#444147;" transform="translate(16.2 86.97)rotate(-90)scale(0.1 -0.1)">
      <use transform="translate(0 0.684375)" xlink:href="#Arial-ItalicMT-103"/>
      <use transform="translate(55.615234 0.684375)" xlink:href="#Arial-ItalicMT-114"/>
      <use transform="translate(88.916016 0.684375)" xlink:href="#Arial-ItalicMT-111"/>
      <use transform="translate(144.53125 0.684375)" xlink:href="#Arial-ItalicMT-119"/>
      <use transform="translate(216.748047 0.684375)" xlink:href="#Arial-ItalicMT-116"/>
      <use transform="translate(244.53125 0.684375)" xlink:href="#Arial-ItalicMT-104"/>
      <use transform="translate(300.146484 0.684375)" xlink:href="#Arial-ItalicMT-32"/>
      <use transform="translate(327.929688 0.684375)" xlink:href="#Arial-ItalicMT-114"/>
      <use transform="translate(361.230469 0.684375)" xlink:href="#Arial-ItalicMT-97"/>
      <use transform="translate(416.845703 0.684375)" xlink:href="#Arial-ItalicMT-116"/>
      <use transform="translate(444.628906 0.684375)" xlink:href="#Arial-ItalicMT-101"/>
      <use transform="translate(500.244141 0.684375)" xlink:href="#Arial-ItalicMT-32"/>
      <use transform="translate(528.027344 0.684375)" xlink:href="#Arial-ItalicMT-91"/>
      <use transform="translate(555.810547 0.684375)" xlink:href="#Arial-ItalicMT-104"/>
      <use transform="translate(611.425781 0.684375)" xlink:href="#Arial-ItalicMT-114"/>
      <use transform="translate(645.683594 38.965625)scale(0.7)" xlink:href="#DejaVuSans-8722"/>
      <use transform="translate(704.335938 38.965625)scale(0.7)" xlink:href="#DejaVuSans-49"/>
      <use transform="translate(751.606445 0.684375)" xlink:href="#Arial-ItalicMT-93"/>
     </g>
    </g>
   </g>
   <g id="LineCollection_1">
    <path clip-path="url(#p8a30043cb3)" d="M 54.698292 81.720116 
L 54.698292 81.110269 
" style="fill:none;stroke:#764f2a;stroke-opacity:0.75;stroke-width:0.75;"/>
    <path clip-path="url(#p8a30043cb3)" d="M 60.405468 80.882914 
L 60.405468 80.435674 
" style="fill:none;stroke:#764f2a;stroke-opacity:0.75;stroke-width:0.75;"/>
    <path clip-path="url(#p8a30043cb3)" d="M 56.205793 82.203837 
L 56.205793 81.676865 
" style="fill:none;stroke:#764f2a;stroke-opacity:0.75;stroke-width:0.75;"/>
    <path clip-path="url(#p8a30043cb3)" d="M 61.223701 79.831878 
L 61.223701 79.327263 
" style="fill:none;stroke:#764f2a;stroke-opacity:0.75;stroke-width:0.75;"/>
    <path clip-path="url(#p8a30043cb3)" d="M 58.57696 82.786653 
L 58.57696 81.523805 
" style="fill:none;stroke:#764f2a;stroke-opacity:0.75;stroke-width:0.75;"/>
   </g>
   <g id="LineCollection_2">
    <path clip-path="url(#p8a30043cb3)" d="M 92.05441 55.639572 
L 92.05441 54.782595 
" style="fill:none;stroke:#688a2f;stroke-opacity:0.75;stroke-width:0.75;"/>
    <path clip-path="url(#p8a30043cb3)" d="M 94.75291 52.397097 
L 94.75291 51.748335 
" style="fill:none;stroke:#688a2f;stroke-opacity:0.75;stroke-width:0.75;"/>
    <path clip-path="url(#p8a30043cb3)" d="M 94.112578 54.794628 
L 94.112578 52.876484 
" style="fill:none;stroke:#688a2f;stroke-opacity:0.75;stroke-width:0.75;"/>
    <path clip-path="url(#p8a30043cb3)" d="M 98.59664 52.673215 
L 98.59664 52.058806 
" style="fill:none;stroke:#688a2f;stroke-opacity:0.75;stroke-width:0.75;"/>
    <path clip-path="url(#p8a30043cb3)" d="M 94.104522 52.794516 
L 94.104522 52.2409 
" style="fill:none;stroke:#688a2f;stroke-opacity:0.75;stroke-width:0.75;"/>
   </g>
   <g id="LineCollection_3">
    <path clip-path="url(#p8a30043cb3)" d="M 126.364749 45.110531 
L 126.364749 43.733543 
" style="fill:none;stroke:#7292c7;stroke-opacity:0.75;stroke-width:0.75;"/>
    <path clip-path="url(#p8a30043cb3)" d="M 125.958691 46.330492 
L 125.958691 45.673405 
" style="fill:none;stroke:#7292c7;stroke-opacity:0.75;stroke-width:0.75;"/>
    <path clip-path="url(#p8a30043cb3)" d="M 132.739671 43.5397 
L 132.739671 42.385764 
" style="fill:none;stroke:#7292c7;stroke-opacity:0.75;stroke-width:0.75;"/>
   </g>
   <g id="LineCollection_4">
    <path clip-path="url(#p8a30043cb3)" d="M 163.485085 39.017943 
L 163.485085 38.195692 
" style="fill:none;stroke:#c76a6a;stroke-opacity:0.75;stroke-width:0.75;"/>
    <path clip-path="url(#p8a30043cb3)" d="M 167.566617 38.896563 
L 167.566617 38.173636 
" style="fill:none;stroke:#c76a6a;stroke-opacity:0.75;stroke-width:0.75;"/>
    <path clip-path="url(#p8a30043cb3)" d="M 171.841575 45.554013 
L 171.841575 44.550188 
" style="fill:none;stroke:#c76a6a;stroke-opacity:0.75;stroke-width:0.75;"/>
   </g>
   <g id="LineCollection_5">
    <path clip-path="url(#p8a30043cb3)" d="M 197.481508 18.568396 
L 197.481508 17.4336 
" style="fill:none;stroke:#7e59a2;stroke-opacity:0.75;stroke-width:0.75;"/>
    <path clip-path="url(#p8a30043cb3)" d="M 199.799351 17.292664 
L 199.799351 15.881576 
" style="fill:none;stroke:#7e59a2;stroke-opacity:0.75;stroke-width:0.75;"/>
    <path clip-path="url(#p8a30043cb3)" d="M 200.978171 17.138579 
L 200.978171 15.538012 
" style="fill:none;stroke:#7e59a2;stroke-opacity:0.75;stroke-width:0.75;"/>
    <path clip-path="url(#p8a30043cb3)" d="M 203.968662 16.413497 
L 203.968662 14.852052 
" style="fill:none;stroke:#7e59a2;stroke-opacity:0.75;stroke-width:0.75;"/>
    <path clip-path="url(#p8a30043cb3)" d="M 197.134809 23.370579 
L 197.134809 17.462837 
" style="fill:none;stroke:#7e59a2;stroke-opacity:0.75;stroke-width:0.75;"/>
    <path clip-path="url(#p8a30043cb3)" d="M 203.38099 24.553873 
L 203.38099 20.154738 
" style="fill:none;stroke:#7e59a2;stroke-opacity:0.75;stroke-width:0.75;"/>
    <path clip-path="url(#p8a30043cb3)" d="M 204.042124 12.184127 
L 204.042124 8.722239 
" style="fill:none;stroke:#7e59a2;stroke-opacity:0.75;stroke-width:0.75;"/>
    <path clip-path="url(#p8a30043cb3)" d="M 197.802853 20.458425 
L 197.802853 17.443819 
" style="fill:none;stroke:#7e59a2;stroke-opacity:0.75;stroke-width:0.75;"/>
    <path clip-path="url(#p8a30043cb3)" d="M 207.614439 16.551628 
L 207.614439 15.617437 
" style="fill:none;stroke:#7e59a2;stroke-opacity:0.75;stroke-width:0.75;"/>
   </g>
   <g id="line2d_12">
    <defs>
     <path d="M 1.5 0 
L -1.5 -0 
" id="m16288f6bc3" style="stroke:#764f2a;stroke-opacity:0.75;stroke-width:0.75;"/>
    </defs>
    <g clip-path="url(#p8a30043cb3)">
     <use style="fill:#764f2a;fill-opacity:0.75;stroke:#764f2a;stroke-opacity:0.75;stroke-width:0.75;" x="54.698292" xlink:href="#m16288f6bc3" y="81.720116"/>
     <use style="fill:#764f2a;fill-opacity:0.75;stroke:#764f2a;stroke-opacity:0.75;stroke-width:0.75;" x="60.405468" xlink:href="#m16288f6bc3" y="80.882914"/>
     <use style="fill:#764f2a;fill-opacity:0.75;stroke:#764f2a;stroke-opacity:0.75;stroke-width:0.75;" x="56.205793" xlink:href="#m16288f6bc3" y="82.203837"/>
     <use style="fill:#764f2a;fill-opacity:0.75;stroke:#764f2a;stroke-opacity:0.75;stroke-width:0.75;" x="61.223701" xlink:href="#m16288f6bc3" y="79.831878"/>
     <use style="fill:#764f2a;fill-opacity:0.75;stroke:#764f2a;stroke-opacity:0.75;stroke-width:0.75;" x="58.57696" xlink:href="#m16288f6bc3" y="82.786653"/>
    </g>
   </g>
   <g id="line2d_13">
    <g clip-path="url(#p8a30043cb3)">
     <use style="fill:#764f2a;fill-opacity:0.75;stroke:#764f2a;stroke-opacity:0.75;stroke-width:0.75;" x="54.698292" xlink:href="#m16288f6bc3" y="81.110269"/>
     <use style="fill:#764f2a;fill-opacity:0.75;stroke:#764f2a;stroke-opacity:0.75;stroke-width:0.75;" x="60.405468" xlink:href="#m16288f6bc3" y="80.435674"/>
     <use style="fill:#764f2a;fill-opacity:0.75;stroke:#764f2a;stroke-opacity:0.75;stroke-width:0.75;" x="56.205793" xlink:href="#m16288f6bc3" y="81.676865"/>
     <use style="fill:#764f2a;fill-opacity:0.75;stroke:#764f2a;stroke-opacity:0.75;stroke-width:0.75;" x="61.223701" xlink:href="#m16288f6bc3" y="79.327263"/>
     <use style="fill:#764f2a;fill-opacity:0.75;stroke:#764f2a;stroke-opacity:0.75;stroke-width:0.75;" x="58.57696" xlink:href="#m16288f6bc3" y="81.523805"/>
    </g>
   </g>
   <g id="line2d_14">
    <defs>
     <path d="M 1.5 0 
L -1.5 -0 
" id="mbb792e75b1" style="stroke:#688a2f;stroke-opacity:0.75;stroke-width:0.75;"/>
    </defs>
    <g clip-path="url(#p8a30043cb3)">
     <use style="fill:#688a2f;fill-opacity:0.75;stroke:#688a2f;stroke-opacity:0.75;stroke-width:0.75;" x="92.05441" xlink:href="#mbb792e75b1" y="55.639572"/>
     <use style="fill:#688a2f;fill-opacity:0.75;stroke:#688a2f;stroke-opacity:0.75;stroke-width:0.75;" x="94.75291" xlink:href="#mbb792e75b1" y="52.397097"/>
     <use style="fill:#688a2f;fill-opacity:0.75;stroke:#688a2f;stroke-opacity:0.75;stroke-width:0.75;" x="94.112578" xlink:href="#mbb792e75b1" y="54.794628"/>
     <use style="fill:#688a2f;fill-opacity:0.75;stroke:#688a2f;stroke-opacity:0.75;stroke-width:0.75;" x="98.59664" xlink:href="#mbb792e75b1" y="52.673215"/>
     <use style="fill:#688a2f;fill-opacity:0.75;stroke:#688a2f;stroke-opacity:0.75;stroke-width:0.75;" x="94.104522" xlink:href="#mbb792e75b1" y="52.794516"/>
    </g>
   </g>
   <g id="line2d_15">
    <g clip-path="url(#p8a30043cb3)">
     <use style="fill:#688a2f;fill-opacity:0.75;stroke:#688a2f;stroke-opacity:0.75;stroke-width:0.75;" x="92.05441" xlink:href="#mbb792e75b1" y="54.782595"/>
     <use style="fill:#688a2f;fill-opacity:0.75;stroke:#688a2f;stroke-opacity:0.75;stroke-width:0.75;" x="94.75291" xlink:href="#mbb792e75b1" y="51.748335"/>
     <use style="fill:#688a2f;fill-opacity:0.75;stroke:#688a2f;stroke-opacity:0.75;stroke-width:0.75;" x="94.112578" xlink:href="#mbb792e75b1" y="52.876484"/>
     <use style="fill:#688a2f;fill-opacity:0.75;stroke:#688a2f;stroke-opacity:0.75;stroke-width:0.75;" x="98.59664" xlink:href="#mbb792e75b1" y="52.058806"/>
     <use style="fill:#688a2f;fill-opacity:0.75;stroke:#688a2f;stroke-opacity:0.75;stroke-width:0.75;" x="94.104522" xlink:href="#mbb792e75b1" y="52.2409"/>
    </g>
   </g>
   <g id="line2d_16">
    <defs>
     <path d="M 1.5 0 
L -1.5 -0 
" id="m248343d8ec" style="stroke:#7292c7;stroke-opacity:0.75;stroke-width:0.75;"/>
    </defs>
    <g clip-path="url(#p8a30043cb3)">
     <use style="fill:#7292c7;fill-opacity:0.75;stroke:#7292c7;stroke-opacity:0.75;stroke-width:0.75;" x="126.364749" xlink:href="#m248343d8ec" y="45.110531"/>
     <use style="fill:#7292c7;fill-opacity:0.75;stroke:#7292c7;stroke-opacity:0.75;stroke-width:0.75;" x="125.958691" xlink:href="#m248343d8ec" y="46.330492"/>
     <use style="fill:#7292c7;fill-opacity:0.75;stroke:#7292c7;stroke-opacity:0.75;stroke-width:0.75;" x="132.739671" xlink:href="#m248343d8ec" y="43.5397"/>
    </g>
   </g>
   <g id="line2d_17">
    <g clip-path="url(#p8a30043cb3)">
     <use style="fill:#7292c7;fill-opacity:0.75;stroke:#7292c7;stroke-opacity:0.75;stroke-width:0.75;" x="126.364749" xlink:href="#m248343d8ec" y="43.733543"/>
     <use style="fill:#7292c7;fill-opacity:0.75;stroke:#7292c7;stroke-opacity:0.75;stroke-width:0.75;" x="125.958691" xlink:href="#m248343d8ec" y="45.673405"/>
     <use style="fill:#7292c7;fill-opacity:0.75;stroke:#7292c7;stroke-opacity:0.75;stroke-width:0.75;" x="132.739671" xlink:href="#m248343d8ec" y="42.385764"/>
    </g>
   </g>
   <g id="line2d_18">
    <defs>
     <path d="M 1.5 0 
L -1.5 -0 
" id="m17e2a8cb6d" style="stroke:#c76a6a;stroke-opacity:0.75;stroke-width:0.75;"/>
    </defs>
    <g clip-path="url(#p8a30043cb3)">
     <use style="fill:#c76a6a;fill-opacity:0.75;stroke:#c76a6a;stroke-opacity:0.75;stroke-width:0.75;" x="163.485085" xlink:href="#m17e2a8cb6d" y="39.017943"/>
     <use style="fill:#c76a6a;fill-opacity:0.75;stroke:#c76a6a;stroke-opacity:0.75;stroke-width:0.75;" x="167.566617" xlink:href="#m17e2a8cb6d" y="38.896563"/>
     <use style="fill:#c76a6a;fill-opacity:0.75;stroke:#c76a6a;stroke-opacity:0.75;stroke-width:0.75;" x="171.841575" xlink:href="#m17e2a8cb6d" y="45.554013"/>
    </g>
   </g>
   <g id="line2d_19">
    <g clip-path="url(#p8a30043cb3)">
     <use style="fill:#c76a6a;fill-opacity:0.75;stroke:#c76a6a;stroke-opacity:0.75;stroke-width:0.75;" x="163.485085" xlink:href="#m17e2a8cb6d" y="38.195692"/>
     <use style="fill:#c76a6a;fill-opacity:0.75;stroke:#c76a6a;stroke-opacity:0.75;stroke-width:0.75;" x="167.566617" xlink:href="#m17e2a8cb6d" y="38.173636"/>
     <use style="fill:#c76a6a;fill-opacity:0.75;stroke:#c76a6a;stroke-opacity:0.75;stroke-width:0.75;" x="171.841575" xlink:href="#m17e2a8cb6d" y="44.550188"/>
    </g>
   </g>
   <g id="line2d_20">
    <defs>
     <path d="M 1.5 0 
L -1.5 -0 
" id="md8b4b26368" style="stroke:#7e59a2;stroke-opacity:0.75;stroke-width:0.75;"/>
    </defs>
    <g clip-path="url(#p8a30043cb3)">
     <use style="fill:#7e59a2;fill-opacity:0.75;stroke:#7e59a2;stroke-opacity:0.75;stroke-width:0.75;" x="197.481508" xlink:href="#md8b4b26368" y="18.568396"/>
     <use style="fill:#7e59a2;fill-opacity:0.75;stroke:#7e59a2;stroke-opacity:0.75;stroke-width:0.75;" x="199.799351" xlink:href="#md8b4b26368" y="17.292664"/>
     <use style="fill:#7e59a2;fill-opacity:0.75;stroke:#7e59a2;stroke-opacity:0.75;stroke-width:0.75;" x="200.978171" xlink:href="#md8b4b26368" y="17.138579"/>
     <use style="fill:#7e59a2;fill-opacity:0.75;stroke:#7e59a2;stroke-opacity:0.75;stroke-width:0.75;" x="203.968662" xlink:href="#md8b4b26368" y="16.413497"/>
     <use style="fill:#7e59a2;fill-opacity:0.75;stroke:#7e59a2;stroke-opacity:0.75;stroke-width:0.75;" x="197.134809" xlink:href="#md8b4b26368" y="23.370579"/>
     <use style="fill:#7e59a2;fill-opacity:0.75;stroke:#7e59a2;stroke-opacity:0.75;stroke-width:0.75;" x="203.38099" xlink:href="#md8b4b26368" y="24.553873"/>
     <use style="fill:#7e59a2;fill-opacity:0.75;stroke:#7e59a2;stroke-opacity:0.75;stroke-width:0.75;" x="204.042124" xlink:href="#md8b4b26368" y="12.184127"/>
     <use style="fill:#7e59a2;fill-opacity:0.75;stroke:#7e59a2;stroke-opacity:0.75;stroke-width:0.75;" x="197.802853" xlink:href="#md8b4b26368" y="20.458425"/>
     <use style="fill:#7e59a2;fill-opacity:0.75;stroke:#7e59a2;stroke-opacity:0.75;stroke-width:0.75;" x="207.614439" xlink:href="#md8b4b26368" y="16.551628"/>
    </g>
   </g>
   <g id="line2d_21">
    <g clip-path="url(#p8a30043cb3)">
     <use style="fill:#7e59a2;fill-opacity:0.75;stroke:#7e59a2;stroke-opacity:0.75;stroke-width:0.75;" x="197.481508" xlink:href="#md8b4b26368" y="17.4336"/>
     <use style="fill:#7e59a2;fill-opacity:0.75;stroke:#7e59a2;stroke-opacity:0.75;stroke-width:0.75;" x="199.799351" xlink:href="#md8b4b26368" y="15.881576"/>
     <use style="fill:#7e59a2;fill-opacity:0.75;stroke:#7e59a2;stroke-opacity:0.75;stroke-width:0.75;" x="200.978171" xlink:href="#md8b4b26368" y="15.538012"/>
     <use style="fill:#7e59a2;fill-opacity:0.75;stroke:#7e59a2;stroke-opacity:0.75;stroke-width:0.75;" x="203.968662" xlink:href="#md8b4b26368" y="14.852052"/>
     <use style="fill:#7e59a2;fill-opacity:0.75;stroke:#7e59a2;stroke-opacity:0.75;stroke-width:0.75;" x="197.134809" xlink:href="#md8b4b26368" y="17.462837"/>
     <use style="fill:#7e59a2;fill-opacity:0.75;stroke:#7e59a2;stroke-opacity:0.75;stroke-width:0.75;" x="203.38099" xlink:href="#md8b4b26368" y="20.154738"/>
     <use style="fill:#7e59a2;fill-opacity:0.75;stroke:#7e59a2;stroke-opacity:0.75;stroke-width:0.75;" x="204.042124" xlink:href="#md8b4b26368" y="8.722239"/>
     <use style="fill:#7e59a2;fill-opacity:0.75;stroke:#7e59a2;stroke-opacity:0.75;stroke-width:0.75;" x="197.802853" xlink:href="#md8b4b26368" y="17.443819"/>
     <use style="fill:#7e59a2;fill-opacity:0.75;stroke:#7e59a2;stroke-opacity:0.75;stroke-width:0.75;" x="207.614439" xlink:href="#md8b4b26368" y="15.617437"/>
    </g>
   </g>
   <g id="line2d_22">
    <defs>
     <path d="M 0 2 
C 0.530406 2 1.03916 1.789267 1.414214 1.414214 
C 1.789267 1.03916 2 0.530406 2 0 
C 2 -0.530406 1.789267 -1.03916 1.414214 -1.414214 
C 1.03916 -1.789267 0.530406 -2 0 -2 
C -0.530406 -2 -1.03916 -1.789267 -1.414214 -1.414214 
C -1.789267 -1.03916 -2 -0.530406 -2 0 
C -2 0.530406 -1.789267 1.03916 -1.414214 1.414214 
C -1.03916 1.789267 -0.530406 2 0 2 
z
" id="m5c3a6b2b96" style="stroke:#764f2a;stroke-opacity:0.75;stroke-width:0.75;"/>
    </defs>
    <g clip-path="url(#p8a30043cb3)">
     <use style="fill:#e1bb96;fill-opacity:0.75;stroke:#764f2a;stroke-opacity:0.75;stroke-width:0.75;" x="54.698292" xlink:href="#m5c3a6b2b96" y="81.415192"/>
     <use style="fill:#e1bb96;fill-opacity:0.75;stroke:#764f2a;stroke-opacity:0.75;stroke-width:0.75;" x="60.405468" xlink:href="#m5c3a6b2b96" y="80.659294"/>
     <use style="fill:#e1bb96;fill-opacity:0.75;stroke:#764f2a;stroke-opacity:0.75;stroke-width:0.75;" x="56.205793" xlink:href="#m5c3a6b2b96" y="81.940351"/>
     <use style="fill:#e1bb96;fill-opacity:0.75;stroke:#764f2a;stroke-opacity:0.75;stroke-width:0.75;" x="61.223701" xlink:href="#m5c3a6b2b96" y="79.579571"/>
     <use style="fill:#e1bb96;fill-opacity:0.75;stroke:#764f2a;stroke-opacity:0.75;stroke-width:0.75;" x="58.57696" xlink:href="#m5c3a6b2b96" y="82.155229"/>
    </g>
   </g>
   <g id="line2d_23">
    <defs>
     <path d="M 0 2 
C 0.530406 2 1.03916 1.789267 1.414214 1.414214 
C 1.789267 1.03916 2 0.530406 2 0 
C 2 -0.530406 1.789267 -1.03916 1.414214 -1.414214 
C 1.03916 -1.789267 0.530406 -2 0 -2 
C -0.530406 -2 -1.03916 -1.789267 -1.414214 -1.414214 
C -1.789267 -1.03916 -2 -0.530406 -2 0 
C -2 0.530406 -1.789267 1.03916 -1.414214 1.414214 
C -1.03916 1.789267 -0.530406 2 0 2 
z
" id="m0b2cb44181" style="stroke:#688a2f;stroke-opacity:0.75;stroke-width:0.75;"/>
    </defs>
    <g clip-path="url(#p8a30043cb3)">
     <use style="fill:#b3cd86;fill-opacity:0.75;stroke:#688a2f;stroke-opacity:0.75;stroke-width:0.75;" x="92.05441" xlink:href="#m0b2cb44181" y="55.211083"/>
     <use style="fill:#b3cd86;fill-opacity:0.75;stroke:#688a2f;stroke-opacity:0.75;stroke-width:0.75;" x="94.75291" xlink:href="#m0b2cb44181" y="52.072716"/>
     <use style="fill:#b3cd86;fill-opacity:0.75;stroke:#688a2f;stroke-opacity:0.75;stroke-width:0.75;" x="94.112578" xlink:href="#m0b2cb44181" y="53.835556"/>
     <use style="fill:#b3cd86;fill-opacity:0.75;stroke:#688a2f;stroke-opacity:0.75;stroke-width:0.75;" x="98.59664" xlink:href="#m0b2cb44181" y="52.366011"/>
     <use style="fill:#b3cd86;fill-opacity:0.75;stroke:#688a2f;stroke-opacity:0.75;stroke-width:0.75;" x="94.104522" xlink:href="#m0b2cb44181" y="52.517708"/>
    </g>
   </g>
   <g id="line2d_24">
    <defs>
     <path d="M 0 2 
C 0.530406 2 1.03916 1.789267 1.414214 1.414214 
C 1.789267 1.03916 2 0.530406 2 0 
C 2 -0.530406 1.789267 -1.03916 1.414214 -1.414214 
C 1.03916 -1.789267 0.530406 -2 0 -2 
C -0.530406 -2 -1.03916 -1.789267 -1.414214 -1.414214 
C -1.789267 -1.03916 -2 -0.530406 -2 0 
C -2 0.530406 -1.789267 1.03916 -1.414214 1.414214 
C -1.03916 1.789267 -0.530406 2 0 2 
z
" id="mb98f27fdea" style="stroke:#7292c7;stroke-opacity:0.75;stroke-width:0.75;"/>
    </defs>
    <g clip-path="url(#p8a30043cb3)">
     <use style="fill:#a5b3cc;fill-opacity:0.75;stroke:#7292c7;stroke-opacity:0.75;stroke-width:0.75;" x="126.364749" xlink:href="#mb98f27fdea" y="44.422037"/>
     <use style="fill:#a5b3cc;fill-opacity:0.75;stroke:#7292c7;stroke-opacity:0.75;stroke-width:0.75;" x="125.958691" xlink:href="#mb98f27fdea" y="46.001948"/>
     <use style="fill:#a5b3cc;fill-opacity:0.75;stroke:#7292c7;stroke-opacity:0.75;stroke-width:0.75;" x="132.739671" xlink:href="#mb98f27fdea" y="42.962732"/>
    </g>
   </g>
   <g id="line2d_25">
    <defs>
     <path d="M 0 2 
C 0.530406 2 1.03916 1.789267 1.414214 1.414214 
C 1.789267 1.03916 2 0.530406 2 0 
C 2 -0.530406 1.789267 -1.03916 1.414214 -1.414214 
C 1.03916 -1.789267 0.530406 -2 0 -2 
C -0.530406 -2 -1.03916 -1.789267 -1.414214 -1.414214 
C -1.789267 -1.03916 -2 -0.530406 -2 0 
C -2 0.530406 -1.789267 1.03916 -1.414214 1.414214 
C -1.03916 1.789267 -0.530406 2 0 2 
z
" id="mdee7cc5508" style="stroke:#c76a6a;stroke-opacity:0.75;stroke-width:0.75;"/>
    </defs>
    <g clip-path="url(#p8a30043cb3)">
     <use style="fill:#e39c9d;fill-opacity:0.75;stroke:#c76a6a;stroke-opacity:0.75;stroke-width:0.75;" x="163.485085" xlink:href="#mdee7cc5508" y="38.606817"/>
     <use style="fill:#e39c9d;fill-opacity:0.75;stroke:#c76a6a;stroke-opacity:0.75;stroke-width:0.75;" x="167.566617" xlink:href="#mdee7cc5508" y="38.5351"/>
     <use style="fill:#e39c9d;fill-opacity:0.75;stroke:#c76a6a;stroke-opacity:0.75;stroke-width:0.75;" x="171.841575" xlink:href="#mdee7cc5508" y="45.052101"/>
    </g>
   </g>
   <g id="line2d_26">
    <defs>
     <path d="M 0 2 
C 0.530406 2 1.03916 1.789267 1.414214 1.414214 
C 1.789267 1.03916 2 0.530406 2 0 
C 2 -0.530406 1.789267 -1.03916 1.414214 -1.414214 
C 1.03916 -1.789267 0.530406 -2 0 -2 
C -0.530406 -2 -1.03916 -1.789267 -1.414214 -1.414214 
C -1.789267 -1.03916 -2 -0.530406 -2 0 
C -2 0.530406 -1.789267 1.03916 -1.414214 1.414214 
C -1.03916 1.789267 -0.530406 2 0 2 
z
" id="m98ca2f6885" style="stroke:#7e59a2;stroke-opacity:0.75;stroke-width:0.75;"/>
    </defs>
    <g clip-path="url(#p8a30043cb3)">
     <use style="fill:#a17db8;fill-opacity:0.75;stroke:#7e59a2;stroke-opacity:0.75;stroke-width:0.75;" x="197.481508" xlink:href="#m98ca2f6885" y="18.000998"/>
     <use style="fill:#a17db8;fill-opacity:0.75;stroke:#7e59a2;stroke-opacity:0.75;stroke-width:0.75;" x="199.799351" xlink:href="#m98ca2f6885" y="16.58712"/>
     <use style="fill:#a17db8;fill-opacity:0.75;stroke:#7e59a2;stroke-opacity:0.75;stroke-width:0.75;" x="200.978171" xlink:href="#m98ca2f6885" y="16.338295"/>
     <use style="fill:#a17db8;fill-opacity:0.75;stroke:#7e59a2;stroke-opacity:0.75;stroke-width:0.75;" x="203.968662" xlink:href="#m98ca2f6885" y="15.632774"/>
     <use style="fill:#a17db8;fill-opacity:0.75;stroke:#7e59a2;stroke-opacity:0.75;stroke-width:0.75;" x="197.134809" xlink:href="#m98ca2f6885" y="20.416708"/>
     <use style="fill:#a17db8;fill-opacity:0.75;stroke:#7e59a2;stroke-opacity:0.75;stroke-width:0.75;" x="203.38099" xlink:href="#m98ca2f6885" y="22.354305"/>
     <use style="fill:#a17db8;fill-opacity:0.75;stroke:#7e59a2;stroke-opacity:0.75;stroke-width:0.75;" x="204.042124" xlink:href="#m98ca2f6885" y="10.453183"/>
     <use style="fill:#a17db8;fill-opacity:0.75;stroke:#7e59a2;stroke-opacity:0.75;stroke-width:0.75;" x="197.802853" xlink:href="#m98ca2f6885" y="18.951122"/>
     <use style="fill:#a17db8;fill-opacity:0.75;stroke:#7e59a2;stroke-opacity:0.75;stroke-width:0.75;" x="207.614439" xlink:href="#m98ca2f6885" y="16.084533"/>
    </g>
   </g>
   <g id="patch_3">
    <path d="M 39.42 88.74 
L 39.42 7.2 
" style="fill:none;stroke:#444147;stroke-linecap:square;stroke-linejoin:miter;stroke-width:0.45;"/>
   </g>
   <g id="patch_4">
    <path d="M 39.42 88.74 
L 220.77 88.74 
" style="fill:none;stroke:#444147;stroke-linecap:square;stroke-linejoin:miter;stroke-width:0.45;"/>
   </g>
  </g>
 </g>
 <defs>
  <clipPath id="p8a30043cb3">
   <rect height="81.54" width="181.35" x="39.42" y="7.2"/>
  </clipPath>
 </defs>
</svg>
