<?xml version="1.0" encoding="utf-8" standalone="no"?>
<!DOCTYPE svg PUBLIC "-//W3C//DTD SVG 1.1//EN"
  "http://www.w3.org/Graphics/SVG/1.1/DTD/svg11.dtd">
<!-- Created with matplotlib (https://matplotlib.org/) -->
<svg height="130.14pt" version="1.1" viewBox="0 0 225.73625 130.14" width="225.73625pt" xmlns="http://www.w3.org/2000/svg" xmlns:xlink="http://www.w3.org/1999/xlink">
 <defs>
  <style type="text/css">
*{stroke-linecap:butt;stroke-linejoin:round;}
  </style>
 </defs>
 <g id="figure_1">
  <g id="patch_1">
   <path d="M 0 130.14 
L 225.73625 130.14 
L 225.73625 0 
L 0 0 
z
" style="fill:#ffffff;"/>
  </g>
  <g id="axes_1">
   <g id="patch_2">
    <path d="M 37.18625 88.74 
L 218.53625 88.74 
L 218.53625 7.2 
L 37.18625 7.2 
z
" style="fill:#efefef;"/>
   </g>
   <g id="matplotlib.axis_1">
    <g id="xtick_1">
     <g id="line2d_1"/>
     <g id="text_1">
      <!-- acetate -->
      <defs>
       <path d="M 47.125 11.53125 
Q 47.125 8.734375 47.609375 5.78125 
Q 48.09375 2.828125 48.96875 0.78125 
L 48.96875 0 
L 39.453125 0 
Q 38.625 1.90625 38.1875 5.515625 
Q 35.453125 2.59375 31.609375 0.796875 
Q 27.78125 -0.984375 23.1875 -0.984375 
Q 17.921875 -0.984375 13.84375 1.09375 
Q 9.765625 3.171875 7.546875 6.734375 
Q 5.328125 10.296875 5.328125 14.65625 
Q 5.328125 20.265625 8.234375 24.171875 
Q 11.140625 28.078125 16.484375 30.046875 
Q 21.828125 32.03125 29.109375 32.03125 
L 37.984375 32.03125 
L 37.984375 36.234375 
Q 37.984375 41.0625 35.125 43.8125 
Q 32.28125 46.578125 26.90625 46.578125 
Q 23.640625 46.578125 21.046875 45.421875 
Q 18.453125 44.28125 17.015625 42.359375 
Q 15.578125 40.4375 15.578125 38.1875 
L 6.453125 38.1875 
Q 6.453125 42.046875 9.078125 45.65625 
Q 11.71875 49.265625 16.5 51.53125 
Q 21.296875 53.8125 27.4375 53.8125 
Q 33.296875 53.8125 37.71875 51.828125 
Q 42.140625 49.859375 44.625 45.875 
Q 47.125 41.890625 47.125 36.140625 
L 47.125 11.53125 
z
M 24.515625 6.84375 
Q 27.640625 6.84375 30.34375 7.9375 
Q 33.0625 9.03125 35.015625 10.828125 
Q 36.96875 12.640625 37.984375 14.75 
L 37.984375 25.6875 
L 30.5625 25.6875 
Q 22.75 25.6875 18.59375 23.21875 
Q 14.453125 20.75 14.453125 15.921875 
Q 14.453125 13.328125 15.625 11.28125 
Q 16.796875 9.234375 19.046875 8.03125 
Q 21.296875 6.84375 24.515625 6.84375 
z
" id="Heebo-Regular-97"/>
       <path d="M 49.125 16.703125 
Q 48.875 12.0625 45.9375 7.984375 
Q 43.015625 3.90625 38.25 1.453125 
Q 33.5 -0.984375 28.03125 -0.984375 
Q 20.359375 -0.984375 15.0625 2.5625 
Q 9.765625 6.109375 7.125 12.078125 
Q 4.5 18.0625 4.5 25.390625 
L 4.5 27.4375 
Q 4.5 34.765625 7.125 40.75 
Q 9.765625 46.734375 15.0625 50.265625 
Q 20.359375 53.8125 28.03125 53.8125 
Q 34.078125 53.8125 38.78125 51.3125 
Q 43.5 48.828125 46.1875 44.453125 
Q 48.875 40.09375 49.125 34.671875 
L 40.484375 34.671875 
Q 40.234375 37.9375 38.625 40.640625 
Q 37.015625 43.359375 34.28125 44.921875 
Q 31.546875 46.484375 28.03125 46.484375 
Q 22.796875 46.484375 19.578125 43.765625 
Q 16.359375 41.0625 14.984375 36.78125 
Q 13.625 32.515625 13.625 27.4375 
L 13.625 25.390625 
Q 13.625 17.28125 16.96875 11.8125 
Q 20.3125 6.34375 28.03125 6.34375 
Q 31.203125 6.34375 33.953125 7.6875 
Q 36.71875 9.03125 38.46875 11.390625 
Q 40.234375 13.765625 40.484375 16.703125 
z
" id="Heebo-Regular-99"/>
       <path d="M 49.421875 23.921875 
L 13.671875 23.921875 
Q 13.8125 19 15.71875 14.984375 
Q 17.625 10.984375 21.109375 8.65625 
Q 24.609375 6.34375 29.296875 6.34375 
Q 33.890625 6.34375 37.234375 8.203125 
Q 40.578125 10.0625 43.21875 13.53125 
L 48.734375 9.234375 
Q 45.796875 4.734375 40.90625 1.875 
Q 36.03125 -0.984375 28.8125 -0.984375 
Q 21.578125 -0.984375 16.0625 2.28125 
Q 10.546875 5.5625 7.546875 11.375 
Q 4.546875 17.1875 4.546875 24.5625 
L 4.546875 26.65625 
Q 4.546875 34.90625 7.765625 41.078125 
Q 10.984375 47.265625 16.28125 50.53125 
Q 21.578125 53.8125 27.640625 53.8125 
Q 35.015625 53.8125 39.875 50.515625 
Q 44.734375 47.21875 47.078125 41.40625 
Q 49.421875 35.59375 49.421875 27.984375 
z
M 40.28125 31.9375 
Q 39.890625 38.140625 36.9375 42.3125 
Q 33.984375 46.484375 27.640625 46.484375 
Q 22.171875 46.484375 18.53125 42.5 
Q 14.890625 38.53125 13.96875 31.25 
L 40.28125 31.25 
z
" id="Heebo-Regular-101"/>
       <path d="M 29.25 0 
Q 26.125 -0.984375 22.265625 -0.984375 
Q 16.75 -0.984375 13.40625 2.34375 
Q 10.0625 5.671875 10.0625 13.140625 
L 10.0625 45.953125 
L 0.4375 45.953125 
L 0.4375 52.828125 
L 10.0625 52.828125 
L 10.0625 65.671875 
L 19.1875 65.671875 
L 19.1875 52.828125 
L 29.046875 52.828125 
L 29.046875 45.953125 
L 19.1875 45.953125 
L 19.1875 13.09375 
Q 19.1875 9.328125 20.75 8.03125 
Q 22.3125 6.734375 25 6.734375 
Q 26.03125 6.734375 27.25 6.90625 
Q 28.46875 7.078125 29.203125 7.28125 
z
" id="Heebo-Regular-116"/>
      </defs>
      <g style="fill:#444147;" transform="translate(42.006875 100.74)scale(0.08 -0.08)">
       <use xlink:href="#Heebo-Regular-97"/>
       <use x="54.443359" xlink:href="#Heebo-Regular-99"/>
       <use x="106.835938" xlink:href="#Heebo-Regular-101"/>
       <use x="159.912109" xlink:href="#Heebo-Regular-116"/>
       <use x="192.626953" xlink:href="#Heebo-Regular-97"/>
       <use x="247.070312" xlink:href="#Heebo-Regular-116"/>
       <use x="279.785156" xlink:href="#Heebo-Regular-101"/>
      </g>
      <!-- 37° C -->
      <defs>
       <path d="M 37.453125 36.53125 
Q 44 34.421875 46.84375 29.90625 
Q 49.703125 25.390625 49.703125 19.828125 
Q 49.703125 13.328125 46.765625 8.640625 
Q 43.84375 3.953125 38.734375 1.484375 
Q 33.640625 -0.984375 27.203125 -0.984375 
Q 20.90625 -0.984375 15.765625 1.359375 
Q 10.640625 3.71875 7.640625 8.171875 
Q 4.640625 12.640625 4.640625 18.796875 
L 13.765625 18.796875 
Q 13.765625 15.09375 15.40625 12.25 
Q 17.046875 9.421875 20.0625 7.875 
Q 23.09375 6.34375 27.203125 6.34375 
Q 33.5 6.34375 37.03125 9.71875 
Q 40.578125 13.09375 40.578125 19.625 
Q 40.578125 26.125 36.59375 29.375 
Q 32.625 32.625 25.53125 32.625 
L 19.09375 32.625 
L 19.09375 37.984375 
L 19.09375 39.9375 
L 25.53125 39.9375 
Q 30.078125 39.9375 33.21875 41.5 
Q 36.375 43.0625 37.9375 45.84375 
Q 39.5 48.640625 39.5 52.203125 
Q 39.5 58.34375 36.390625 61.546875 
Q 33.296875 64.75 27.15625 64.75 
Q 23.34375 64.75 20.453125 63.234375 
Q 17.578125 61.71875 15.96875 58.953125 
Q 14.359375 56.203125 14.359375 52.484375 
L 5.21875 52.484375 
Q 5.21875 57.90625 7.984375 62.390625 
Q 10.75 66.890625 15.71875 69.484375 
Q 20.703125 72.078125 27.15625 72.078125 
Q 33.640625 72.078125 38.46875 69.78125 
Q 43.3125 67.484375 45.96875 62.96875 
Q 48.640625 58.453125 48.640625 52 
Q 48.640625 49.21875 47.40625 46.234375 
Q 46.1875 43.265625 43.671875 40.671875 
Q 41.15625 38.09375 37.453125 36.53125 
z
" id="Heebo-Regular-51"/>
       <path d="M 22.46875 0 
L 12.890625 0 
L 42.234375 63.765625 
L 3.8125 63.765625 
L 3.8125 71.09375 
L 51.90625 71.09375 
L 51.90625 66.0625 
z
" id="Heebo-Regular-55"/>
       <path d="M 18.84375 72.125 
Q 22.171875 72.125 24.96875 70.390625 
Q 27.78125 68.65625 29.4375 65.75 
Q 31.109375 62.84375 31.109375 59.421875 
Q 31.109375 56 29.4375 53.125 
Q 27.78125 50.25 24.96875 48.578125 
Q 22.171875 46.921875 18.84375 46.921875 
Q 15.484375 46.921875 12.625 48.578125 
Q 9.765625 50.25 8.078125 53.125 
Q 6.390625 56 6.390625 59.421875 
Q 6.390625 62.84375 8.078125 65.75 
Q 9.765625 68.65625 12.640625 70.390625 
Q 15.53125 72.125 18.84375 72.125 
z
M 18.84375 53.125 
Q 21.484375 53.125 23.234375 54.921875 
Q 25 56.734375 25 59.421875 
Q 25 62.203125 23.234375 64.0625 
Q 21.484375 65.921875 18.84375 65.921875 
Q 16.21875 65.921875 14.359375 64.0625 
Q 12.5 62.203125 12.5 59.421875 
Q 12.5 56.734375 14.359375 54.921875 
Q 16.21875 53.125 18.84375 53.125 
z
" id="Heebo-Regular-176"/>
       <path id="Heebo-Regular-32"/>
       <path d="M 60.59375 22.5625 
Q 59.8125 15.625 56.640625 10.328125 
Q 53.46875 5.03125 47.671875 2.015625 
Q 41.890625 -0.984375 33.59375 -0.984375 
Q 25.34375 -0.984375 19.046875 3.09375 
Q 12.75 7.171875 9.28125 14.640625 
Q 5.8125 22.125 5.8125 31.9375 
L 5.8125 39.109375 
Q 5.8125 48.96875 9.296875 56.4375 
Q 12.796875 63.921875 19.28125 68 
Q 25.78125 72.078125 34.46875 72.078125 
Q 42.328125 72.078125 47.9375 69.109375 
Q 53.5625 66.15625 56.703125 60.8125 
Q 59.859375 55.46875 60.59375 48.296875 
L 51.125 48.296875 
Q 50 56.25 46.140625 60.328125 
Q 42.28125 64.40625 34.46875 64.40625 
Q 28.265625 64.40625 23.96875 61.28125 
Q 19.671875 58.15625 17.5 52.484375 
Q 15.328125 46.828125 15.328125 39.203125 
L 15.328125 31.9375 
Q 15.328125 24.703125 17.328125 18.984375 
Q 19.34375 13.28125 23.4375 9.953125 
Q 27.546875 6.640625 33.59375 6.640625 
Q 39.40625 6.640625 42.984375 8.46875 
Q 46.578125 10.296875 48.40625 13.765625 
Q 50.25 17.234375 51.125 22.5625 
L 60.59375 22.5625 
z
" id="Heebo-Regular-67"/>
      </defs>
      <g style="fill:#444147;" transform="translate(45.734375 109.565)scale(0.08 -0.08)">
       <use xlink:href="#Heebo-Regular-51"/>
       <use x="56.201172" xlink:href="#Heebo-Regular-55"/>
       <use x="112.402344" xlink:href="#Heebo-Regular-176"/>
       <use x="149.755859" xlink:href="#Heebo-Regular-32"/>
       <use x="174.560547" xlink:href="#Heebo-Regular-67"/>
      </g>
     </g>
    </g>
    <g id="xtick_2">
     <g id="line2d_2"/>
     <g id="text_2">
      <!-- glycerol -->
      <defs>
       <path d="M 49.359375 52.828125 
L 49.359375 1.125 
Q 49.359375 -5.765625 46.53125 -10.71875 
Q 43.703125 -15.671875 38.640625 -18.25 
Q 33.59375 -20.84375 26.953125 -20.84375 
Q 23.875 -20.84375 20.203125 -19.921875 
Q 16.546875 -19 13.0625 -16.9375 
Q 9.578125 -14.890625 7.375 -11.671875 
L 12.109375 -6.34375 
Q 17.96875 -13.53125 26.265625 -13.53125 
Q 32.765625 -13.53125 36.5 -9.84375 
Q 40.234375 -6.15625 40.234375 0.6875 
L 40.234375 5.21875 
Q 34.859375 -0.984375 25.484375 -0.984375 
Q 19.234375 -0.984375 14.515625 2.484375 
Q 9.8125 5.953125 7.25 12.03125 
Q 4.6875 18.109375 4.6875 25.828125 
L 4.6875 26.859375 
Q 4.6875 34.859375 7.21875 40.96875 
Q 9.765625 47.078125 14.5 50.4375 
Q 19.234375 53.8125 25.59375 53.8125 
Q 35.25 53.8125 40.671875 47.015625 
L 41.0625 52.828125 
z
M 27.734375 6.640625 
Q 36.234375 6.640625 40.234375 14.40625 
L 40.234375 38.671875 
Q 38.375 42.1875 35.296875 44.203125 
Q 32.234375 46.234375 27.828125 46.234375 
Q 23.09375 46.234375 19.9375 43.671875 
Q 16.796875 41.109375 15.296875 36.71875 
Q 13.8125 32.328125 13.8125 26.859375 
L 13.8125 25.828125 
Q 13.8125 20.359375 15.296875 16.03125 
Q 16.796875 11.71875 19.921875 9.171875 
Q 23.046875 6.640625 27.734375 6.640625 
z
" id="Heebo-Regular-103"/>
       <path d="M 7.625 0 
L 7.625 75 
L 16.75 75 
L 16.75 0 
z
" id="Heebo-Regular-108"/>
       <path d="M 46.09375 52.828125 
L 24.90625 -8.15625 
Q 22.953125 -13.484375 19.265625 -17.40625 
Q 15.578125 -21.34375 9.234375 -21.34375 
Q 8.203125 -21.34375 6.5625 -21.0625 
Q 4.9375 -20.796875 4.109375 -20.5625 
L 4.109375 -13.28125 
Q 4.640625 -13.375 5.3125 -13.453125 
Q 6 -13.53125 6.546875 -13.53125 
Q 11.1875 -13.53125 13.75 -11.59375 
Q 16.3125 -9.671875 17.921875 -4.828125 
L 19.921875 0.59375 
L 1.078125 52.828125 
L 11.03125 52.828125 
L 24.125 13.28125 
L 36.375 52.828125 
z
" id="Heebo-Regular-121"/>
       <path d="M 28.421875 53.8125 
Q 29.296875 53.8125 30.609375 53.59375 
Q 31.9375 53.375 32.421875 53.125 
L 32.421875 44.78125 
Q 30.328125 45.171875 27.984375 45.171875 
Q 23.484375 45.171875 20.484375 43.15625 
Q 17.484375 41.15625 15.96875 37.546875 
L 15.96875 0 
L 6.84375 0 
L 6.84375 52.828125 
L 15.71875 52.828125 
L 15.921875 46.828125 
Q 17.96875 50.140625 21.09375 51.96875 
Q 24.21875 53.8125 28.421875 53.8125 
z
" id="Heebo-Regular-114"/>
       <path d="M 4.5 26.953125 
Q 4.5 34.625 7.421875 40.71875 
Q 10.359375 46.828125 15.796875 50.3125 
Q 21.234375 53.8125 28.46875 53.8125 
Q 35.796875 53.8125 41.265625 50.3125 
Q 46.734375 46.828125 49.65625 40.71875 
Q 52.59375 34.625 52.59375 26.953125 
L 52.59375 25.828125 
Q 52.59375 18.171875 49.65625 12.078125 
Q 46.734375 6 41.28125 2.5 
Q 35.84375 -0.984375 28.5625 -0.984375 
Q 21.296875 -0.984375 15.84375 2.5 
Q 10.40625 6 7.453125 12.078125 
Q 4.5 18.171875 4.5 25.828125 
L 4.5 26.953125 
z
M 13.625 25.828125 
Q 13.625 20.453125 15.3125 16.015625 
Q 17 11.578125 20.359375 8.953125 
Q 23.734375 6.34375 28.5625 6.34375 
Q 33.34375 6.34375 36.71875 8.953125 
Q 40.09375 11.578125 41.765625 16.015625 
Q 43.453125 20.453125 43.453125 25.828125 
L 43.453125 26.953125 
Q 43.453125 32.328125 41.75 36.765625 
Q 40.046875 41.21875 36.671875 43.84375 
Q 33.296875 46.484375 28.46875 46.484375 
Q 23.6875 46.484375 20.34375 43.84375 
Q 17 41.21875 15.3125 36.765625 
Q 13.625 32.328125 13.625 26.953125 
L 13.625 25.828125 
z
" id="Heebo-Regular-111"/>
      </defs>
      <g style="fill:#444147;" transform="translate(77.65 100.74)scale(0.08 -0.08)">
       <use xlink:href="#Heebo-Regular-103"/>
       <use x="56.152344" xlink:href="#Heebo-Regular-108"/>
       <use x="80.46875" xlink:href="#Heebo-Regular-121"/>
       <use x="127.783203" xlink:href="#Heebo-Regular-99"/>
       <use x="180.175781" xlink:href="#Heebo-Regular-101"/>
       <use x="233.251953" xlink:href="#Heebo-Regular-114"/>
       <use x="267.138672" xlink:href="#Heebo-Regular-111"/>
       <use x="324.21875" xlink:href="#Heebo-Regular-108"/>
      </g>
      <!-- 37 °C -->
      <g style="fill:#444147;" transform="translate(82.004375 109.6475)scale(0.08 -0.08)">
       <use xlink:href="#Heebo-Regular-51"/>
       <use x="56.201172" xlink:href="#Heebo-Regular-55"/>
       <use x="112.402344" xlink:href="#Heebo-Regular-32"/>
       <use x="137.207031" xlink:href="#Heebo-Regular-176"/>
       <use x="174.560547" xlink:href="#Heebo-Regular-67"/>
      </g>
     </g>
    </g>
    <g id="xtick_3">
     <g id="line2d_3"/>
     <g id="text_3">
      <!-- glucose -->
      <defs>
       <path d="M 48.296875 52.828125 
L 48.296875 0 
L 39.59375 0 
L 39.453125 5.21875 
Q 34.1875 -0.984375 23.96875 -0.984375 
Q 15.828125 -0.984375 11.234375 3.796875 
Q 6.640625 8.59375 6.640625 18.75 
L 6.640625 52.828125 
L 15.765625 52.828125 
L 15.765625 18.65625 
Q 15.765625 12.0625 18.46875 9.34375 
Q 21.1875 6.640625 25.4375 6.640625 
Q 35.6875 6.640625 39.15625 14.3125 
L 39.15625 52.828125 
z
" id="Heebo-Regular-117"/>
       <path d="M 25.484375 23.1875 
Q 16.0625 25.140625 11.25 28.65625 
Q 6.453125 32.171875 6.453125 38.375 
Q 6.453125 42.578125 8.890625 46.09375 
Q 11.328125 49.609375 15.796875 51.703125 
Q 20.265625 53.8125 26.03125 53.8125 
Q 32.171875 53.8125 36.765625 51.609375 
Q 41.359375 49.421875 43.765625 45.671875 
Q 46.1875 41.9375 46.1875 37.359375 
L 37.0625 37.359375 
Q 37.0625 39.59375 35.734375 41.6875 
Q 34.421875 43.796875 31.90625 45.140625 
Q 29.390625 46.484375 26.03125 46.484375 
Q 22.46875 46.484375 20.125 45.375 
Q 17.78125 44.28125 16.671875 42.5 
Q 15.578125 40.71875 15.578125 38.671875 
Q 15.578125 36.578125 16.578125 35.1875 
Q 17.578125 33.796875 20.1875 32.671875 
Q 22.796875 31.546875 27.734375 30.46875 
Q 34.375 28.953125 38.515625 26.90625 
Q 42.671875 24.859375 44.703125 21.875 
Q 46.734375 18.890625 46.734375 14.65625 
Q 46.734375 10.0625 44.1875 6.515625 
Q 41.65625 2.984375 37.015625 1 
Q 32.375 -0.984375 26.265625 -0.984375 
Q 19.53125 -0.984375 14.625 1.4375 
Q 9.71875 3.859375 7.171875 7.8125 
Q 4.640625 11.765625 4.640625 16.265625 
L 13.765625 16.265625 
Q 13.96875 12.75 15.8125 10.515625 
Q 17.671875 8.296875 20.421875 7.3125 
Q 23.1875 6.34375 26.265625 6.34375 
Q 29.828125 6.34375 32.390625 7.34375 
Q 34.96875 8.34375 36.28125 10.078125 
Q 37.59375 11.8125 37.59375 14.015625 
Q 37.59375 16.21875 36.671875 17.828125 
Q 35.75 19.4375 33.109375 20.796875 
Q 30.46875 22.171875 25.484375 23.1875 
z
" id="Heebo-Regular-115"/>
      </defs>
      <g style="fill:#444147;" transform="translate(113.87125 100.74)scale(0.08 -0.08)">
       <use xlink:href="#Heebo-Regular-103"/>
       <use x="56.152344" xlink:href="#Heebo-Regular-108"/>
       <use x="80.46875" xlink:href="#Heebo-Regular-117"/>
       <use x="135.595703" xlink:href="#Heebo-Regular-99"/>
       <use x="187.988281" xlink:href="#Heebo-Regular-111"/>
       <use x="245.068359" xlink:href="#Heebo-Regular-115"/>
       <use x="296.679688" xlink:href="#Heebo-Regular-101"/>
      </g>
      <!-- 32 °C -->
      <defs>
       <path d="M 5.90625 0 
L 5.90625 6.453125 
L 29.203125 32.375 
Q 33.546875 37.203125 35.890625 40.5 
Q 38.234375 43.796875 39.1875 46.453125 
Q 40.140625 49.125 40.140625 52 
Q 40.140625 55.5625 38.671875 58.46875 
Q 37.203125 61.375 34.421875 63.0625 
Q 31.640625 64.75 27.828125 64.75 
Q 20.90625 64.75 17.28125 60.796875 
Q 13.671875 56.84375 13.671875 50.203125 
L 4.546875 50.203125 
Q 4.546875 56.296875 7.21875 61.28125 
Q 9.90625 66.265625 15.171875 69.171875 
Q 20.453125 72.078125 27.828125 72.078125 
Q 34.421875 72.078125 39.25 69.703125 
Q 44.09375 67.328125 46.671875 63.03125 
Q 49.265625 58.734375 49.265625 53.078125 
Q 49.265625 47.21875 45.671875 40.984375 
Q 42.09375 34.765625 35.9375 28.078125 
L 16.890625 7.328125 
L 52.546875 7.328125 
L 52.546875 0 
z
" id="Heebo-Regular-50"/>
      </defs>
      <g style="fill:#444147;" transform="translate(118.274375 109.6075)scale(0.08 -0.08)">
       <use xlink:href="#Heebo-Regular-51"/>
       <use x="56.201172" xlink:href="#Heebo-Regular-50"/>
       <use x="112.402344" xlink:href="#Heebo-Regular-32"/>
       <use x="137.207031" xlink:href="#Heebo-Regular-176"/>
       <use x="174.560547" xlink:href="#Heebo-Regular-67"/>
      </g>
     </g>
    </g>
    <g id="xtick_4">
     <g id="line2d_4"/>
     <g id="text_4">
      <!-- glucose -->
      <g style="fill:#444147;" transform="translate(150.14125 100.74)scale(0.08 -0.08)">
       <use xlink:href="#Heebo-Regular-103"/>
       <use x="56.152344" xlink:href="#Heebo-Regular-108"/>
       <use x="80.46875" xlink:href="#Heebo-Regular-117"/>
       <use x="135.595703" xlink:href="#Heebo-Regular-99"/>
       <use x="187.988281" xlink:href="#Heebo-Regular-111"/>
       <use x="245.068359" xlink:href="#Heebo-Regular-115"/>
       <use x="296.679688" xlink:href="#Heebo-Regular-101"/>
      </g>
      <!-- 42° C -->
      <defs>
       <path d="M 53.953125 16.546875 
L 44.09375 16.546875 
L 44.09375 0 
L 34.96875 0 
L 34.96875 16.546875 
L 2.59375 16.546875 
L 2.59375 21.828125 
L 34.375 71.09375 
L 41.796875 71.09375 
L 44.09375 71.09375 
L 44.09375 23.875 
L 53.953125 23.875 
z
M 34.96875 23.875 
L 34.96875 58.796875 
L 33.890625 56.890625 
L 12.890625 23.875 
z
" id="Heebo-Regular-52"/>
      </defs>
      <g style="fill:#444147;" transform="translate(154.544375 109.6075)scale(0.08 -0.08)">
       <use xlink:href="#Heebo-Regular-52"/>
       <use x="56.201172" xlink:href="#Heebo-Regular-50"/>
       <use x="112.402344" xlink:href="#Heebo-Regular-176"/>
       <use x="149.755859" xlink:href="#Heebo-Regular-32"/>
       <use x="174.560547" xlink:href="#Heebo-Regular-67"/>
      </g>
     </g>
    </g>
    <g id="xtick_5">
     <g id="line2d_5"/>
     <g id="text_5">
      <!-- glucose -->
      <g style="fill:#444147;" transform="translate(186.41125 100.74)scale(0.08 -0.08)">
       <use xlink:href="#Heebo-Regular-103"/>
       <use x="56.152344" xlink:href="#Heebo-Regular-108"/>
       <use x="80.46875" xlink:href="#Heebo-Regular-117"/>
       <use x="135.595703" xlink:href="#Heebo-Regular-99"/>
       <use x="187.988281" xlink:href="#Heebo-Regular-111"/>
       <use x="245.068359" xlink:href="#Heebo-Regular-115"/>
       <use x="296.679688" xlink:href="#Heebo-Regular-101"/>
      </g>
      <!--  37°C -->
      <g style="fill:#444147;" transform="translate(190.814375 109.6075)scale(0.08 -0.08)">
       <use xlink:href="#Heebo-Regular-32"/>
       <use x="24.804688" xlink:href="#Heebo-Regular-51"/>
       <use x="81.005859" xlink:href="#Heebo-Regular-55"/>
       <use x="137.207031" xlink:href="#Heebo-Regular-176"/>
       <use x="174.560547" xlink:href="#Heebo-Regular-67"/>
      </g>
     </g>
    </g>
    <g id="text_6">
     <!-- growth condition -->
     <defs>
      <path d="M 72.796875 52.828125 
L 57.46875 0 
L 51.421875 0 
L 50.09375 0 
L 37.3125 39.890625 
L 24.8125 0 
L 19 0 
L 17.4375 0 
L 2.09375 52.828125 
L 11.1875 52.828125 
L 21.53125 13.625 
L 33.796875 52.828125 
L 39.796875 52.828125 
L 41.15625 52.828125 
L 53.609375 12.75 
L 63.765625 52.828125 
z
" id="Heebo-Regular-119"/>
      <path d="M 31.5 53.8125 
Q 48.4375 53.8125 48.4375 34.625 
L 48.4375 0 
L 39.3125 0 
L 39.3125 34.71875 
Q 39.3125 40.765625 36.6875 43.5 
Q 34.078125 46.234375 28.8125 46.234375 
Q 24.609375 46.234375 21.265625 43.9375 
Q 17.921875 41.65625 15.96875 37.796875 
L 15.96875 0 
L 6.84375 0 
L 6.84375 75 
L 15.96875 75 
L 15.96875 46.578125 
Q 18.84375 50.046875 22.796875 51.921875 
Q 26.765625 53.8125 31.5 53.8125 
z
" id="Heebo-Regular-104"/>
      <path d="M 31.5 53.8125 
Q 48.4375 53.8125 48.4375 34.625 
L 48.4375 0 
L 39.3125 0 
L 39.3125 34.71875 
Q 39.3125 40.765625 36.6875 43.5 
Q 34.078125 46.234375 28.8125 46.234375 
Q 24.609375 46.234375 21.265625 43.9375 
Q 17.921875 41.65625 15.96875 37.796875 
L 15.96875 0 
L 6.84375 0 
L 6.84375 52.828125 
L 15.484375 52.828125 
L 15.765625 46.34375 
Q 18.65625 49.90625 22.65625 51.859375 
Q 26.65625 53.8125 31.5 53.8125 
z
" id="Heebo-Regular-110"/>
      <path d="M 49.265625 75 
L 49.265625 0 
L 40.921875 0 
L 40.484375 5.609375 
Q 35.109375 -0.984375 25.4375 -0.984375 
Q 19.34375 -0.984375 14.59375 2.484375 
Q 9.859375 5.953125 7.25 12.0625 
Q 4.640625 18.171875 4.640625 25.828125 
L 4.640625 26.859375 
Q 4.640625 34.859375 7.21875 40.96875 
Q 9.8125 47.078125 14.546875 50.4375 
Q 19.28125 53.8125 25.53125 53.8125 
Q 34.859375 53.8125 40.140625 47.609375 
L 40.140625 75 
z
M 27.6875 6.640625 
Q 36.140625 6.640625 40.140625 14.3125 
L 40.140625 38.765625 
Q 38.28125 42.234375 35.21875 44.234375 
Q 32.171875 46.234375 27.78125 46.234375 
Q 23.046875 46.234375 19.890625 43.671875 
Q 16.75 41.109375 15.25 36.71875 
Q 13.765625 32.328125 13.765625 26.859375 
L 13.765625 25.828125 
Q 13.765625 20.359375 15.25 16.03125 
Q 16.75 11.71875 19.875 9.171875 
Q 23 6.640625 27.6875 6.640625 
z
" id="Heebo-Regular-100"/>
      <path d="M 12.25 72.078125 
Q 14.796875 72.078125 16.234375 70.609375 
Q 17.671875 69.140625 17.671875 66.890625 
Q 17.671875 64.703125 16.234375 63.25 
Q 14.796875 61.8125 12.25 61.8125 
Q 9.71875 61.8125 8.328125 63.25 
Q 6.9375 64.703125 6.9375 66.890625 
Q 6.9375 69.140625 8.328125 70.609375 
Q 9.71875 72.078125 12.25 72.078125 
z
M 7.625 0 
L 7.625 52.828125 
L 16.75 52.828125 
L 16.75 0 
z
" id="Heebo-Regular-105"/>
     </defs>
     <g style="fill:#444147;" transform="translate(97.875 121.2725)scale(0.08 -0.08)">
      <use xlink:href="#Heebo-Regular-103"/>
      <use x="56.152344" xlink:href="#Heebo-Regular-114"/>
      <use x="90.039062" xlink:href="#Heebo-Regular-111"/>
      <use x="147.119141" xlink:href="#Heebo-Regular-119"/>
      <use x="222.265625" xlink:href="#Heebo-Regular-116"/>
      <use x="254.980469" xlink:href="#Heebo-Regular-104"/>
      <use x="310.058594" xlink:href="#Heebo-Regular-32"/>
      <use x="334.863281" xlink:href="#Heebo-Regular-99"/>
      <use x="387.255859" xlink:href="#Heebo-Regular-111"/>
      <use x="444.335938" xlink:href="#Heebo-Regular-110"/>
      <use x="499.560547" xlink:href="#Heebo-Regular-100"/>
      <use x="556.005859" xlink:href="#Heebo-Regular-105"/>
      <use x="580.322266" xlink:href="#Heebo-Regular-116"/>
      <use x="613.037109" xlink:href="#Heebo-Regular-105"/>
      <use x="637.353516" xlink:href="#Heebo-Regular-111"/>
      <use x="694.433594" xlink:href="#Heebo-Regular-110"/>
     </g>
    </g>
   </g>
   <g id="matplotlib.axis_2">
    <g id="ytick_1">
     <g id="line2d_6">
      <path clip-path="url(#pc89dea15bf)" d="M 37.18625 81.327273 
L 218.53625 81.327273 
" style="fill:none;stroke:#ffffff;stroke-linecap:square;stroke-width:0.75;"/>
     </g>
     <g id="line2d_7"/>
     <g id="text_7">
      <!-- 0.2 -->
      <defs>
       <path d="M 50.53125 30.328125 
Q 50.53125 13.625 44.796875 6.3125 
Q 39.0625 -0.984375 28.171875 -0.984375 
Q 17.328125 -0.984375 11.46875 6.34375 
Q 5.609375 13.671875 5.609375 30.328125 
L 5.609375 41.21875 
Q 5.609375 57.8125 11.390625 64.9375 
Q 17.1875 72.078125 28.078125 72.078125 
Q 39.015625 72.078125 44.765625 64.9375 
Q 50.53125 57.8125 50.53125 41.21875 
L 50.53125 30.328125 
z
M 41.40625 42.71875 
Q 41.40625 54.4375 38.109375 59.59375 
Q 34.8125 64.75 28.078125 64.75 
Q 21.4375 64.75 18.09375 59.5625 
Q 14.75 54.390625 14.75 42.71875 
L 14.75 28.90625 
Q 14.75 17.234375 18.15625 11.78125 
Q 21.578125 6.34375 28.171875 6.34375 
Q 34.859375 6.34375 38.125 11.734375 
Q 41.40625 17.140625 41.40625 28.90625 
L 41.40625 42.71875 
z
" id="Heebo-Regular-48"/>
       <path d="M 12.640625 10.203125 
Q 15.328125 10.203125 16.8125 8.65625 
Q 18.3125 7.125 18.3125 4.734375 
Q 18.3125 2.390625 16.8125 0.921875 
Q 15.328125 -0.53125 12.640625 -0.53125 
Q 10.015625 -0.53125 8.515625 0.953125 
Q 7.03125 2.4375 7.03125 4.734375 
Q 7.03125 7.125 8.515625 8.65625 
Q 10.015625 10.203125 12.640625 10.203125 
z
" id="Heebo-Regular-46"/>
      </defs>
      <g style="fill:#444147;" transform="translate(20.08 84.327273)scale(0.08 -0.08)">
       <use xlink:href="#Heebo-Regular-48"/>
       <use x="56.201172" xlink:href="#Heebo-Regular-46"/>
       <use x="82.617188" xlink:href="#Heebo-Regular-50"/>
      </g>
     </g>
    </g>
    <g id="ytick_2">
     <g id="line2d_8">
      <path clip-path="url(#pc89dea15bf)" d="M 37.18625 51.676364 
L 218.53625 51.676364 
" style="fill:none;stroke:#ffffff;stroke-linecap:square;stroke-width:0.75;"/>
     </g>
     <g id="line2d_9"/>
     <g id="text_8">
      <!-- 0.4 -->
      <g style="fill:#444147;" transform="translate(20.08 54.676364)scale(0.08 -0.08)">
       <use xlink:href="#Heebo-Regular-48"/>
       <use x="56.201172" xlink:href="#Heebo-Regular-46"/>
       <use x="82.617188" xlink:href="#Heebo-Regular-52"/>
      </g>
     </g>
    </g>
    <g id="ytick_3">
     <g id="line2d_10">
      <path clip-path="url(#pc89dea15bf)" d="M 37.18625 22.025455 
L 218.53625 22.025455 
" style="fill:none;stroke:#ffffff;stroke-linecap:square;stroke-width:0.75;"/>
     </g>
     <g id="line2d_11"/>
     <g id="text_9">
      <!-- 0.6 -->
      <defs>
       <path d="M 31.0625 46.625 
Q 37.796875 46.625 42.375 43.328125 
Q 46.96875 40.046875 49.1875 34.6875 
Q 51.421875 29.34375 51.421875 23.1875 
Q 51.421875 16.359375 48.875 10.859375 
Q 46.34375 5.375 41.359375 2.1875 
Q 36.375 -0.984375 29.34375 -0.984375 
Q 22.015625 -0.984375 16.84375 2.953125 
Q 11.671875 6.890625 9.078125 13.109375 
Q 6.5 19.34375 6.5 26.265625 
L 6.5 30.5625 
Q 6.5 48.34375 14.09375 59.765625 
Q 21.6875 71.1875 40.578125 71.1875 
L 41.359375 71.1875 
L 41.359375 63.578125 
L 40.578125 63.578125 
Q 28.515625 63.578125 22.609375 57 
Q 16.703125 50.4375 15.828125 40.234375 
Q 18.65625 43.453125 22.53125 45.03125 
Q 26.421875 46.625 31.0625 46.625 
z
M 29.34375 6.453125 
Q 33.453125 6.453125 36.40625 8.515625 
Q 39.359375 10.59375 40.890625 14.28125 
Q 42.4375 17.96875 42.4375 22.75 
Q 42.4375 27.15625 40.984375 30.90625 
Q 39.546875 34.671875 36.640625 36.9375 
Q 33.734375 39.203125 29.546875 39.203125 
Q 26.46875 39.203125 23.625 37.90625 
Q 20.796875 36.625 18.71875 34.390625 
Q 16.65625 32.171875 15.625 29.4375 
L 15.625 26.03125 
Q 15.625 19.921875 17.53125 15.46875 
Q 19.4375 11.03125 22.578125 8.734375 
Q 25.734375 6.453125 29.34375 6.453125 
z
" id="Heebo-Regular-54"/>
      </defs>
      <g style="fill:#444147;" transform="translate(20.08 25.025455)scale(0.08 -0.08)">
       <use xlink:href="#Heebo-Regular-48"/>
       <use x="56.201172" xlink:href="#Heebo-Regular-46"/>
       <use x="82.617188" xlink:href="#Heebo-Regular-54"/>
      </g>
     </g>
    </g>
    <g id="text_10">
     <!-- growth rate [hr$^{-1}$] -->
     <defs>
      <path d="M 16.265625 73.921875 
L 16.265625 -7.90625 
L 25.59375 -7.90625 
L 25.59375 -15.234375 
L 7.125 -15.234375 
L 7.125 81.25 
L 25.59375 81.25 
L 25.59375 73.921875 
z
" id="Heebo-Regular-91"/>
      <path d="M 10.59375 35.5 
L 73.1875 35.5 
L 73.1875 27.203125 
L 10.59375 27.203125 
z
" id="DejaVuSans-8722"/>
      <path d="M 12.40625 8.296875 
L 28.515625 8.296875 
L 28.515625 63.921875 
L 10.984375 60.40625 
L 10.984375 69.390625 
L 28.421875 72.90625 
L 38.28125 72.90625 
L 38.28125 8.296875 
L 54.390625 8.296875 
L 54.390625 0 
L 12.40625 0 
z
" id="DejaVuSans-49"/>
      <path d="M 19 81.25 
L 19 -15.234375 
L 0.484375 -15.234375 
L 0.484375 -7.90625 
L 9.859375 -7.90625 
L 9.859375 73.921875 
L 0.484375 73.921875 
L 0.484375 81.25 
z
" id="Heebo-Regular-93"/>
     </defs>
     <g style="fill:#444147;" transform="translate(14.4 79.29)rotate(-90)scale(0.08 -0.08)">
      <use transform="translate(0 0.684375)" xlink:href="#Heebo-Regular-103"/>
      <use transform="translate(56.152344 0.684375)" xlink:href="#Heebo-Regular-114"/>
      <use transform="translate(90.039062 0.684375)" xlink:href="#Heebo-Regular-111"/>
      <use transform="translate(147.119141 0.684375)" xlink:href="#Heebo-Regular-119"/>
      <use transform="translate(222.265625 0.684375)" xlink:href="#Heebo-Regular-116"/>
      <use transform="translate(254.980469 0.684375)" xlink:href="#Heebo-Regular-104"/>
      <use transform="translate(310.058594 0.684375)" xlink:href="#Heebo-Regular-32"/>
      <use transform="translate(334.863281 0.684375)" xlink:href="#Heebo-Regular-114"/>
      <use transform="translate(368.75 0.684375)" xlink:href="#Heebo-Regular-97"/>
      <use transform="translate(423.193359 0.684375)" xlink:href="#Heebo-Regular-116"/>
      <use transform="translate(455.908203 0.684375)" xlink:href="#Heebo-Regular-101"/>
      <use transform="translate(508.984375 0.684375)" xlink:href="#Heebo-Regular-32"/>
      <use transform="translate(533.789062 0.684375)" xlink:href="#Heebo-Regular-91"/>
      <use transform="translate(560.400391 0.684375)" xlink:href="#Heebo-Regular-104"/>
      <use transform="translate(615.478516 0.684375)" xlink:href="#Heebo-Regular-114"/>
      <use transform="translate(650.322266 38.965625)scale(0.7)" xlink:href="#DejaVuSans-8722"/>
      <use transform="translate(708.974609 38.965625)scale(0.7)" xlink:href="#DejaVuSans-49"/>
      <use transform="translate(756.245117 0.684375)" xlink:href="#Heebo-Regular-93"/>
     </g>
    </g>
   </g>
   <g id="LineCollection_1">
    <path clip-path="url(#pc89dea15bf)" d="M 54.609248 81.720116 
L 54.609248 81.110269 
" style="fill:none;stroke:#764f2a;stroke-opacity:0.75;stroke-width:0.75;"/>
    <path clip-path="url(#pc89dea15bf)" d="M 60.827562 80.882914 
L 60.827562 80.435674 
" style="fill:none;stroke:#764f2a;stroke-opacity:0.75;stroke-width:0.75;"/>
    <path clip-path="url(#pc89dea15bf)" d="M 55.601334 82.203837 
L 55.601334 81.676865 
" style="fill:none;stroke:#764f2a;stroke-opacity:0.75;stroke-width:0.75;"/>
    <path clip-path="url(#pc89dea15bf)" d="M 55.089153 79.831878 
L 55.089153 79.327263 
" style="fill:none;stroke:#764f2a;stroke-opacity:0.75;stroke-width:0.75;"/>
    <path clip-path="url(#pc89dea15bf)" d="M 58.752114 82.786653 
L 58.752114 81.523805 
" style="fill:none;stroke:#764f2a;stroke-opacity:0.75;stroke-width:0.75;"/>
   </g>
   <g id="LineCollection_2">
    <path clip-path="url(#pc89dea15bf)" d="M 95.958488 55.639572 
L 95.958488 54.782595 
" style="fill:none;stroke:#688a2f;stroke-opacity:0.75;stroke-width:0.75;"/>
    <path clip-path="url(#pc89dea15bf)" d="M 89.9546 52.397097 
L 89.9546 51.748335 
" style="fill:none;stroke:#688a2f;stroke-opacity:0.75;stroke-width:0.75;"/>
    <path clip-path="url(#pc89dea15bf)" d="M 85.833582 54.794628 
L 85.833582 52.876484 
" style="fill:none;stroke:#688a2f;stroke-opacity:0.75;stroke-width:0.75;"/>
    <path clip-path="url(#pc89dea15bf)" d="M 84.812911 52.673215 
L 84.812911 52.058806 
" style="fill:none;stroke:#688a2f;stroke-opacity:0.75;stroke-width:0.75;"/>
    <path clip-path="url(#pc89dea15bf)" d="M 91.955319 52.794516 
L 91.955319 52.2409 
" style="fill:none;stroke:#688a2f;stroke-opacity:0.75;stroke-width:0.75;"/>
   </g>
   <g id="LineCollection_3">
    <path clip-path="url(#pc89dea15bf)" d="M 116.636154 45.110531 
L 116.636154 43.733543 
" style="fill:none;stroke:#7292c7;stroke-opacity:0.75;stroke-width:0.75;"/>
    <path clip-path="url(#pc89dea15bf)" d="M 140.169535 46.330492 
L 140.169535 45.673405 
" style="fill:none;stroke:#7292c7;stroke-opacity:0.75;stroke-width:0.75;"/>
    <path clip-path="url(#pc89dea15bf)" d="M 127.401822 43.5397 
L 127.401822 42.385764 
" style="fill:none;stroke:#7292c7;stroke-opacity:0.75;stroke-width:0.75;"/>
   </g>
   <g id="LineCollection_4">
    <path clip-path="url(#pc89dea15bf)" d="M 160.732279 39.017943 
L 160.732279 38.195692 
" style="fill:none;stroke:#c76a6a;stroke-opacity:0.75;stroke-width:0.75;"/>
    <path clip-path="url(#pc89dea15bf)" d="M 166.18241 38.896563 
L 166.18241 38.173636 
" style="fill:none;stroke:#c76a6a;stroke-opacity:0.75;stroke-width:0.75;"/>
    <path clip-path="url(#pc89dea15bf)" d="M 165.27701 45.554013 
L 165.27701 44.550188 
" style="fill:none;stroke:#c76a6a;stroke-opacity:0.75;stroke-width:0.75;"/>
   </g>
   <g id="LineCollection_5">
    <path clip-path="url(#pc89dea15bf)" d="M 197.515165 18.568396 
L 197.515165 17.4336 
" style="fill:none;stroke:#7e59a2;stroke-opacity:0.75;stroke-width:0.75;"/>
    <path clip-path="url(#pc89dea15bf)" d="M 202.23316 17.292664 
L 202.23316 15.881576 
" style="fill:none;stroke:#7e59a2;stroke-opacity:0.75;stroke-width:0.75;"/>
    <path clip-path="url(#pc89dea15bf)" d="M 201.579387 17.138579 
L 201.579387 15.538012 
" style="fill:none;stroke:#7e59a2;stroke-opacity:0.75;stroke-width:0.75;"/>
    <path clip-path="url(#pc89dea15bf)" d="M 203.886127 16.413497 
L 203.886127 14.852052 
" style="fill:none;stroke:#7e59a2;stroke-opacity:0.75;stroke-width:0.75;"/>
    <path clip-path="url(#pc89dea15bf)" d="M 200.511034 23.370579 
L 200.511034 17.462837 
" style="fill:none;stroke:#7e59a2;stroke-opacity:0.75;stroke-width:0.75;"/>
    <path clip-path="url(#pc89dea15bf)" d="M 202.490593 24.553873 
L 202.490593 20.154738 
" style="fill:none;stroke:#7e59a2;stroke-opacity:0.75;stroke-width:0.75;"/>
    <path clip-path="url(#pc89dea15bf)" d="M 200.147649 12.184127 
L 200.147649 8.722239 
" style="fill:none;stroke:#7e59a2;stroke-opacity:0.75;stroke-width:0.75;"/>
    <path clip-path="url(#pc89dea15bf)" d="M 202.74246 20.458425 
L 202.74246 17.443819 
" style="fill:none;stroke:#7e59a2;stroke-opacity:0.75;stroke-width:0.75;"/>
    <path clip-path="url(#pc89dea15bf)" d="M 198.204774 16.551628 
L 198.204774 15.617437 
" style="fill:none;stroke:#7e59a2;stroke-opacity:0.75;stroke-width:0.75;"/>
   </g>
   <g id="line2d_12">
    <defs>
     <path d="M 1.5 0 
L -1.5 -0 
" id="m7e65a9a915" style="stroke:#764f2a;stroke-opacity:0.75;stroke-width:0.75;"/>
    </defs>
    <g clip-path="url(#pc89dea15bf)">
     <use style="fill:#764f2a;fill-opacity:0.75;stroke:#764f2a;stroke-opacity:0.75;stroke-width:0.75;" x="54.609248" xlink:href="#m7e65a9a915" y="81.720116"/>
     <use style="fill:#764f2a;fill-opacity:0.75;stroke:#764f2a;stroke-opacity:0.75;stroke-width:0.75;" x="60.827562" xlink:href="#m7e65a9a915" y="80.882914"/>
     <use style="fill:#764f2a;fill-opacity:0.75;stroke:#764f2a;stroke-opacity:0.75;stroke-width:0.75;" x="55.601334" xlink:href="#m7e65a9a915" y="82.203837"/>
     <use style="fill:#764f2a;fill-opacity:0.75;stroke:#764f2a;stroke-opacity:0.75;stroke-width:0.75;" x="55.089153" xlink:href="#m7e65a9a915" y="79.831878"/>
     <use style="fill:#764f2a;fill-opacity:0.75;stroke:#764f2a;stroke-opacity:0.75;stroke-width:0.75;" x="58.752114" xlink:href="#m7e65a9a915" y="82.786653"/>
    </g>
   </g>
   <g id="line2d_13">
    <g clip-path="url(#pc89dea15bf)">
     <use style="fill:#764f2a;fill-opacity:0.75;stroke:#764f2a;stroke-opacity:0.75;stroke-width:0.75;" x="54.609248" xlink:href="#m7e65a9a915" y="81.110269"/>
     <use style="fill:#764f2a;fill-opacity:0.75;stroke:#764f2a;stroke-opacity:0.75;stroke-width:0.75;" x="60.827562" xlink:href="#m7e65a9a915" y="80.435674"/>
     <use style="fill:#764f2a;fill-opacity:0.75;stroke:#764f2a;stroke-opacity:0.75;stroke-width:0.75;" x="55.601334" xlink:href="#m7e65a9a915" y="81.676865"/>
     <use style="fill:#764f2a;fill-opacity:0.75;stroke:#764f2a;stroke-opacity:0.75;stroke-width:0.75;" x="55.089153" xlink:href="#m7e65a9a915" y="79.327263"/>
     <use style="fill:#764f2a;fill-opacity:0.75;stroke:#764f2a;stroke-opacity:0.75;stroke-width:0.75;" x="58.752114" xlink:href="#m7e65a9a915" y="81.523805"/>
    </g>
   </g>
   <g id="line2d_14">
    <defs>
     <path d="M 1.5 0 
L -1.5 -0 
" id="m6eb7a9eb21" style="stroke:#688a2f;stroke-opacity:0.75;stroke-width:0.75;"/>
    </defs>
    <g clip-path="url(#pc89dea15bf)">
     <use style="fill:#688a2f;fill-opacity:0.75;stroke:#688a2f;stroke-opacity:0.75;stroke-width:0.75;" x="95.958488" xlink:href="#m6eb7a9eb21" y="55.639572"/>
     <use style="fill:#688a2f;fill-opacity:0.75;stroke:#688a2f;stroke-opacity:0.75;stroke-width:0.75;" x="89.9546" xlink:href="#m6eb7a9eb21" y="52.397097"/>
     <use style="fill:#688a2f;fill-opacity:0.75;stroke:#688a2f;stroke-opacity:0.75;stroke-width:0.75;" x="85.833582" xlink:href="#m6eb7a9eb21" y="54.794628"/>
     <use style="fill:#688a2f;fill-opacity:0.75;stroke:#688a2f;stroke-opacity:0.75;stroke-width:0.75;" x="84.812911" xlink:href="#m6eb7a9eb21" y="52.673215"/>
     <use style="fill:#688a2f;fill-opacity:0.75;stroke:#688a2f;stroke-opacity:0.75;stroke-width:0.75;" x="91.955319" xlink:href="#m6eb7a9eb21" y="52.794516"/>
    </g>
   </g>
   <g id="line2d_15">
    <g clip-path="url(#pc89dea15bf)">
     <use style="fill:#688a2f;fill-opacity:0.75;stroke:#688a2f;stroke-opacity:0.75;stroke-width:0.75;" x="95.958488" xlink:href="#m6eb7a9eb21" y="54.782595"/>
     <use style="fill:#688a2f;fill-opacity:0.75;stroke:#688a2f;stroke-opacity:0.75;stroke-width:0.75;" x="89.9546" xlink:href="#m6eb7a9eb21" y="51.748335"/>
     <use style="fill:#688a2f;fill-opacity:0.75;stroke:#688a2f;stroke-opacity:0.75;stroke-width:0.75;" x="85.833582" xlink:href="#m6eb7a9eb21" y="52.876484"/>
     <use style="fill:#688a2f;fill-opacity:0.75;stroke:#688a2f;stroke-opacity:0.75;stroke-width:0.75;" x="84.812911" xlink:href="#m6eb7a9eb21" y="52.058806"/>
     <use style="fill:#688a2f;fill-opacity:0.75;stroke:#688a2f;stroke-opacity:0.75;stroke-width:0.75;" x="91.955319" xlink:href="#m6eb7a9eb21" y="52.2409"/>
    </g>
   </g>
   <g id="line2d_16">
    <defs>
     <path d="M 1.5 0 
L -1.5 -0 
" id="mf6f49f34e9" style="stroke:#7292c7;stroke-opacity:0.75;stroke-width:0.75;"/>
    </defs>
    <g clip-path="url(#pc89dea15bf)">
     <use style="fill:#7292c7;fill-opacity:0.75;stroke:#7292c7;stroke-opacity:0.75;stroke-width:0.75;" x="116.636154" xlink:href="#mf6f49f34e9" y="45.110531"/>
     <use style="fill:#7292c7;fill-opacity:0.75;stroke:#7292c7;stroke-opacity:0.75;stroke-width:0.75;" x="140.169535" xlink:href="#mf6f49f34e9" y="46.330492"/>
     <use style="fill:#7292c7;fill-opacity:0.75;stroke:#7292c7;stroke-opacity:0.75;stroke-width:0.75;" x="127.401822" xlink:href="#mf6f49f34e9" y="43.5397"/>
    </g>
   </g>
   <g id="line2d_17">
    <g clip-path="url(#pc89dea15bf)">
     <use style="fill:#7292c7;fill-opacity:0.75;stroke:#7292c7;stroke-opacity:0.75;stroke-width:0.75;" x="116.636154" xlink:href="#mf6f49f34e9" y="43.733543"/>
     <use style="fill:#7292c7;fill-opacity:0.75;stroke:#7292c7;stroke-opacity:0.75;stroke-width:0.75;" x="140.169535" xlink:href="#mf6f49f34e9" y="45.673405"/>
     <use style="fill:#7292c7;fill-opacity:0.75;stroke:#7292c7;stroke-opacity:0.75;stroke-width:0.75;" x="127.401822" xlink:href="#mf6f49f34e9" y="42.385764"/>
    </g>
   </g>
   <g id="line2d_18">
    <defs>
     <path d="M 1.5 0 
L -1.5 -0 
" id="me62c9127c9" style="stroke:#c76a6a;stroke-opacity:0.75;stroke-width:0.75;"/>
    </defs>
    <g clip-path="url(#pc89dea15bf)">
     <use style="fill:#c76a6a;fill-opacity:0.75;stroke:#c76a6a;stroke-opacity:0.75;stroke-width:0.75;" x="160.732279" xlink:href="#me62c9127c9" y="39.017943"/>
     <use style="fill:#c76a6a;fill-opacity:0.75;stroke:#c76a6a;stroke-opacity:0.75;stroke-width:0.75;" x="166.18241" xlink:href="#me62c9127c9" y="38.896563"/>
     <use style="fill:#c76a6a;fill-opacity:0.75;stroke:#c76a6a;stroke-opacity:0.75;stroke-width:0.75;" x="165.27701" xlink:href="#me62c9127c9" y="45.554013"/>
    </g>
   </g>
   <g id="line2d_19">
    <g clip-path="url(#pc89dea15bf)">
     <use style="fill:#c76a6a;fill-opacity:0.75;stroke:#c76a6a;stroke-opacity:0.75;stroke-width:0.75;" x="160.732279" xlink:href="#me62c9127c9" y="38.195692"/>
     <use style="fill:#c76a6a;fill-opacity:0.75;stroke:#c76a6a;stroke-opacity:0.75;stroke-width:0.75;" x="166.18241" xlink:href="#me62c9127c9" y="38.173636"/>
     <use style="fill:#c76a6a;fill-opacity:0.75;stroke:#c76a6a;stroke-opacity:0.75;stroke-width:0.75;" x="165.27701" xlink:href="#me62c9127c9" y="44.550188"/>
    </g>
   </g>
   <g id="line2d_20">
    <defs>
     <path d="M 1.5 0 
L -1.5 -0 
" id="m665c88f132" style="stroke:#7e59a2;stroke-opacity:0.75;stroke-width:0.75;"/>
    </defs>
    <g clip-path="url(#pc89dea15bf)">
     <use style="fill:#7e59a2;fill-opacity:0.75;stroke:#7e59a2;stroke-opacity:0.75;stroke-width:0.75;" x="197.515165" xlink:href="#m665c88f132" y="18.568396"/>
     <use style="fill:#7e59a2;fill-opacity:0.75;stroke:#7e59a2;stroke-opacity:0.75;stroke-width:0.75;" x="202.23316" xlink:href="#m665c88f132" y="17.292664"/>
     <use style="fill:#7e59a2;fill-opacity:0.75;stroke:#7e59a2;stroke-opacity:0.75;stroke-width:0.75;" x="201.579387" xlink:href="#m665c88f132" y="17.138579"/>
     <use style="fill:#7e59a2;fill-opacity:0.75;stroke:#7e59a2;stroke-opacity:0.75;stroke-width:0.75;" x="203.886127" xlink:href="#m665c88f132" y="16.413497"/>
     <use style="fill:#7e59a2;fill-opacity:0.75;stroke:#7e59a2;stroke-opacity:0.75;stroke-width:0.75;" x="200.511034" xlink:href="#m665c88f132" y="23.370579"/>
     <use style="fill:#7e59a2;fill-opacity:0.75;stroke:#7e59a2;stroke-opacity:0.75;stroke-width:0.75;" x="202.490593" xlink:href="#m665c88f132" y="24.553873"/>
     <use style="fill:#7e59a2;fill-opacity:0.75;stroke:#7e59a2;stroke-opacity:0.75;stroke-width:0.75;" x="200.147649" xlink:href="#m665c88f132" y="12.184127"/>
     <use style="fill:#7e59a2;fill-opacity:0.75;stroke:#7e59a2;stroke-opacity:0.75;stroke-width:0.75;" x="202.74246" xlink:href="#m665c88f132" y="20.458425"/>
     <use style="fill:#7e59a2;fill-opacity:0.75;stroke:#7e59a2;stroke-opacity:0.75;stroke-width:0.75;" x="198.204774" xlink:href="#m665c88f132" y="16.551628"/>
    </g>
   </g>
   <g id="line2d_21">
    <g clip-path="url(#pc89dea15bf)">
     <use style="fill:#7e59a2;fill-opacity:0.75;stroke:#7e59a2;stroke-opacity:0.75;stroke-width:0.75;" x="197.515165" xlink:href="#m665c88f132" y="17.4336"/>
     <use style="fill:#7e59a2;fill-opacity:0.75;stroke:#7e59a2;stroke-opacity:0.75;stroke-width:0.75;" x="202.23316" xlink:href="#m665c88f132" y="15.881576"/>
     <use style="fill:#7e59a2;fill-opacity:0.75;stroke:#7e59a2;stroke-opacity:0.75;stroke-width:0.75;" x="201.579387" xlink:href="#m665c88f132" y="15.538012"/>
     <use style="fill:#7e59a2;fill-opacity:0.75;stroke:#7e59a2;stroke-opacity:0.75;stroke-width:0.75;" x="203.886127" xlink:href="#m665c88f132" y="14.852052"/>
     <use style="fill:#7e59a2;fill-opacity:0.75;stroke:#7e59a2;stroke-opacity:0.75;stroke-width:0.75;" x="200.511034" xlink:href="#m665c88f132" y="17.462837"/>
     <use style="fill:#7e59a2;fill-opacity:0.75;stroke:#7e59a2;stroke-opacity:0.75;stroke-width:0.75;" x="202.490593" xlink:href="#m665c88f132" y="20.154738"/>
     <use style="fill:#7e59a2;fill-opacity:0.75;stroke:#7e59a2;stroke-opacity:0.75;stroke-width:0.75;" x="200.147649" xlink:href="#m665c88f132" y="8.722239"/>
     <use style="fill:#7e59a2;fill-opacity:0.75;stroke:#7e59a2;stroke-opacity:0.75;stroke-width:0.75;" x="202.74246" xlink:href="#m665c88f132" y="17.443819"/>
     <use style="fill:#7e59a2;fill-opacity:0.75;stroke:#7e59a2;stroke-opacity:0.75;stroke-width:0.75;" x="198.204774" xlink:href="#m665c88f132" y="15.617437"/>
    </g>
   </g>
   <g id="line2d_22">
    <defs>
     <path d="M 0 2 
C 0.530406 2 1.03916 1.789267 1.414214 1.414214 
C 1.789267 1.03916 2 0.530406 2 0 
C 2 -0.530406 1.789267 -1.03916 1.414214 -1.414214 
C 1.03916 -1.789267 0.530406 -2 0 -2 
C -0.530406 -2 -1.03916 -1.789267 -1.414214 -1.414214 
C -1.789267 -1.03916 -2 -0.530406 -2 0 
C -2 0.530406 -1.789267 1.03916 -1.414214 1.414214 
C -1.03916 1.789267 -0.530406 2 0 2 
z
" id="md607a02ea3" style="stroke:#764f2a;stroke-opacity:0.75;stroke-width:0.75;"/>
    </defs>
    <g clip-path="url(#pc89dea15bf)">
     <use style="fill:#e1bb96;fill-opacity:0.75;stroke:#764f2a;stroke-opacity:0.75;stroke-width:0.75;" x="54.609248" xlink:href="#md607a02ea3" y="81.415192"/>
     <use style="fill:#e1bb96;fill-opacity:0.75;stroke:#764f2a;stroke-opacity:0.75;stroke-width:0.75;" x="60.827562" xlink:href="#md607a02ea3" y="80.659294"/>
     <use style="fill:#e1bb96;fill-opacity:0.75;stroke:#764f2a;stroke-opacity:0.75;stroke-width:0.75;" x="55.601334" xlink:href="#md607a02ea3" y="81.940351"/>
     <use style="fill:#e1bb96;fill-opacity:0.75;stroke:#764f2a;stroke-opacity:0.75;stroke-width:0.75;" x="55.089153" xlink:href="#md607a02ea3" y="79.579571"/>
     <use style="fill:#e1bb96;fill-opacity:0.75;stroke:#764f2a;stroke-opacity:0.75;stroke-width:0.75;" x="58.752114" xlink:href="#md607a02ea3" y="82.155229"/>
    </g>
   </g>
   <g id="line2d_23">
    <defs>
     <path d="M 0 2 
C 0.530406 2 1.03916 1.789267 1.414214 1.414214 
C 1.789267 1.03916 2 0.530406 2 0 
C 2 -0.530406 1.789267 -1.03916 1.414214 -1.414214 
C 1.03916 -1.789267 0.530406 -2 0 -2 
C -0.530406 -2 -1.03916 -1.789267 -1.414214 -1.414214 
C -1.789267 -1.03916 -2 -0.530406 -2 0 
C -2 0.530406 -1.789267 1.03916 -1.414214 1.414214 
C -1.03916 1.789267 -0.530406 2 0 2 
z
" id="mdf9aa590a9" style="stroke:#688a2f;stroke-opacity:0.75;stroke-width:0.75;"/>
    </defs>
    <g clip-path="url(#pc89dea15bf)">
     <use style="fill:#b3cd86;fill-opacity:0.75;stroke:#688a2f;stroke-opacity:0.75;stroke-width:0.75;" x="95.958488" xlink:href="#mdf9aa590a9" y="55.211083"/>
     <use style="fill:#b3cd86;fill-opacity:0.75;stroke:#688a2f;stroke-opacity:0.75;stroke-width:0.75;" x="89.9546" xlink:href="#mdf9aa590a9" y="52.072716"/>
     <use style="fill:#b3cd86;fill-opacity:0.75;stroke:#688a2f;stroke-opacity:0.75;stroke-width:0.75;" x="85.833582" xlink:href="#mdf9aa590a9" y="53.835556"/>
     <use style="fill:#b3cd86;fill-opacity:0.75;stroke:#688a2f;stroke-opacity:0.75;stroke-width:0.75;" x="84.812911" xlink:href="#mdf9aa590a9" y="52.366011"/>
     <use style="fill:#b3cd86;fill-opacity:0.75;stroke:#688a2f;stroke-opacity:0.75;stroke-width:0.75;" x="91.955319" xlink:href="#mdf9aa590a9" y="52.517708"/>
    </g>
   </g>
   <g id="line2d_24">
    <defs>
     <path d="M 0 2 
C 0.530406 2 1.03916 1.789267 1.414214 1.414214 
C 1.789267 1.03916 2 0.530406 2 0 
C 2 -0.530406 1.789267 -1.03916 1.414214 -1.414214 
C 1.03916 -1.789267 0.530406 -2 0 -2 
C -0.530406 -2 -1.03916 -1.789267 -1.414214 -1.414214 
C -1.789267 -1.03916 -2 -0.530406 -2 0 
C -2 0.530406 -1.789267 1.03916 -1.414214 1.414214 
C -1.03916 1.789267 -0.530406 2 0 2 
z
" id="m2eb3b14b7b" style="stroke:#7292c7;stroke-opacity:0.75;stroke-width:0.75;"/>
    </defs>
    <g clip-path="url(#pc89dea15bf)">
     <use style="fill:#a5b3cc;fill-opacity:0.75;stroke:#7292c7;stroke-opacity:0.75;stroke-width:0.75;" x="116.636154" xlink:href="#m2eb3b14b7b" y="44.422037"/>
     <use style="fill:#a5b3cc;fill-opacity:0.75;stroke:#7292c7;stroke-opacity:0.75;stroke-width:0.75;" x="140.169535" xlink:href="#m2eb3b14b7b" y="46.001948"/>
     <use style="fill:#a5b3cc;fill-opacity:0.75;stroke:#7292c7;stroke-opacity:0.75;stroke-width:0.75;" x="127.401822" xlink:href="#m2eb3b14b7b" y="42.962732"/>
    </g>
   </g>
   <g id="line2d_25">
    <defs>
     <path d="M 0 2 
C 0.530406 2 1.03916 1.789267 1.414214 1.414214 
C 1.789267 1.03916 2 0.530406 2 0 
C 2 -0.530406 1.789267 -1.03916 1.414214 -1.414214 
C 1.03916 -1.789267 0.530406 -2 0 -2 
C -0.530406 -2 -1.03916 -1.789267 -1.414214 -1.414214 
C -1.789267 -1.03916 -2 -0.530406 -2 0 
C -2 0.530406 -1.789267 1.03916 -1.414214 1.414214 
C -1.03916 1.789267 -0.530406 2 0 2 
z
" id="m9b404cab66" style="stroke:#c76a6a;stroke-opacity:0.75;stroke-width:0.75;"/>
    </defs>
    <g clip-path="url(#pc89dea15bf)">
     <use style="fill:#e39c9d;fill-opacity:0.75;stroke:#c76a6a;stroke-opacity:0.75;stroke-width:0.75;" x="160.732279" xlink:href="#m9b404cab66" y="38.606817"/>
     <use style="fill:#e39c9d;fill-opacity:0.75;stroke:#c76a6a;stroke-opacity:0.75;stroke-width:0.75;" x="166.18241" xlink:href="#m9b404cab66" y="38.5351"/>
     <use style="fill:#e39c9d;fill-opacity:0.75;stroke:#c76a6a;stroke-opacity:0.75;stroke-width:0.75;" x="165.27701" xlink:href="#m9b404cab66" y="45.052101"/>
    </g>
   </g>
   <g id="line2d_26">
    <defs>
     <path d="M 0 2 
C 0.530406 2 1.03916 1.789267 1.414214 1.414214 
C 1.789267 1.03916 2 0.530406 2 0 
C 2 -0.530406 1.789267 -1.03916 1.414214 -1.414214 
C 1.03916 -1.789267 0.530406 -2 0 -2 
C -0.530406 -2 -1.03916 -1.789267 -1.414214 -1.414214 
C -1.789267 -1.03916 -2 -0.530406 -2 0 
C -2 0.530406 -1.789267 1.03916 -1.414214 1.414214 
C -1.03916 1.789267 -0.530406 2 0 2 
z
" id="mad62b76c01" style="stroke:#7e59a2;stroke-opacity:0.75;stroke-width:0.75;"/>
    </defs>
    <g clip-path="url(#pc89dea15bf)">
     <use style="fill:#a17db8;fill-opacity:0.75;stroke:#7e59a2;stroke-opacity:0.75;stroke-width:0.75;" x="197.515165" xlink:href="#mad62b76c01" y="18.000998"/>
     <use style="fill:#a17db8;fill-opacity:0.75;stroke:#7e59a2;stroke-opacity:0.75;stroke-width:0.75;" x="202.23316" xlink:href="#mad62b76c01" y="16.58712"/>
     <use style="fill:#a17db8;fill-opacity:0.75;stroke:#7e59a2;stroke-opacity:0.75;stroke-width:0.75;" x="201.579387" xlink:href="#mad62b76c01" y="16.338295"/>
     <use style="fill:#a17db8;fill-opacity:0.75;stroke:#7e59a2;stroke-opacity:0.75;stroke-width:0.75;" x="203.886127" xlink:href="#mad62b76c01" y="15.632774"/>
     <use style="fill:#a17db8;fill-opacity:0.75;stroke:#7e59a2;stroke-opacity:0.75;stroke-width:0.75;" x="200.511034" xlink:href="#mad62b76c01" y="20.416708"/>
     <use style="fill:#a17db8;fill-opacity:0.75;stroke:#7e59a2;stroke-opacity:0.75;stroke-width:0.75;" x="202.490593" xlink:href="#mad62b76c01" y="22.354305"/>
     <use style="fill:#a17db8;fill-opacity:0.75;stroke:#7e59a2;stroke-opacity:0.75;stroke-width:0.75;" x="200.147649" xlink:href="#mad62b76c01" y="10.453183"/>
     <use style="fill:#a17db8;fill-opacity:0.75;stroke:#7e59a2;stroke-opacity:0.75;stroke-width:0.75;" x="202.74246" xlink:href="#mad62b76c01" y="18.951122"/>
     <use style="fill:#a17db8;fill-opacity:0.75;stroke:#7e59a2;stroke-opacity:0.75;stroke-width:0.75;" x="198.204774" xlink:href="#mad62b76c01" y="16.084533"/>
    </g>
   </g>
   <g id="patch_3">
    <path d="M 37.18625 88.74 
L 37.18625 7.2 
" style="fill:none;stroke:#444147;stroke-linecap:square;stroke-linejoin:miter;stroke-width:0.45;"/>
   </g>
   <g id="patch_4">
    <path d="M 37.18625 88.74 
L 218.53625 88.74 
" style="fill:none;stroke:#444147;stroke-linecap:square;stroke-linejoin:miter;stroke-width:0.45;"/>
   </g>
  </g>
 </g>
 <defs>
  <clipPath id="pc89dea15bf">
   <rect height="81.54" width="181.35" x="37.18625" y="7.2"/>
  </clipPath>
 </defs>
</svg>
