<?xml version="1.0" encoding="utf-8" standalone="no"?>
<!DOCTYPE svg PUBLIC "-//W3C//DTD SVG 1.1//EN"
  "http://www.w3.org/Graphics/SVG/1.1/DTD/svg11.dtd">
<!-- Created with matplotlib (https://matplotlib.org/) -->
<svg height="147.81625pt" version="1.1" viewBox="0 0 211.16 147.81625" width="211.16pt" xmlns="http://www.w3.org/2000/svg" xmlns:xlink="http://www.w3.org/1999/xlink">
 <defs>
  <style type="text/css">
*{stroke-linecap:butt;stroke-linejoin:round;}
  </style>
 </defs>
 <g id="figure_1">
  <g id="patch_1">
   <path d="M 0 147.81625 
L 211.16 147.81625 
L 211.16 0 
L 0 0 
z
" style="fill:#ffffff;"/>
  </g>
  <g id="axes_1">
   <g id="patch_2">
    <path d="M 36.56 115.92 
L 203.96 115.92 
L 203.96 7.2 
L 36.56 7.2 
z
" style="fill:#efefef;"/>
   </g>
   <g id="matplotlib.axis_1">
    <g id="xtick_1">
     <g id="line2d_1">
      <path clip-path="url(#p2d75aae698)" d="M 36.56 115.92 
L 36.56 7.2 
" style="fill:none;stroke:#ffffff;stroke-linecap:square;stroke-width:0.75;"/>
     </g>
     <g id="line2d_2"/>
     <g id="text_1">
      <!-- $\mathdefault{10^{3}}$ -->
      <defs>
       <path d="M 37.25 0 
L 28.46875 0 
L 28.46875 56 
Q 25.296875 52.984375 20.140625 49.953125 
Q 14.984375 46.921875 10.890625 45.40625 
L 10.890625 53.90625 
Q 18.265625 57.375 23.78125 62.296875 
Q 29.296875 67.234375 31.59375 71.875 
L 37.25 71.875 
z
" id="ArialMT-49"/>
       <path d="M 4.15625 35.296875 
Q 4.15625 48 6.765625 55.734375 
Q 9.375 63.484375 14.515625 67.671875 
Q 19.671875 71.875 27.484375 71.875 
Q 33.25 71.875 37.59375 69.546875 
Q 41.9375 67.234375 44.765625 62.859375 
Q 47.609375 58.5 49.21875 52.21875 
Q 50.828125 45.953125 50.828125 35.296875 
Q 50.828125 22.703125 48.234375 14.96875 
Q 45.65625 7.234375 40.5 3 
Q 35.359375 -1.21875 27.484375 -1.21875 
Q 17.140625 -1.21875 11.234375 6.203125 
Q 4.15625 15.140625 4.15625 35.296875 
z
M 13.1875 35.296875 
Q 13.1875 17.671875 17.3125 11.828125 
Q 21.4375 6 27.484375 6 
Q 33.546875 6 37.671875 11.859375 
Q 41.796875 17.71875 41.796875 35.296875 
Q 41.796875 52.984375 37.671875 58.78125 
Q 33.546875 64.59375 27.390625 64.59375 
Q 21.34375 64.59375 17.71875 59.46875 
Q 13.1875 52.9375 13.1875 35.296875 
z
" id="ArialMT-48"/>
       <path d="M 4.203125 18.890625 
L 12.984375 20.0625 
Q 14.5 12.59375 18.140625 9.296875 
Q 21.78125 6 27 6 
Q 33.203125 6 37.46875 10.296875 
Q 41.75 14.59375 41.75 20.953125 
Q 41.75 27 37.796875 30.921875 
Q 33.84375 34.859375 27.734375 34.859375 
Q 25.25 34.859375 21.53125 33.890625 
L 22.515625 41.609375 
Q 23.390625 41.5 23.921875 41.5 
Q 29.546875 41.5 34.03125 44.421875 
Q 38.53125 47.359375 38.53125 53.46875 
Q 38.53125 58.296875 35.25 61.46875 
Q 31.984375 64.65625 26.8125 64.65625 
Q 21.6875 64.65625 18.265625 61.421875 
Q 14.84375 58.203125 13.875 51.765625 
L 5.078125 53.328125 
Q 6.6875 62.15625 12.390625 67.015625 
Q 18.109375 71.875 26.609375 71.875 
Q 32.46875 71.875 37.390625 69.359375 
Q 42.328125 66.84375 44.9375 62.5 
Q 47.5625 58.15625 47.5625 53.265625 
Q 47.5625 48.640625 45.0625 44.828125 
Q 42.578125 41.015625 37.703125 38.765625 
Q 44.046875 37.3125 47.5625 32.6875 
Q 51.078125 28.078125 51.078125 21.140625 
Q 51.078125 11.765625 44.234375 5.25 
Q 37.40625 -1.265625 26.953125 -1.265625 
Q 17.53125 -1.265625 11.296875 4.34375 
Q 5.078125 9.96875 4.203125 18.890625 
z
" id="ArialMT-51"/>
      </defs>
      <g style="fill:#444147;" transform="translate(31.85 128.1075)scale(0.06 -0.06)">
       <use transform="translate(0 0.99375)" xlink:href="#ArialMT-49"/>
       <use transform="translate(55.615234 0.99375)" xlink:href="#ArialMT-48"/>
       <use transform="translate(112.972813 70.6875)scale(0.7)" xlink:href="#ArialMT-51"/>
      </g>
     </g>
    </g>
    <g id="xtick_2">
     <g id="line2d_3">
      <path clip-path="url(#p2d75aae698)" d="M 109.310029 115.92 
L 109.310029 7.2 
" style="fill:none;stroke:#ffffff;stroke-linecap:square;stroke-width:0.75;"/>
     </g>
     <g id="line2d_4"/>
     <g id="text_2">
      <!-- $\mathdefault{10^{4}}$ -->
      <defs>
       <path d="M 32.328125 0 
L 32.328125 17.140625 
L 1.265625 17.140625 
L 1.265625 25.203125 
L 33.9375 71.578125 
L 41.109375 71.578125 
L 41.109375 25.203125 
L 50.78125 25.203125 
L 50.78125 17.140625 
L 41.109375 17.140625 
L 41.109375 0 
z
M 32.328125 25.203125 
L 32.328125 57.46875 
L 9.90625 25.203125 
z
" id="ArialMT-52"/>
      </defs>
      <g style="fill:#444147;" transform="translate(104.600029 128.0475)scale(0.06 -0.06)">
       <use transform="translate(0 0.201563)" xlink:href="#ArialMT-49"/>
       <use transform="translate(55.615234 0.201563)" xlink:href="#ArialMT-48"/>
       <use transform="translate(112.972813 69.895313)scale(0.7)" xlink:href="#ArialMT-52"/>
      </g>
     </g>
    </g>
    <g id="xtick_3">
     <g id="line2d_5">
      <path clip-path="url(#p2d75aae698)" d="M 182.060059 115.92 
L 182.060059 7.2 
" style="fill:none;stroke:#ffffff;stroke-linecap:square;stroke-width:0.75;"/>
     </g>
     <g id="line2d_6"/>
     <g id="text_3">
      <!-- $\mathdefault{10^{5}}$ -->
      <defs>
       <path d="M 4.15625 18.75 
L 13.375 19.53125 
Q 14.40625 12.796875 18.140625 9.390625 
Q 21.875 6 27.15625 6 
Q 33.5 6 37.890625 10.78125 
Q 42.28125 15.578125 42.28125 23.484375 
Q 42.28125 31 38.0625 35.34375 
Q 33.84375 39.703125 27 39.703125 
Q 22.75 39.703125 19.328125 37.765625 
Q 15.921875 35.84375 13.96875 32.765625 
L 5.71875 33.84375 
L 12.640625 70.609375 
L 48.25 70.609375 
L 48.25 62.203125 
L 19.671875 62.203125 
L 15.828125 42.96875 
Q 22.265625 47.46875 29.34375 47.46875 
Q 38.71875 47.46875 45.15625 40.96875 
Q 51.609375 34.46875 51.609375 24.265625 
Q 51.609375 14.546875 45.953125 7.46875 
Q 39.0625 -1.21875 27.15625 -1.21875 
Q 17.390625 -1.21875 11.203125 4.25 
Q 5.03125 9.71875 4.15625 18.75 
z
" id="ArialMT-53"/>
      </defs>
      <g style="fill:#444147;" transform="translate(177.350059 128.0475)scale(0.06 -0.06)">
       <use transform="translate(0 0.879688)" xlink:href="#ArialMT-49"/>
       <use transform="translate(55.615234 0.879688)" xlink:href="#ArialMT-48"/>
       <use transform="translate(112.972813 70.573438)scale(0.7)" xlink:href="#ArialMT-53"/>
      </g>
     </g>
    </g>
    <g id="xtick_4">
     <g id="line2d_7"/>
    </g>
    <g id="xtick_5">
     <g id="line2d_8"/>
    </g>
    <g id="xtick_6">
     <g id="line2d_9"/>
    </g>
    <g id="xtick_7">
     <g id="line2d_10"/>
    </g>
    <g id="xtick_8">
     <g id="line2d_11"/>
    </g>
    <g id="xtick_9">
     <g id="line2d_12"/>
    </g>
    <g id="xtick_10">
     <g id="line2d_13"/>
    </g>
    <g id="xtick_11">
     <g id="line2d_14"/>
    </g>
    <g id="xtick_12">
     <g id="line2d_15"/>
    </g>
    <g id="xtick_13">
     <g id="line2d_16"/>
    </g>
    <g id="xtick_14">
     <g id="line2d_17"/>
    </g>
    <g id="xtick_15">
     <g id="line2d_18"/>
    </g>
    <g id="xtick_16">
     <g id="line2d_19"/>
    </g>
    <g id="xtick_17">
     <g id="line2d_20"/>
    </g>
    <g id="xtick_18">
     <g id="line2d_21"/>
    </g>
    <g id="xtick_19">
     <g id="line2d_22"/>
    </g>
    <g id="xtick_20">
     <g id="line2d_23"/>
    </g>
    <g id="text_4">
     <!-- $I_1 + I_2$ -->
     <defs>
      <path d="M 29.203125 59.421875 
Q 26.125 58.734375 24.265625 57.90625 
Q 22.40625 57.078125 22.3125 56.390625 
L 15.1875 5.078125 
Q 15.09375 4.5 16.59375 3.640625 
Q 18.109375 2.78125 21.296875 2.09375 
L 21 0 
L 0.984375 0 
L 1.3125 2.09375 
Q 4.390625 2.78125 6.21875 3.578125 
Q 8.0625 4.390625 8.203125 5.078125 
L 15.1875 56.390625 
Q 15.28125 56.984375 13.765625 57.859375 
Q 12.25 58.734375 9.1875 59.421875 
L 9.515625 61.53125 
L 29.5 61.53125 
z
" id="GentiumPlus-Italic-73"/>
      <path d="M 8.296875 0 
L 8.296875 2.59375 
Q 12.109375 3.03125 14.640625 3.59375 
Q 17.1875 4.15625 18.703125 4.734375 
Q 20.21875 5.328125 20.84375 5.890625 
Q 21.484375 6.453125 21.484375 6.984375 
L 21.484375 45.90625 
Q 21.484375 47.859375 21.328125 48.921875 
Q 21.1875 50 20.609375 50.6875 
Q 20.3125 50.984375 19.484375 51.171875 
Q 18.65625 51.375 17.140625 51.3125 
Q 15.625 51.265625 13.328125 50.96875 
Q 11.03125 50.6875 7.8125 50 
L 6.78125 52.484375 
Q 8.84375 53.078125 11.640625 54.09375 
Q 14.453125 55.125 17.328125 56.3125 
Q 20.21875 57.515625 22.796875 58.703125 
Q 25.390625 59.90625 27 60.796875 
L 28.8125 59.078125 
L 28.8125 6.984375 
Q 28.8125 6.5 29.34375 5.9375 
Q 29.890625 5.375 31.25 4.78125 
Q 32.625 4.203125 34.984375 3.609375 
Q 37.359375 3.03125 41.015625 2.59375 
L 41.015625 0 
z
" id="GentiumPlus-49"/>
      <path d="M 23.296875 11.53125 
Q 22.3125 11.03125 21.140625 10.640625 
Q 19.96875 10.25 18.890625 10.015625 
L 17.671875 11.078125 
L 17.671875 24.75 
L 4.203125 24.75 
L 2.984375 25.921875 
Q 3.21875 26.90625 3.625 28.03125 
Q 4.046875 29.15625 4.5 30.125 
L 17.671875 30.125 
L 17.671875 43.5 
Q 18.609375 43.796875 19.828125 44.234375 
Q 21.046875 44.671875 22.125 44.921875 
L 23.296875 43.796875 
L 23.296875 30.125 
L 36.8125 30.125 
L 37.984375 28.953125 
Q 37.75 27.984375 37.328125 26.78125 
Q 36.921875 25.59375 36.53125 24.75 
L 23.296875 24.75 
z
" id="GentiumPlus-43"/>
      <path d="M 40.09375 0 
L 6.203125 0 
L 4.78125 3.609375 
Q 10.59375 10.359375 14.90625 15.53125 
Q 19.234375 20.703125 22.3125 24.671875 
Q 25.390625 28.65625 27.390625 31.65625 
Q 29.390625 34.671875 30.5625 37.03125 
Q 31.734375 39.40625 32.171875 41.328125 
Q 32.625 43.265625 32.625 45.125 
Q 32.625 47.359375 32.078125 49.328125 
Q 31.546875 51.3125 30.375 52.78125 
Q 29.203125 54.25 27.3125 55.078125 
Q 25.4375 55.90625 22.796875 55.90625 
Q 20.796875 55.90625 19.109375 54.921875 
Q 17.4375 53.953125 16.234375 52.46875 
Q 15.046875 50.984375 14.359375 49.140625 
Q 13.671875 47.3125 13.671875 45.609375 
Q 12.84375 45.171875 12.1875 44.78125 
Q 11.53125 44.390625 10.84375 44.0625 
Q 10.15625 43.75 9.34375 43.53125 
Q 8.546875 43.3125 7.421875 43.21875 
L 6.109375 44.671875 
Q 6.109375 47.21875 7.8125 49.96875 
Q 9.515625 52.734375 12.34375 55.03125 
Q 15.1875 57.328125 18.765625 58.8125 
Q 22.359375 60.296875 26.125 60.296875 
Q 29.046875 60.296875 31.609375 59.46875 
Q 34.1875 58.640625 36.078125 56.953125 
Q 37.984375 55.28125 39.078125 52.65625 
Q 40.1875 50.046875 40.1875 46.484375 
Q 40.1875 44.28125 39.546875 42.078125 
Q 38.921875 39.890625 37.578125 37.328125 
Q 36.234375 34.765625 34.109375 31.734375 
Q 31.984375 28.71875 28.953125 24.921875 
Q 25.921875 21.140625 21.9375 16.453125 
Q 17.96875 11.765625 12.984375 5.90625 
L 33.40625 5.90625 
Q 34.234375 5.90625 34.890625 6.265625 
Q 35.546875 6.640625 36.0625 7.25 
Q 36.578125 7.859375 36.9375 8.640625 
Q 37.3125 9.421875 37.546875 10.25 
Q 38.140625 12.15625 38.375 14.59375 
L 40.828125 14.015625 
z
" id="GentiumPlus-50"/>
     </defs>
     <g style="fill:#444147;" transform="translate(112.38 139.02625)scale(0.08 -0.08)">
      <use transform="translate(0 0.46875)" xlink:href="#GentiumPlus-Italic-73"/>
      <use transform="translate(27.978516 -13.242188)scale(0.7)" xlink:href="#GentiumPlus-49"/>
      <use transform="translate(77.53418 0.46875)" xlink:href="#GentiumPlus-43"/>
      <use transform="translate(132.973633 0.46875)" xlink:href="#GentiumPlus-Italic-73"/>
      <use transform="translate(160.952148 -13.242188)scale(0.7)" xlink:href="#GentiumPlus-50"/>
     </g>
    </g>
   </g>
   <g id="matplotlib.axis_2">
    <g id="ytick_1">
     <g id="line2d_24">
      <path clip-path="url(#p2d75aae698)" d="M 36.56 106.762704 
L 203.96 106.762704 
" style="fill:none;stroke:#ffffff;stroke-linecap:square;stroke-width:0.75;"/>
     </g>
     <g id="line2d_25"/>
     <g id="text_5">
      <!-- $\mathdefault{10^{3}}$ -->
      <g style="fill:#444147;" transform="translate(21.14 109.856454)scale(0.06 -0.06)">
       <use transform="translate(0 0.99375)" xlink:href="#ArialMT-49"/>
       <use transform="translate(55.615234 0.99375)" xlink:href="#ArialMT-48"/>
       <use transform="translate(112.972813 70.6875)scale(0.7)" xlink:href="#ArialMT-51"/>
      </g>
     </g>
    </g>
    <g id="ytick_2">
     <g id="line2d_26">
      <path clip-path="url(#p2d75aae698)" d="M 36.56 93.140681 
L 203.96 93.140681 
" style="fill:none;stroke:#ffffff;stroke-linecap:square;stroke-width:0.75;"/>
     </g>
     <g id="line2d_27"/>
     <g id="text_6">
      <!-- $\mathdefault{10^{4}}$ -->
      <g style="fill:#444147;" transform="translate(21.14 96.204431)scale(0.06 -0.06)">
       <use transform="translate(0 0.201563)" xlink:href="#ArialMT-49"/>
       <use transform="translate(55.615234 0.201563)" xlink:href="#ArialMT-48"/>
       <use transform="translate(112.972813 69.895313)scale(0.7)" xlink:href="#ArialMT-52"/>
      </g>
     </g>
    </g>
    <g id="ytick_3">
     <g id="line2d_28">
      <path clip-path="url(#p2d75aae698)" d="M 36.56 79.518658 
L 203.96 79.518658 
" style="fill:none;stroke:#ffffff;stroke-linecap:square;stroke-width:0.75;"/>
     </g>
     <g id="line2d_29"/>
     <g id="text_7">
      <!-- $\mathdefault{10^{5}}$ -->
      <g style="fill:#444147;" transform="translate(21.14 82.582408)scale(0.06 -0.06)">
       <use transform="translate(0 0.879688)" xlink:href="#ArialMT-49"/>
       <use transform="translate(55.615234 0.879688)" xlink:href="#ArialMT-48"/>
       <use transform="translate(112.972813 70.573438)scale(0.7)" xlink:href="#ArialMT-53"/>
      </g>
     </g>
    </g>
    <g id="ytick_4">
     <g id="line2d_30">
      <path clip-path="url(#p2d75aae698)" d="M 36.56 65.896635 
L 203.96 65.896635 
" style="fill:none;stroke:#ffffff;stroke-linecap:square;stroke-width:0.75;"/>
     </g>
     <g id="line2d_31"/>
     <g id="text_8">
      <!-- $\mathdefault{10^{6}}$ -->
      <defs>
       <path d="M 49.75 54.046875 
L 41.015625 53.375 
Q 39.84375 58.546875 37.703125 60.890625 
Q 34.125 64.65625 28.90625 64.65625 
Q 24.703125 64.65625 21.53125 62.3125 
Q 17.390625 59.28125 14.984375 53.46875 
Q 12.59375 47.65625 12.5 36.921875 
Q 15.671875 41.75 20.265625 44.09375 
Q 24.859375 46.4375 29.890625 46.4375 
Q 38.671875 46.4375 44.84375 39.96875 
Q 51.03125 33.5 51.03125 23.25 
Q 51.03125 16.5 48.125 10.71875 
Q 45.21875 4.9375 40.140625 1.859375 
Q 35.0625 -1.21875 28.609375 -1.21875 
Q 17.625 -1.21875 10.6875 6.859375 
Q 3.765625 14.9375 3.765625 33.5 
Q 3.765625 54.25 11.421875 63.671875 
Q 18.109375 71.875 29.4375 71.875 
Q 37.890625 71.875 43.28125 67.140625 
Q 48.6875 62.40625 49.75 54.046875 
z
M 13.875 23.1875 
Q 13.875 18.65625 15.796875 14.5 
Q 17.71875 10.359375 21.1875 8.171875 
Q 24.65625 6 28.46875 6 
Q 34.03125 6 38.03125 10.484375 
Q 42.046875 14.984375 42.046875 22.703125 
Q 42.046875 30.125 38.078125 34.390625 
Q 34.125 38.671875 28.125 38.671875 
Q 22.171875 38.671875 18.015625 34.390625 
Q 13.875 30.125 13.875 23.1875 
z
" id="ArialMT-54"/>
      </defs>
      <g style="fill:#444147;" transform="translate(21.14 68.990385)scale(0.06 -0.06)">
       <use transform="translate(0 0.99375)" xlink:href="#ArialMT-49"/>
       <use transform="translate(55.615234 0.99375)" xlink:href="#ArialMT-48"/>
       <use transform="translate(112.972813 70.6875)scale(0.7)" xlink:href="#ArialMT-54"/>
      </g>
     </g>
    </g>
    <g id="ytick_5">
     <g id="line2d_32">
      <path clip-path="url(#p2d75aae698)" d="M 36.56 52.274611 
L 203.96 52.274611 
" style="fill:none;stroke:#ffffff;stroke-linecap:square;stroke-width:0.75;"/>
     </g>
     <g id="line2d_33"/>
     <g id="text_9">
      <!-- $\mathdefault{10^{7}}$ -->
      <defs>
       <path d="M 4.734375 62.203125 
L 4.734375 70.65625 
L 51.078125 70.65625 
L 51.078125 63.8125 
Q 44.234375 56.546875 37.515625 44.484375 
Q 30.8125 32.421875 27.15625 19.671875 
Q 24.515625 10.6875 23.78125 0 
L 14.75 0 
Q 14.890625 8.453125 18.0625 20.40625 
Q 21.234375 32.375 27.171875 43.484375 
Q 33.109375 54.59375 39.796875 62.203125 
z
" id="ArialMT-55"/>
      </defs>
      <g style="fill:#444147;" transform="translate(21.14 55.338361)scale(0.06 -0.06)">
       <use transform="translate(0 0.846875)" xlink:href="#ArialMT-49"/>
       <use transform="translate(55.615234 0.846875)" xlink:href="#ArialMT-48"/>
       <use transform="translate(112.972813 70.540625)scale(0.7)" xlink:href="#ArialMT-55"/>
      </g>
     </g>
    </g>
    <g id="ytick_6">
     <g id="line2d_34">
      <path clip-path="url(#p2d75aae698)" d="M 36.56 38.652588 
L 203.96 38.652588 
" style="fill:none;stroke:#ffffff;stroke-linecap:square;stroke-width:0.75;"/>
     </g>
     <g id="line2d_35"/>
     <g id="text_10">
      <!-- $\mathdefault{10^{8}}$ -->
      <defs>
       <path d="M 17.671875 38.8125 
Q 12.203125 40.828125 9.5625 44.53125 
Q 6.9375 48.25 6.9375 53.421875 
Q 6.9375 61.234375 12.546875 66.546875 
Q 18.171875 71.875 27.484375 71.875 
Q 36.859375 71.875 42.578125 66.421875 
Q 48.296875 60.984375 48.296875 53.171875 
Q 48.296875 48.1875 45.671875 44.5 
Q 43.0625 40.828125 37.75 38.8125 
Q 44.34375 36.671875 47.78125 31.875 
Q 51.21875 27.09375 51.21875 20.453125 
Q 51.21875 11.28125 44.71875 5.03125 
Q 38.234375 -1.21875 27.640625 -1.21875 
Q 17.046875 -1.21875 10.546875 5.046875 
Q 4.046875 11.328125 4.046875 20.703125 
Q 4.046875 27.6875 7.59375 32.390625 
Q 11.140625 37.109375 17.671875 38.8125 
z
M 15.921875 53.71875 
Q 15.921875 48.640625 19.1875 45.40625 
Q 22.46875 42.1875 27.6875 42.1875 
Q 32.765625 42.1875 36.015625 45.375 
Q 39.265625 48.578125 39.265625 53.21875 
Q 39.265625 58.0625 35.90625 61.359375 
Q 32.5625 64.65625 27.59375 64.65625 
Q 22.5625 64.65625 19.234375 61.421875 
Q 15.921875 58.203125 15.921875 53.71875 
z
M 13.09375 20.65625 
Q 13.09375 16.890625 14.875 13.375 
Q 16.65625 9.859375 20.171875 7.921875 
Q 23.6875 6 27.734375 6 
Q 34.03125 6 38.125 10.046875 
Q 42.234375 14.109375 42.234375 20.359375 
Q 42.234375 26.703125 38.015625 30.859375 
Q 33.796875 35.015625 27.4375 35.015625 
Q 21.234375 35.015625 17.15625 30.90625 
Q 13.09375 26.8125 13.09375 20.65625 
z
" id="ArialMT-56"/>
      </defs>
      <g style="fill:#444147;" transform="translate(21.14 41.746338)scale(0.06 -0.06)">
       <use transform="translate(0 0.99375)" xlink:href="#ArialMT-49"/>
       <use transform="translate(55.615234 0.99375)" xlink:href="#ArialMT-48"/>
       <use transform="translate(112.972813 70.6875)scale(0.7)" xlink:href="#ArialMT-56"/>
      </g>
     </g>
    </g>
    <g id="ytick_7">
     <g id="line2d_36">
      <path clip-path="url(#p2d75aae698)" d="M 36.56 25.030565 
L 203.96 25.030565 
" style="fill:none;stroke:#ffffff;stroke-linecap:square;stroke-width:0.75;"/>
     </g>
     <g id="line2d_37"/>
     <g id="text_11">
      <!-- $\mathdefault{10^{9}}$ -->
      <defs>
       <path d="M 5.46875 16.546875 
L 13.921875 17.328125 
Q 14.984375 11.375 18.015625 8.6875 
Q 21.046875 6 25.78125 6 
Q 29.828125 6 32.875 7.859375 
Q 35.9375 9.71875 37.890625 12.8125 
Q 39.84375 15.921875 41.15625 21.1875 
Q 42.484375 26.46875 42.484375 31.9375 
Q 42.484375 32.515625 42.4375 33.6875 
Q 39.796875 29.5 35.234375 26.875 
Q 30.671875 24.265625 25.34375 24.265625 
Q 16.453125 24.265625 10.296875 30.703125 
Q 4.15625 37.15625 4.15625 47.703125 
Q 4.15625 58.59375 10.578125 65.234375 
Q 17 71.875 26.65625 71.875 
Q 33.640625 71.875 39.421875 68.109375 
Q 45.21875 64.359375 48.21875 57.390625 
Q 51.21875 50.4375 51.21875 37.25 
Q 51.21875 23.53125 48.234375 15.40625 
Q 45.265625 7.28125 39.375 3.03125 
Q 33.5 -1.21875 25.59375 -1.21875 
Q 17.1875 -1.21875 11.859375 3.4375 
Q 6.546875 8.109375 5.46875 16.546875 
z
M 41.453125 48.140625 
Q 41.453125 55.71875 37.421875 60.15625 
Q 33.40625 64.59375 27.734375 64.59375 
Q 21.875 64.59375 17.53125 59.8125 
Q 13.1875 55.03125 13.1875 47.40625 
Q 13.1875 40.578125 17.3125 36.296875 
Q 21.4375 32.03125 27.484375 32.03125 
Q 33.59375 32.03125 37.515625 36.296875 
Q 41.453125 40.578125 41.453125 48.140625 
z
" id="ArialMT-57"/>
      </defs>
      <g style="fill:#444147;" transform="translate(21.14 28.124315)scale(0.06 -0.06)">
       <use transform="translate(0 0.99375)" xlink:href="#ArialMT-49"/>
       <use transform="translate(55.615234 0.99375)" xlink:href="#ArialMT-48"/>
       <use transform="translate(112.972813 70.6875)scale(0.7)" xlink:href="#ArialMT-57"/>
      </g>
     </g>
    </g>
    <g id="ytick_8">
     <g id="line2d_38">
      <path clip-path="url(#p2d75aae698)" d="M 36.56 11.408542 
L 203.96 11.408542 
" style="fill:none;stroke:#ffffff;stroke-linecap:square;stroke-width:0.75;"/>
     </g>
     <g id="line2d_39"/>
     <g id="text_12">
      <!-- $\mathdefault{10^{10}}$ -->
      <g style="fill:#444147;" transform="translate(18.8 14.502292)scale(0.06 -0.06)">
       <use transform="translate(0 0.99375)" xlink:href="#ArialMT-49"/>
       <use transform="translate(55.615234 0.99375)" xlink:href="#ArialMT-48"/>
       <use transform="translate(112.972813 70.6875)scale(0.7)" xlink:href="#ArialMT-49"/>
       <use transform="translate(151.903477 70.6875)scale(0.7)" xlink:href="#ArialMT-48"/>
      </g>
     </g>
    </g>
    <g id="ytick_9">
     <g id="line2d_40"/>
    </g>
    <g id="ytick_10">
     <g id="line2d_41"/>
    </g>
    <g id="ytick_11">
     <g id="line2d_42"/>
    </g>
    <g id="ytick_12">
     <g id="line2d_43"/>
    </g>
    <g id="ytick_13">
     <g id="line2d_44"/>
    </g>
    <g id="ytick_14">
     <g id="line2d_45"/>
    </g>
    <g id="ytick_15">
     <g id="line2d_46"/>
    </g>
    <g id="ytick_16">
     <g id="line2d_47"/>
    </g>
    <g id="ytick_17">
     <g id="line2d_48"/>
    </g>
    <g id="ytick_18">
     <g id="line2d_49"/>
    </g>
    <g id="ytick_19">
     <g id="line2d_50"/>
    </g>
    <g id="ytick_20">
     <g id="line2d_51"/>
    </g>
    <g id="ytick_21">
     <g id="line2d_52"/>
    </g>
    <g id="ytick_22">
     <g id="line2d_53"/>
    </g>
    <g id="ytick_23">
     <g id="line2d_54"/>
    </g>
    <g id="ytick_24">
     <g id="line2d_55"/>
    </g>
    <g id="ytick_25">
     <g id="line2d_56"/>
    </g>
    <g id="ytick_26">
     <g id="line2d_57"/>
    </g>
    <g id="ytick_27">
     <g id="line2d_58"/>
    </g>
    <g id="ytick_28">
     <g id="line2d_59"/>
    </g>
    <g id="ytick_29">
     <g id="line2d_60"/>
    </g>
    <g id="ytick_30">
     <g id="line2d_61"/>
    </g>
    <g id="ytick_31">
     <g id="line2d_62"/>
    </g>
    <g id="ytick_32">
     <g id="line2d_63"/>
    </g>
    <g id="ytick_33">
     <g id="line2d_64"/>
    </g>
    <g id="ytick_34">
     <g id="line2d_65"/>
    </g>
    <g id="ytick_35">
     <g id="line2d_66"/>
    </g>
    <g id="ytick_36">
     <g id="line2d_67"/>
    </g>
    <g id="ytick_37">
     <g id="line2d_68"/>
    </g>
    <g id="ytick_38">
     <g id="line2d_69"/>
    </g>
    <g id="ytick_39">
     <g id="line2d_70"/>
    </g>
    <g id="ytick_40">
     <g id="line2d_71"/>
    </g>
    <g id="ytick_41">
     <g id="line2d_72"/>
    </g>
    <g id="ytick_42">
     <g id="line2d_73"/>
    </g>
    <g id="ytick_43">
     <g id="line2d_74"/>
    </g>
    <g id="ytick_44">
     <g id="line2d_75"/>
    </g>
    <g id="ytick_45">
     <g id="line2d_76"/>
    </g>
    <g id="ytick_46">
     <g id="line2d_77"/>
    </g>
    <g id="ytick_47">
     <g id="line2d_78"/>
    </g>
    <g id="ytick_48">
     <g id="line2d_79"/>
    </g>
    <g id="ytick_49">
     <g id="line2d_80"/>
    </g>
    <g id="ytick_50">
     <g id="line2d_81"/>
    </g>
    <g id="ytick_51">
     <g id="line2d_82"/>
    </g>
    <g id="ytick_52">
     <g id="line2d_83"/>
    </g>
    <g id="ytick_53">
     <g id="line2d_84"/>
    </g>
    <g id="ytick_54">
     <g id="line2d_85"/>
    </g>
    <g id="ytick_55">
     <g id="line2d_86"/>
    </g>
    <g id="ytick_56">
     <g id="line2d_87"/>
    </g>
    <g id="ytick_57">
     <g id="line2d_88"/>
    </g>
    <g id="ytick_58">
     <g id="line2d_89"/>
    </g>
    <g id="ytick_59">
     <g id="line2d_90"/>
    </g>
    <g id="ytick_60">
     <g id="line2d_91"/>
    </g>
    <g id="ytick_61">
     <g id="line2d_92"/>
    </g>
    <g id="ytick_62">
     <g id="line2d_93"/>
    </g>
    <g id="ytick_63">
     <g id="line2d_94"/>
    </g>
    <g id="ytick_64">
     <g id="line2d_95"/>
    </g>
    <g id="ytick_65">
     <g id="line2d_96"/>
    </g>
    <g id="ytick_66">
     <g id="line2d_97"/>
    </g>
    <g id="ytick_67">
     <g id="line2d_98"/>
    </g>
    <g id="ytick_68">
     <g id="line2d_99"/>
    </g>
    <g id="ytick_69">
     <g id="line2d_100"/>
    </g>
    <g id="ytick_70">
     <g id="line2d_101"/>
    </g>
    <g id="ytick_71">
     <g id="line2d_102"/>
    </g>
    <g id="ytick_72">
     <g id="line2d_103"/>
    </g>
    <g id="text_13">
     <!-- $(I_1 - I_2)^2$ -->
     <defs>
      <path d="M 28.21875 -15.375 
Q 22.703125 -12.84375 18.53125 -8.28125 
Q 14.359375 -3.71875 11.546875 2.28125 
Q 8.734375 8.296875 7.3125 15.46875 
Q 5.90625 22.65625 5.90625 30.421875 
Q 5.90625 38.421875 7.484375 45.890625 
Q 9.078125 53.375 12 59.671875 
Q 14.9375 65.96875 19.0625 70.71875 
Q 23.1875 75.484375 28.21875 78.125 
L 29.78125 75.921875 
Q 26.609375 73.296875 23.78125 69 
Q 20.953125 64.703125 18.828125 59.03125 
Q 16.703125 53.375 15.453125 46.484375 
Q 14.203125 39.59375 14.203125 31.78125 
Q 14.203125 24.65625 15.234375 17.890625 
Q 16.265625 11.140625 18.265625 5.25 
Q 20.265625 -0.640625 23.140625 -5.375 
Q 26.03125 -10.109375 29.78125 -13.1875 
z
" id="GentiumPlus-40"/>
      <path d="M 37.984375 29 
Q 37.75 28.03125 37.328125 26.828125 
Q 36.921875 25.640625 36.53125 24.8125 
L 4.203125 24.8125 
L 2.984375 25.984375 
Q 3.21875 26.953125 3.625 28.078125 
Q 4.046875 29.203125 4.5 30.171875 
L 36.8125 30.171875 
z
" id="GentiumPlus-8722"/>
      <path d="M 25.875 32.421875 
Q 25.875 24.359375 24.265625 16.859375 
Q 22.65625 9.375 19.71875 3.078125 
Q 16.796875 -3.21875 12.671875 -7.984375 
Q 8.546875 -12.75 3.515625 -15.375 
L 2 -13.1875 
Q 5.125 -10.546875 7.953125 -6.25 
Q 10.796875 -1.953125 12.9375 3.703125 
Q 15.09375 9.375 16.328125 16.25 
Q 17.578125 23.140625 17.578125 31 
Q 17.578125 38.09375 16.546875 44.84375 
Q 15.53125 51.609375 13.546875 57.515625 
Q 11.578125 63.421875 8.671875 68.15625 
Q 5.765625 72.90625 2 75.921875 
L 3.515625 78.125 
Q 9.03125 75.640625 13.203125 71.0625 
Q 17.390625 66.5 20.21875 60.5 
Q 23.046875 54.5 24.453125 47.34375 
Q 25.875 40.1875 25.875 32.421875 
z
" id="GentiumPlus-41"/>
     </defs>
     <g style="fill:#444147;" transform="translate(13.21 73.4)rotate(-90)scale(0.08 -0.08)">
      <use transform="translate(0 0.875)" xlink:href="#GentiumPlus-40"/>
      <use transform="translate(31.689453 0.875)" xlink:href="#GentiumPlus-Italic-73"/>
      <use transform="translate(59.667969 -12.835938)scale(0.7)" xlink:href="#GentiumPlus-49"/>
      <use transform="translate(109.223633 0.875)" xlink:href="#GentiumPlus-8722"/>
      <use transform="translate(164.663086 0.875)" xlink:href="#GentiumPlus-Italic-73"/>
      <use transform="translate(192.641602 -12.835938)scale(0.7)" xlink:href="#GentiumPlus-50"/>
      <use transform="translate(227.773438 0.875)" xlink:href="#GentiumPlus-41"/>
      <use transform="translate(260.262695 32.867188)scale(0.7)" xlink:href="#GentiumPlus-50"/>
     </g>
    </g>
   </g>
   <g id="PolyCollection_1">
    <path clip-path="url(#p2d75aae698)" d="M -108.940059 90.987573 
L -108.940059 89.998022 
L -106.746591 89.587307 
L -104.553122 89.176593 
L -102.359654 88.765879 
L -100.166186 88.355164 
L -97.972718 87.94445 
L -95.77925 87.533736 
L -93.585781 87.123022 
L -91.392313 86.712307 
L -89.198845 86.301593 
L -87.005377 85.890879 
L -84.811908 85.480165 
L -82.61844 85.06945 
L -80.424972 84.658736 
L -78.231504 84.248022 
L -76.038036 83.837308 
L -73.844567 83.426593 
L -71.651099 83.015879 
L -69.457631 82.605165 
L -67.264163 82.19445 
L -65.070694 81.783736 
L -62.877226 81.373022 
L -60.683758 80.962308 
L -58.49029 80.551593 
L -56.296822 80.140879 
L -54.103353 79.730165 
L -51.909885 79.319451 
L -49.716417 78.908736 
L -47.522949 78.498022 
L -45.32948 78.087308 
L -43.136012 77.676594 
L -40.942544 77.265879 
L -38.749076 76.855165 
L -36.555608 76.444451 
L -34.362139 76.033736 
L -32.168671 75.623022 
L -29.975203 75.212308 
L -27.781735 74.801594 
L -25.588266 74.390879 
L -23.394798 73.980165 
L -21.20133 73.569451 
L -19.007862 73.158737 
L -16.814393 72.748022 
L -14.620925 72.337308 
L -12.427457 71.926594 
L -10.233989 71.51588 
L -8.040521 71.105165 
L -5.847052 70.694451 
L -3.653584 70.283737 
L -1.460116 69.873022 
L 0.733352 69.462308 
L 2.926821 69.051594 
L 5.120289 68.64088 
L 7.313757 68.230165 
L 9.507225 67.819451 
L 11.700693 67.408737 
L 13.894162 66.998023 
L 16.08763 66.587308 
L 18.281098 66.176594 
L 20.474566 65.76588 
L 22.668035 65.355166 
L 24.861503 64.944451 
L 27.054971 64.533737 
L 29.248439 64.123023 
L 31.441907 63.712308 
L 33.635376 63.301594 
L 35.828844 62.89088 
L 38.022312 62.480166 
L 40.21578 62.069451 
L 42.409249 61.658737 
L 44.602717 61.248023 
L 46.796185 60.837309 
L 48.989653 60.426594 
L 51.183122 60.01588 
L 53.37659 59.605166 
L 55.570058 59.194451 
L 57.763526 58.783737 
L 59.956994 58.373023 
L 62.150463 57.962309 
L 64.343931 57.551594 
L 66.537399 57.14088 
L 68.730867 56.730166 
L 70.924336 56.319452 
L 73.117804 55.908737 
L 75.311272 55.498023 
L 77.50474 55.087309 
L 79.698208 54.676595 
L 81.891677 54.26588 
L 84.085145 53.855166 
L 86.278613 53.444452 
L 88.472081 53.033737 
L 90.66555 52.623023 
L 92.859018 52.212309 
L 95.052486 51.801595 
L 97.245954 51.39088 
L 99.439422 50.980166 
L 101.632891 50.569452 
L 103.826359 50.158738 
L 106.019827 49.748023 
L 108.213295 49.337309 
L 110.406764 48.926595 
L 112.600232 48.515881 
L 114.7937 48.105166 
L 116.987168 47.694452 
L 119.180636 47.283738 
L 121.374105 46.873023 
L 123.567573 46.462309 
L 125.761041 46.051595 
L 127.954509 45.640881 
L 130.147978 45.230166 
L 132.341446 44.819452 
L 134.534914 44.408738 
L 136.728382 43.998024 
L 138.921851 43.587309 
L 141.115319 43.176595 
L 143.308787 42.765881 
L 145.502255 42.355167 
L 147.695723 41.944452 
L 149.889192 41.533738 
L 152.08266 41.123024 
L 154.276128 40.712309 
L 156.469596 40.301595 
L 158.663065 39.890881 
L 160.856533 39.480167 
L 163.050001 39.069452 
L 165.243469 38.658738 
L 167.436937 38.248024 
L 169.630406 37.83731 
L 171.823874 37.426595 
L 174.017342 37.015881 
L 176.21081 36.605167 
L 178.404279 36.194453 
L 180.597747 35.783738 
L 182.791215 35.373024 
L 184.984683 34.96231 
L 187.178151 34.551595 
L 189.37162 34.140881 
L 191.565088 33.730167 
L 193.758556 33.319453 
L 195.952024 32.908738 
L 198.145493 32.498024 
L 200.338961 32.08731 
L 202.532429 31.676596 
L 204.725897 31.265881 
L 206.919365 30.855167 
L 209.112834 30.444453 
L 211.306302 30.033739 
L 213.49977 29.623024 
L 215.693238 29.21231 
L 217.886707 28.801596 
L 220.080175 28.390881 
L 222.273643 27.980167 
L 224.467111 27.569453 
L 226.66058 27.158739 
L 228.854048 26.748024 
L 231.047516 26.33731 
L 233.240984 25.926596 
L 235.434452 25.515882 
L 237.627921 25.105167 
L 239.821389 24.694453 
L 242.014857 24.283739 
L 244.208325 23.873025 
L 246.401794 23.46231 
L 248.595262 23.051596 
L 250.78873 22.640882 
L 252.982198 22.230167 
L 255.175666 21.819453 
L 257.369135 21.408739 
L 259.562603 20.998025 
L 261.756071 20.58731 
L 263.949539 20.176596 
L 266.143008 19.765882 
L 268.336476 19.355168 
L 270.529944 18.944453 
L 272.723412 18.533739 
L 274.91688 18.123025 
L 277.110349 17.71231 
L 279.303817 17.301596 
L 281.497285 16.890882 
L 283.690753 16.480168 
L 285.884222 16.069453 
L 288.07769 15.658739 
L 290.271158 15.248025 
L 292.464626 14.837311 
L 294.658095 14.426596 
L 296.851563 14.015882 
L 299.045031 13.605168 
L 301.238499 13.194454 
L 303.431967 12.783739 
L 305.625436 12.373025 
L 307.818904 11.962311 
L 310.012372 11.551596 
L 312.20584 11.140882 
L 314.399309 10.730168 
L 316.592777 10.319454 
L 318.786245 9.908739 
L 320.979713 9.498025 
L 323.173181 9.087311 
L 325.36665 8.676597 
L 327.560118 8.265882 
L 327.560118 9.255434 
L 327.560118 9.255434 
L 325.36665 9.666148 
L 323.173181 10.076863 
L 320.979713 10.487577 
L 318.786245 10.898291 
L 316.592777 11.309005 
L 314.399309 11.71972 
L 312.20584 12.130434 
L 310.012372 12.541148 
L 307.818904 12.951862 
L 305.625436 13.362577 
L 303.431967 13.773291 
L 301.238499 14.184005 
L 299.045031 14.59472 
L 296.851563 15.005434 
L 294.658095 15.416148 
L 292.464626 15.826862 
L 290.271158 16.237577 
L 288.07769 16.648291 
L 285.884222 17.059005 
L 283.690753 17.469719 
L 281.497285 17.880434 
L 279.303817 18.291148 
L 277.110349 18.701862 
L 274.91688 19.112576 
L 272.723412 19.523291 
L 270.529944 19.934005 
L 268.336476 20.344719 
L 266.143008 20.755434 
L 263.949539 21.166148 
L 261.756071 21.576862 
L 259.562603 21.987576 
L 257.369135 22.398291 
L 255.175666 22.809005 
L 252.982198 23.219719 
L 250.78873 23.630433 
L 248.595262 24.041148 
L 246.401794 24.451862 
L 244.208325 24.862576 
L 242.014857 25.27329 
L 239.821389 25.684005 
L 237.627921 26.094719 
L 235.434452 26.505433 
L 233.240984 26.916148 
L 231.047516 27.326862 
L 228.854048 27.737576 
L 226.66058 28.14829 
L 224.467111 28.559005 
L 222.273643 28.969719 
L 220.080175 29.380433 
L 217.886707 29.791147 
L 215.693238 30.201862 
L 213.49977 30.612576 
L 211.306302 31.02329 
L 209.112834 31.434004 
L 206.919365 31.844719 
L 204.725897 32.255433 
L 202.532429 32.666147 
L 200.338961 33.076862 
L 198.145493 33.487576 
L 195.952024 33.89829 
L 193.758556 34.309004 
L 191.565088 34.719719 
L 189.37162 35.130433 
L 187.178151 35.541147 
L 184.984683 35.951861 
L 182.791215 36.362576 
L 180.597747 36.77329 
L 178.404279 37.184004 
L 176.21081 37.594719 
L 174.017342 38.005433 
L 171.823874 38.416147 
L 169.630406 38.826861 
L 167.436937 39.237576 
L 165.243469 39.64829 
L 163.050001 40.059004 
L 160.856533 40.469718 
L 158.663065 40.880433 
L 156.469596 41.291147 
L 154.276128 41.701861 
L 152.08266 42.112575 
L 149.889192 42.52329 
L 147.695723 42.934004 
L 145.502255 43.344718 
L 143.308787 43.755433 
L 141.115319 44.166147 
L 138.921851 44.576861 
L 136.728382 44.987575 
L 134.534914 45.39829 
L 132.341446 45.809004 
L 130.147978 46.219718 
L 127.954509 46.630432 
L 125.761041 47.041147 
L 123.567573 47.451861 
L 121.374105 47.862575 
L 119.180636 48.273289 
L 116.987168 48.684004 
L 114.7937 49.094718 
L 112.600232 49.505432 
L 110.406764 49.916147 
L 108.213295 50.326861 
L 106.019827 50.737575 
L 103.826359 51.148289 
L 101.632891 51.559004 
L 99.439422 51.969718 
L 97.245954 52.380432 
L 95.052486 52.791146 
L 92.859018 53.201861 
L 90.66555 53.612575 
L 88.472081 54.023289 
L 86.278613 54.434003 
L 84.085145 54.844718 
L 81.891677 55.255432 
L 79.698208 55.666146 
L 77.50474 56.076861 
L 75.311272 56.487575 
L 73.117804 56.898289 
L 70.924336 57.309003 
L 68.730867 57.719718 
L 66.537399 58.130432 
L 64.343931 58.541146 
L 62.150463 58.95186 
L 59.956994 59.362575 
L 57.763526 59.773289 
L 55.570058 60.184003 
L 53.37659 60.594717 
L 51.183122 61.005432 
L 48.989653 61.416146 
L 46.796185 61.82686 
L 44.602717 62.237575 
L 42.409249 62.648289 
L 40.21578 63.059003 
L 38.022312 63.469717 
L 35.828844 63.880432 
L 33.635376 64.291146 
L 31.441907 64.70186 
L 29.248439 65.112574 
L 27.054971 65.523289 
L 24.861503 65.934003 
L 22.668035 66.344717 
L 20.474566 66.755431 
L 18.281098 67.166146 
L 16.08763 67.57686 
L 13.894162 67.987574 
L 11.700693 68.398289 
L 9.507225 68.809003 
L 7.313757 69.219717 
L 5.120289 69.630431 
L 2.926821 70.041146 
L 0.733352 70.45186 
L -1.460116 70.862574 
L -3.653584 71.273288 
L -5.847052 71.684003 
L -8.040521 72.094717 
L -10.233989 72.505431 
L -12.427457 72.916145 
L -14.620925 73.32686 
L -16.814393 73.737574 
L -19.007862 74.148288 
L -21.20133 74.559003 
L -23.394798 74.969717 
L -25.588266 75.380431 
L -27.781735 75.791145 
L -29.975203 76.20186 
L -32.168671 76.612574 
L -34.362139 77.023288 
L -36.555608 77.434002 
L -38.749076 77.844717 
L -40.942544 78.255431 
L -43.136012 78.666145 
L -45.32948 79.076859 
L -47.522949 79.487574 
L -49.716417 79.898288 
L -51.909885 80.309002 
L -54.103353 80.719717 
L -56.296822 81.130431 
L -58.49029 81.541145 
L -60.683758 81.951859 
L -62.877226 82.362574 
L -65.070694 82.773288 
L -67.264163 83.184002 
L -69.457631 83.594716 
L -71.651099 84.005431 
L -73.844567 84.416145 
L -76.038036 84.826859 
L -78.231504 85.237574 
L -80.424972 85.648288 
L -82.61844 86.059002 
L -84.811908 86.469716 
L -87.005377 86.880431 
L -89.198845 87.291145 
L -91.392313 87.701859 
L -93.585781 88.112573 
L -95.77925 88.523288 
L -97.972718 88.934002 
L -100.166186 89.344716 
L -102.359654 89.75543 
L -104.553122 90.166145 
L -106.746591 90.576859 
L -108.940059 90.987573 
z
" style="fill:#c76a6a;fill-opacity:0.25;stroke:#c76a6a;stroke-opacity:0.25;"/>
   </g>
   <g id="line2d_104">
    <defs>
     <path d="M 0 0.1875 
C 0.049726 0.1875 0.097421 0.167744 0.132583 0.132583 
C 0.167744 0.097421 0.1875 0.049726 0.1875 0 
C 0.1875 -0.049726 0.167744 -0.097421 0.132583 -0.132583 
C 0.097421 -0.167744 0.049726 -0.1875 0 -0.1875 
C -0.049726 -0.1875 -0.097421 -0.167744 -0.132583 -0.132583 
C -0.167744 -0.097421 -0.1875 -0.049726 -0.1875 0 
C -0.1875 0.049726 -0.167744 0.097421 -0.132583 0.132583 
C -0.097421 0.167744 -0.049726 0.1875 0 0.1875 
z
" id="m6538578ee8" style="stroke:#444147;"/>
    </defs>
    <g clip-path="url(#p2d75aae698)">
     <use style="fill:#444147;stroke:#444147;" x="127.323238" xlink:href="#m6538578ee8" y="39.374852"/>
     <use style="fill:#444147;stroke:#444147;" x="150.130705" xlink:href="#m6538578ee8" y="37.260923"/>
     <use style="fill:#444147;stroke:#444147;" x="160.158799" xlink:href="#m6538578ee8" y="44.017263"/>
     <use style="fill:#444147;stroke:#444147;" x="145.617435" xlink:href="#m6538578ee8" y="40.691755"/>
     <use style="fill:#444147;stroke:#444147;" x="150.397275" xlink:href="#m6538578ee8" y="61.486397"/>
     <use style="fill:#444147;stroke:#444147;" x="100.630434" xlink:href="#m6538578ee8" y="46.668152"/>
     <use style="fill:#444147;stroke:#444147;" x="166.596139" xlink:href="#m6538578ee8" y="48.523734"/>
     <use style="fill:#444147;stroke:#444147;" x="179.696855" xlink:href="#m6538578ee8" y="44.77207"/>
     <use style="fill:#444147;stroke:#444147;" x="171.225615" xlink:href="#m6538578ee8" y="41.116093"/>
     <use style="fill:#444147;stroke:#444147;" x="166.212157" xlink:href="#m6538578ee8" y="54.552421"/>
     <use style="fill:#444147;stroke:#444147;" x="149.002308" xlink:href="#m6538578ee8" y="38.2259"/>
     <use style="fill:#444147;stroke:#444147;" x="154.843331" xlink:href="#m6538578ee8" y="66.801323"/>
     <use style="fill:#444147;stroke:#444147;" x="157.720479" xlink:href="#m6538578ee8" y="51.976953"/>
     <use style="fill:#444147;stroke:#444147;" x="158.366695" xlink:href="#m6538578ee8" y="97.95288"/>
     <use style="fill:#444147;stroke:#444147;" x="148.924776" xlink:href="#m6538578ee8" y="54.575767"/>
     <use style="fill:#444147;stroke:#444147;" x="159.31586" xlink:href="#m6538578ee8" y="44.534178"/>
     <use style="fill:#444147;stroke:#444147;" x="161.976774" xlink:href="#m6538578ee8" y="58.140468"/>
     <use style="fill:#444147;stroke:#444147;" x="162.988944" xlink:href="#m6538578ee8" y="42.425281"/>
     <use style="fill:#444147;stroke:#444147;" x="171.819545" xlink:href="#m6538578ee8" y="66.856316"/>
     <use style="fill:#444147;stroke:#444147;" x="127.286474" xlink:href="#m6538578ee8" y="49.532479"/>
     <use style="fill:#444147;stroke:#444147;" x="180.633936" xlink:href="#m6538578ee8" y="34.683472"/>
     <use style="fill:#444147;stroke:#444147;" x="140.510605" xlink:href="#m6538578ee8" y="43.571403"/>
     <use style="fill:#444147;stroke:#444147;" x="157.901548" xlink:href="#m6538578ee8" y="64.798469"/>
     <use style="fill:#444147;stroke:#444147;" x="178.369779" xlink:href="#m6538578ee8" y="66.659196"/>
     <use style="fill:#444147;stroke:#444147;" x="161.30622" xlink:href="#m6538578ee8" y="46.782214"/>
     <use style="fill:#444147;stroke:#444147;" x="152.210487" xlink:href="#m6538578ee8" y="53.907365"/>
     <use style="fill:#444147;stroke:#444147;" x="161.614148" xlink:href="#m6538578ee8" y="55.714908"/>
     <use style="fill:#444147;stroke:#444147;" x="170.389709" xlink:href="#m6538578ee8" y="57.746233"/>
     <use style="fill:#444147;stroke:#444147;" x="159.508488" xlink:href="#m6538578ee8" y="37.643344"/>
     <use style="fill:#444147;stroke:#444147;" x="163.060291" xlink:href="#m6538578ee8" y="63.228051"/>
     <use style="fill:#444147;stroke:#444147;" x="114.520368" xlink:href="#m6538578ee8" y="40.140983"/>
     <use style="fill:#444147;stroke:#444147;" x="118.111158" xlink:href="#m6538578ee8" y="74.40874"/>
     <use style="fill:#444147;stroke:#444147;" x="122.36952" xlink:href="#m6538578ee8" y="64.450188"/>
     <use style="fill:#444147;stroke:#444147;" x="157.244623" xlink:href="#m6538578ee8" y="76.145503"/>
     <use style="fill:#444147;stroke:#444147;" x="151.862854" xlink:href="#m6538578ee8" y="56.242104"/>
     <use style="fill:#444147;stroke:#444147;" x="122.583393" xlink:href="#m6538578ee8" y="66.345785"/>
     <use style="fill:#444147;stroke:#444147;" x="107.425505" xlink:href="#m6538578ee8" y="66.913293"/>
     <use style="fill:#444147;stroke:#444147;" x="116.88844" xlink:href="#m6538578ee8" y="50.008719"/>
     <use style="fill:#444147;stroke:#444147;" x="143.633908" xlink:href="#m6538578ee8" y="72.447749"/>
     <use style="fill:#444147;stroke:#444147;" x="125.647919" xlink:href="#m6538578ee8" y="59.326157"/>
     <use style="fill:#444147;stroke:#444147;" x="130.340945" xlink:href="#m6538578ee8" y="62.557296"/>
     <use style="fill:#444147;stroke:#444147;" x="148.776158" xlink:href="#m6538578ee8" y="36.78706"/>
     <use style="fill:#444147;stroke:#444147;" x="121.531643" xlink:href="#m6538578ee8" y="41.625232"/>
     <use style="fill:#444147;stroke:#444147;" x="100.320972" xlink:href="#m6538578ee8" y="44.108285"/>
     <use style="fill:#444147;stroke:#444147;" x="147.787339" xlink:href="#m6538578ee8" y="69.957537"/>
     <use style="fill:#444147;stroke:#444147;" x="160.457302" xlink:href="#m6538578ee8" y="37.277039"/>
     <use style="fill:#444147;stroke:#444147;" x="122.609256" xlink:href="#m6538578ee8" y="39.366937"/>
     <use style="fill:#444147;stroke:#444147;" x="100.461241" xlink:href="#m6538578ee8" y="43.166469"/>
     <use style="fill:#444147;stroke:#444147;" x="183.643296" xlink:href="#m6538578ee8" y="47.462127"/>
     <use style="fill:#444147;stroke:#444147;" x="117.455643" xlink:href="#m6538578ee8" y="49.566896"/>
     <use style="fill:#444147;stroke:#444147;" x="145.450657" xlink:href="#m6538578ee8" y="52.656425"/>
     <use style="fill:#444147;stroke:#444147;" x="161.216437" xlink:href="#m6538578ee8" y="45.297671"/>
     <use style="fill:#444147;stroke:#444147;" x="145.667637" xlink:href="#m6538578ee8" y="47.724714"/>
     <use style="fill:#444147;stroke:#444147;" x="162.551542" xlink:href="#m6538578ee8" y="41.05924"/>
     <use style="fill:#444147;stroke:#444147;" x="156.606986" xlink:href="#m6538578ee8" y="47.849995"/>
     <use style="fill:#444147;stroke:#444147;" x="131.371605" xlink:href="#m6538578ee8" y="51.342534"/>
     <use style="fill:#444147;stroke:#444147;" x="121.336925" xlink:href="#m6538578ee8" y="53.353005"/>
     <use style="fill:#444147;stroke:#444147;" x="144.308367" xlink:href="#m6538578ee8" y="44.187945"/>
     <use style="fill:#444147;stroke:#444147;" x="150.06908" xlink:href="#m6538578ee8" y="65.576139"/>
     <use style="fill:#444147;stroke:#444147;" x="181.413887" xlink:href="#m6538578ee8" y="28.216141"/>
     <use style="fill:#444147;stroke:#444147;" x="183.303252" xlink:href="#m6538578ee8" y="28.906726"/>
     <use style="fill:#444147;stroke:#444147;" x="144.986338" xlink:href="#m6538578ee8" y="57.169593"/>
     <use style="fill:#444147;stroke:#444147;" x="174.387208" xlink:href="#m6538578ee8" y="28.254023"/>
     <use style="fill:#444147;stroke:#444147;" x="170.573441" xlink:href="#m6538578ee8" y="83.206533"/>
     <use style="fill:#444147;stroke:#444147;" x="177.663806" xlink:href="#m6538578ee8" y="61.964172"/>
     <use style="fill:#444147;stroke:#444147;" x="180.866179" xlink:href="#m6538578ee8" y="69.28851"/>
     <use style="fill:#444147;stroke:#444147;" x="171.198797" xlink:href="#m6538578ee8" y="41.551474"/>
     <use style="fill:#444147;stroke:#444147;" x="170.984758" xlink:href="#m6538578ee8" y="39.1166"/>
     <use style="fill:#444147;stroke:#444147;" x="141.317205" xlink:href="#m6538578ee8" y="39.318067"/>
     <use style="fill:#444147;stroke:#444147;" x="164.141276" xlink:href="#m6538578ee8" y="48.551929"/>
     <use style="fill:#444147;stroke:#444147;" x="165.829136" xlink:href="#m6538578ee8" y="32.910238"/>
     <use style="fill:#444147;stroke:#444147;" x="163.515298" xlink:href="#m6538578ee8" y="114.854118"/>
     <use style="fill:#444147;stroke:#444147;" x="162.9941" xlink:href="#m6538578ee8" y="35.949272"/>
     <use style="fill:#444147;stroke:#444147;" x="179.285296" xlink:href="#m6538578ee8" y="47.201142"/>
     <use style="fill:#444147;stroke:#444147;" x="135.77328" xlink:href="#m6538578ee8" y="61.895827"/>
     <use style="fill:#444147;stroke:#444147;" x="105.186426" xlink:href="#m6538578ee8" y="70.644551"/>
     <use style="fill:#444147;stroke:#444147;" x="152.399762" xlink:href="#m6538578ee8" y="46.47861"/>
     <use style="fill:#444147;stroke:#444147;" x="160.930478" xlink:href="#m6538578ee8" y="56.369042"/>
     <use style="fill:#444147;stroke:#444147;" x="163.122047" xlink:href="#m6538578ee8" y="39.833455"/>
     <use style="fill:#444147;stroke:#444147;" x="170.859676" xlink:href="#m6538578ee8" y="30.882949"/>
     <use style="fill:#444147;stroke:#444147;" x="156.155968" xlink:href="#m6538578ee8" y="34.251452"/>
     <use style="fill:#444147;stroke:#444147;" x="131.404737" xlink:href="#m6538578ee8" y="37.99771"/>
     <use style="fill:#444147;stroke:#444147;" x="165.667354" xlink:href="#m6538578ee8" y="55.949048"/>
     <use style="fill:#444147;stroke:#444147;" x="170.34391" xlink:href="#m6538578ee8" y="31.106495"/>
     <use style="fill:#444147;stroke:#444147;" x="171.540356" xlink:href="#m6538578ee8" y="36.64075"/>
     <use style="fill:#444147;stroke:#444147;" x="166.849273" xlink:href="#m6538578ee8" y="39.152348"/>
     <use style="fill:#444147;stroke:#444147;" x="155.496507" xlink:href="#m6538578ee8" y="32.600043"/>
     <use style="fill:#444147;stroke:#444147;" x="151.519016" xlink:href="#m6538578ee8" y="40.336194"/>
     <use style="fill:#444147;stroke:#444147;" x="168.839038" xlink:href="#m6538578ee8" y="41.645517"/>
     <use style="fill:#444147;stroke:#444147;" x="167.926968" xlink:href="#m6538578ee8" y="56.749876"/>
     <use style="fill:#444147;stroke:#444147;" x="190.628385" xlink:href="#m6538578ee8" y="55.75768"/>
     <use style="fill:#444147;stroke:#444147;" x="142.113382" xlink:href="#m6538578ee8" y="39.494954"/>
     <use style="fill:#444147;stroke:#444147;" x="133.434677" xlink:href="#m6538578ee8" y="52.9713"/>
     <use style="fill:#444147;stroke:#444147;" x="151.409965" xlink:href="#m6538578ee8" y="51.877917"/>
     <use style="fill:#444147;stroke:#444147;" x="80.685252" xlink:href="#m6538578ee8" y="49.729895"/>
     <use style="fill:#444147;stroke:#444147;" x="50.162544" xlink:href="#m6538578ee8" y="65.533406"/>
     <use style="fill:#444147;stroke:#444147;" x="131.653207" xlink:href="#m6538578ee8" y="49.787842"/>
     <use style="fill:#444147;stroke:#444147;" x="167.400389" xlink:href="#m6538578ee8" y="42.391169"/>
     <use style="fill:#444147;stroke:#444147;" x="133.362834" xlink:href="#m6538578ee8" y="53.349337"/>
     <use style="fill:#444147;stroke:#444147;" x="159.379664" xlink:href="#m6538578ee8" y="43.969733"/>
     <use style="fill:#444147;stroke:#444147;" x="185.591488" xlink:href="#m6538578ee8" y="37.691435"/>
     <use style="fill:#444147;stroke:#444147;" x="185.721728" xlink:href="#m6538578ee8" y="51.911209"/>
     <use style="fill:#444147;stroke:#444147;" x="151.63901" xlink:href="#m6538578ee8" y="65.919741"/>
     <use style="fill:#444147;stroke:#444147;" x="161.46962" xlink:href="#m6538578ee8" y="45.33031"/>
     <use style="fill:#444147;stroke:#444147;" x="157.054637" xlink:href="#m6538578ee8" y="33.246563"/>
     <use style="fill:#444147;stroke:#444147;" x="159.236866" xlink:href="#m6538578ee8" y="31.435661"/>
     <use style="fill:#444147;stroke:#444147;" x="169.601003" xlink:href="#m6538578ee8" y="38.742842"/>
     <use style="fill:#444147;stroke:#444147;" x="158.266465" xlink:href="#m6538578ee8" y="51.722679"/>
     <use style="fill:#444147;stroke:#444147;" x="153.403593" xlink:href="#m6538578ee8" y="40.68147"/>
     <use style="fill:#444147;stroke:#444147;" x="139.798638" xlink:href="#m6538578ee8" y="48.016992"/>
     <use style="fill:#444147;stroke:#444147;" x="136.168511" xlink:href="#m6538578ee8" y="46.601872"/>
     <use style="fill:#444147;stroke:#444147;" x="123.302061" xlink:href="#m6538578ee8" y="36.894536"/>
     <use style="fill:#444147;stroke:#444147;" x="138.747122" xlink:href="#m6538578ee8" y="45.106355"/>
     <use style="fill:#444147;stroke:#444147;" x="111.080068" xlink:href="#m6538578ee8" y="50.835765"/>
     <use style="fill:#444147;stroke:#444147;" x="87.13329" xlink:href="#m6538578ee8" y="54.451224"/>
     <use style="fill:#444147;stroke:#444147;" x="111.858228" xlink:href="#m6538578ee8" y="64.136737"/>
     <use style="fill:#444147;stroke:#444147;" x="103.160908" xlink:href="#m6538578ee8" y="51.799703"/>
     <use style="fill:#444147;stroke:#444147;" x="63.492955" xlink:href="#m6538578ee8" y="88.485639"/>
     <use style="fill:#444147;stroke:#444147;" x="141.492389" xlink:href="#m6538578ee8" y="49.322434"/>
     <use style="fill:#444147;stroke:#444147;" x="148.416854" xlink:href="#m6538578ee8" y="56.439935"/>
     <use style="fill:#444147;stroke:#444147;" x="136.794311" xlink:href="#m6538578ee8" y="54.924791"/>
     <use style="fill:#444147;stroke:#444147;" x="164.02222" xlink:href="#m6538578ee8" y="52.940266"/>
     <use style="fill:#444147;stroke:#444147;" x="151.318549" xlink:href="#m6538578ee8" y="89.949212"/>
     <use style="fill:#444147;stroke:#444147;" x="145.672431" xlink:href="#m6538578ee8" y="38.033449"/>
     <use style="fill:#444147;stroke:#444147;" x="131.254582" xlink:href="#m6538578ee8" y="64.847107"/>
     <use style="fill:#444147;stroke:#444147;" x="121.755624" xlink:href="#m6538578ee8" y="57.827787"/>
     <use style="fill:#444147;stroke:#444147;" x="171.205915" xlink:href="#m6538578ee8" y="73.747167"/>
     <use style="fill:#444147;stroke:#444147;" x="168.945396" xlink:href="#m6538578ee8" y="42.315471"/>
     <use style="fill:#444147;stroke:#444147;" x="139.349204" xlink:href="#m6538578ee8" y="50.470076"/>
     <use style="fill:#444147;stroke:#444147;" x="102.393847" xlink:href="#m6538578ee8" y="46.639688"/>
     <use style="fill:#444147;stroke:#444147;" x="139.346874" xlink:href="#m6538578ee8" y="45.269528"/>
     <use style="fill:#444147;stroke:#444147;" x="117.271646" xlink:href="#m6538578ee8" y="51.531821"/>
     <use style="fill:#444147;stroke:#444147;" x="145.268562" xlink:href="#m6538578ee8" y="34.465305"/>
     <use style="fill:#444147;stroke:#444147;" x="160.720309" xlink:href="#m6538578ee8" y="51.193478"/>
     <use style="fill:#444147;stroke:#444147;" x="159.401478" xlink:href="#m6538578ee8" y="38.431882"/>
     <use style="fill:#444147;stroke:#444147;" x="165.970714" xlink:href="#m6538578ee8" y="42.380544"/>
     <use style="fill:#444147;stroke:#444147;" x="149.384038" xlink:href="#m6538578ee8" y="50.114399"/>
     <use style="fill:#444147;stroke:#444147;" x="162.149562" xlink:href="#m6538578ee8" y="41.429669"/>
     <use style="fill:#444147;stroke:#444147;" x="171.958922" xlink:href="#m6538578ee8" y="38.705164"/>
     <use style="fill:#444147;stroke:#444147;" x="119.094249" xlink:href="#m6538578ee8" y="63.801959"/>
     <use style="fill:#444147;stroke:#444147;" x="119.564707" xlink:href="#m6538578ee8" y="77.640355"/>
     <use style="fill:#444147;stroke:#444147;" x="162.457905" xlink:href="#m6538578ee8" y="37.654342"/>
     <use style="fill:#444147;stroke:#444147;" x="140.902766" xlink:href="#m6538578ee8" y="64.757182"/>
     <use style="fill:#444147;stroke:#444147;" x="135.63754" xlink:href="#m6538578ee8" y="36.017973"/>
     <use style="fill:#444147;stroke:#444147;" x="117.440794" xlink:href="#m6538578ee8" y="64.862511"/>
     <use style="fill:#444147;stroke:#444147;" x="135.499341" xlink:href="#m6538578ee8" y="39.509425"/>
     <use style="fill:#444147;stroke:#444147;" x="146.235704" xlink:href="#m6538578ee8" y="47.680937"/>
     <use style="fill:#444147;stroke:#444147;" x="137.363531" xlink:href="#m6538578ee8" y="54.450473"/>
     <use style="fill:#444147;stroke:#444147;" x="146.015794" xlink:href="#m6538578ee8" y="55.256804"/>
     <use style="fill:#444147;stroke:#444147;" x="138.615956" xlink:href="#m6538578ee8" y="56.33438"/>
     <use style="fill:#444147;stroke:#444147;" x="150.535219" xlink:href="#m6538578ee8" y="46.386777"/>
     <use style="fill:#444147;stroke:#444147;" x="57.736559" xlink:href="#m6538578ee8" y="61.406193"/>
     <use style="fill:#444147;stroke:#444147;" x="121.228495" xlink:href="#m6538578ee8" y="52.47262"/>
     <use style="fill:#444147;stroke:#444147;" x="179.272782" xlink:href="#m6538578ee8" y="30.740356"/>
     <use style="fill:#444147;stroke:#444147;" x="160.455934" xlink:href="#m6538578ee8" y="60.648605"/>
     <use style="fill:#444147;stroke:#444147;" x="155.15553" xlink:href="#m6538578ee8" y="44.278252"/>
     <use style="fill:#444147;stroke:#444147;" x="91.634732" xlink:href="#m6538578ee8" y="66.458377"/>
     <use style="fill:#444147;stroke:#444147;" x="171.895293" xlink:href="#m6538578ee8" y="75.543354"/>
     <use style="fill:#444147;stroke:#444147;" x="175.230601" xlink:href="#m6538578ee8" y="64.864941"/>
     <use style="fill:#444147;stroke:#444147;" x="187.805465" xlink:href="#m6538578ee8" y="44.246"/>
     <use style="fill:#444147;stroke:#444147;" x="46.48393" xlink:href="#m6538578ee8" y="64.72108"/>
     <use style="fill:#444147;stroke:#444147;" x="151.244155" xlink:href="#m6538578ee8" y="56.952331"/>
     <use style="fill:#444147;stroke:#444147;" x="139.438068" xlink:href="#m6538578ee8" y="46.186843"/>
     <use style="fill:#444147;stroke:#444147;" x="105.157217" xlink:href="#m6538578ee8" y="48.611387"/>
     <use style="fill:#444147;stroke:#444147;" x="139.587678" xlink:href="#m6538578ee8" y="50.060958"/>
     <use style="fill:#444147;stroke:#444147;" x="143.255427" xlink:href="#m6538578ee8" y="54.810366"/>
     <use style="fill:#444147;stroke:#444147;" x="124.265452" xlink:href="#m6538578ee8" y="53.893241"/>
     <use style="fill:#444147;stroke:#444147;" x="131.519087" xlink:href="#m6538578ee8" y="41.552061"/>
     <use style="fill:#444147;stroke:#444147;" x="157.695435" xlink:href="#m6538578ee8" y="58.28097"/>
     <use style="fill:#444147;stroke:#444147;" x="149.75876" xlink:href="#m6538578ee8" y="45.945012"/>
     <use style="fill:#444147;stroke:#444147;" x="115.740795" xlink:href="#m6538578ee8" y="45.804755"/>
     <use style="fill:#444147;stroke:#444147;" x="128.044689" xlink:href="#m6538578ee8" y="61.94129"/>
     <use style="fill:#444147;stroke:#444147;" x="68.59762" xlink:href="#m6538578ee8" y="68.229165"/>
     <use style="fill:#444147;stroke:#444147;" x="148.541415" xlink:href="#m6538578ee8" y="36.439423"/>
     <use style="fill:#444147;stroke:#444147;" x="163.104552" xlink:href="#m6538578ee8" y="63.447575"/>
     <use style="fill:#444147;stroke:#444147;" x="158.826075" xlink:href="#m6538578ee8" y="23.169836"/>
     <use style="fill:#444147;stroke:#444147;" x="117.225892" xlink:href="#m6538578ee8" y="37.855767"/>
     <use style="fill:#444147;stroke:#444147;" x="162.659683" xlink:href="#m6538578ee8" y="49.50277"/>
     <use style="fill:#444147;stroke:#444147;" x="159.215166" xlink:href="#m6538578ee8" y="43.183628"/>
     <use style="fill:#444147;stroke:#444147;" x="158.609644" xlink:href="#m6538578ee8" y="57.146949"/>
     <use style="fill:#444147;stroke:#444147;" x="106.28679" xlink:href="#m6538578ee8" y="47.002081"/>
     <use style="fill:#444147;stroke:#444147;" x="143.805529" xlink:href="#m6538578ee8" y="37.033807"/>
     <use style="fill:#444147;stroke:#444147;" x="160.102505" xlink:href="#m6538578ee8" y="43.655599"/>
     <use style="fill:#444147;stroke:#444147;" x="151.435872" xlink:href="#m6538578ee8" y="52.943532"/>
     <use style="fill:#444147;stroke:#444147;" x="96.841897" xlink:href="#m6538578ee8" y="61.105789"/>
     <use style="fill:#444147;stroke:#444147;" x="100.964193" xlink:href="#m6538578ee8" y="48.443968"/>
     <use style="fill:#444147;stroke:#444147;" x="181.602205" xlink:href="#m6538578ee8" y="54.458128"/>
     <use style="fill:#444147;stroke:#444147;" x="180.83275" xlink:href="#m6538578ee8" y="58.371632"/>
     <use style="fill:#444147;stroke:#444147;" x="119.212143" xlink:href="#m6538578ee8" y="48.069296"/>
     <use style="fill:#444147;stroke:#444147;" x="130.37306" xlink:href="#m6538578ee8" y="45.180832"/>
     <use style="fill:#444147;stroke:#444147;" x="167.785207" xlink:href="#m6538578ee8" y="31.650602"/>
     <use style="fill:#444147;stroke:#444147;" x="145.453415" xlink:href="#m6538578ee8" y="41.544982"/>
     <use style="fill:#444147;stroke:#444147;" x="167.671134" xlink:href="#m6538578ee8" y="33.710181"/>
     <use style="fill:#444147;stroke:#444147;" x="167.459103" xlink:href="#m6538578ee8" y="46.252365"/>
     <use style="fill:#444147;stroke:#444147;" x="161.962122" xlink:href="#m6538578ee8" y="59.082814"/>
     <use style="fill:#444147;stroke:#444147;" x="106.338811" xlink:href="#m6538578ee8" y="52.044519"/>
     <use style="fill:#444147;stroke:#444147;" x="150.481569" xlink:href="#m6538578ee8" y="44.587776"/>
     <use style="fill:#444147;stroke:#444147;" x="163.422351" xlink:href="#m6538578ee8" y="48.359966"/>
     <use style="fill:#444147;stroke:#444147;" x="162.274977" xlink:href="#m6538578ee8" y="57.870679"/>
     <use style="fill:#444147;stroke:#444147;" x="93.26046" xlink:href="#m6538578ee8" y="45.39089"/>
     <use style="fill:#444147;stroke:#444147;" x="165.504943" xlink:href="#m6538578ee8" y="55.42287"/>
     <use style="fill:#444147;stroke:#444147;" x="112.663693" xlink:href="#m6538578ee8" y="44.184819"/>
     <use style="fill:#444147;stroke:#444147;" x="96.589541" xlink:href="#m6538578ee8" y="69.201813"/>
     <use style="fill:#444147;stroke:#444147;" x="174.553451" xlink:href="#m6538578ee8" y="43.203049"/>
     <use style="fill:#444147;stroke:#444147;" x="120.634049" xlink:href="#m6538578ee8" y="56.719434"/>
     <use style="fill:#444147;stroke:#444147;" x="125.302342" xlink:href="#m6538578ee8" y="37.107947"/>
     <use style="fill:#444147;stroke:#444147;" x="123.254812" xlink:href="#m6538578ee8" y="37.666232"/>
     <use style="fill:#444147;stroke:#444147;" x="148.159074" xlink:href="#m6538578ee8" y="44.619852"/>
     <use style="fill:#444147;stroke:#444147;" x="163.320353" xlink:href="#m6538578ee8" y="41.678509"/>
     <use style="fill:#444147;stroke:#444147;" x="171.911836" xlink:href="#m6538578ee8" y="42.543742"/>
     <use style="fill:#444147;stroke:#444147;" x="159.117133" xlink:href="#m6538578ee8" y="48.638362"/>
     <use style="fill:#444147;stroke:#444147;" x="159.75094" xlink:href="#m6538578ee8" y="46.985634"/>
     <use style="fill:#444147;stroke:#444147;" x="166.045338" xlink:href="#m6538578ee8" y="41.700444"/>
     <use style="fill:#444147;stroke:#444147;" x="170.557749" xlink:href="#m6538578ee8" y="61.956498"/>
     <use style="fill:#444147;stroke:#444147;" x="162.900331" xlink:href="#m6538578ee8" y="38.397135"/>
     <use style="fill:#444147;stroke:#444147;" x="113.720445" xlink:href="#m6538578ee8" y="39.705745"/>
     <use style="fill:#444147;stroke:#444147;" x="159.310125" xlink:href="#m6538578ee8" y="38.154313"/>
     <use style="fill:#444147;stroke:#444147;" x="119.080283" xlink:href="#m6538578ee8" y="58.954626"/>
     <use style="fill:#444147;stroke:#444147;" x="139.248158" xlink:href="#m6538578ee8" y="59.881231"/>
     <use style="fill:#444147;stroke:#444147;" x="151.721526" xlink:href="#m6538578ee8" y="39.711618"/>
     <use style="fill:#444147;stroke:#444147;" x="162.701474" xlink:href="#m6538578ee8" y="43.46666"/>
     <use style="fill:#444147;stroke:#444147;" x="144.292256" xlink:href="#m6538578ee8" y="43.424566"/>
     <use style="fill:#444147;stroke:#444147;" x="160.311404" xlink:href="#m6538578ee8" y="56.555536"/>
     <use style="fill:#444147;stroke:#444147;" x="167.765101" xlink:href="#m6538578ee8" y="25.788696"/>
     <use style="fill:#444147;stroke:#444147;" x="146.649679" xlink:href="#m6538578ee8" y="45.478509"/>
     <use style="fill:#444147;stroke:#444147;" x="171.504509" xlink:href="#m6538578ee8" y="36.008307"/>
    </g>
   </g>
   <g id="line2d_105">
    <defs>
     <path d="M 0 1.5 
C 0.397805 1.5 0.77937 1.341951 1.06066 1.06066 
C 1.341951 0.77937 1.5 0.397805 1.5 0 
C 1.5 -0.397805 1.341951 -0.77937 1.06066 -1.06066 
C 0.77937 -1.341951 0.397805 -1.5 0 -1.5 
C -0.397805 -1.5 -0.77937 -1.341951 -1.06066 -1.06066 
C -1.341951 -0.77937 -1.5 -0.397805 -1.5 0 
C -1.5 0.397805 -1.341951 0.77937 -1.06066 1.06066 
C -0.77937 1.341951 -0.397805 1.5 0 1.5 
z
" id="m54152c33ac" style="stroke:#9c372f;stroke-width:0.5;"/>
    </defs>
    <g clip-path="url(#p2d75aae698)">
     <use style="fill:#e39c9d;stroke:#9c372f;stroke-width:0.5;" x="92.471555" xlink:href="#m54152c33ac" y="50.398993"/>
     <use style="fill:#e39c9d;stroke:#9c372f;stroke-width:0.5;" x="116.078586" xlink:href="#m54152c33ac" y="47.436719"/>
     <use style="fill:#e39c9d;stroke:#9c372f;stroke-width:0.5;" x="126.363754" xlink:href="#m54152c33ac" y="43.482989"/>
     <use style="fill:#e39c9d;stroke:#9c372f;stroke-width:0.5;" x="137.737416" xlink:href="#m54152c33ac" y="45.762977"/>
     <use style="fill:#e39c9d;stroke:#9c372f;stroke-width:0.5;" x="145.264208" xlink:href="#m54152c33ac" y="43.323476"/>
     <use style="fill:#e39c9d;stroke:#9c372f;stroke-width:0.5;" x="150.537996" xlink:href="#m54152c33ac" y="43.852842"/>
     <use style="fill:#e39c9d;stroke:#9c372f;stroke-width:0.5;" x="157.190295" xlink:href="#m54152c33ac" y="36.642705"/>
     <use style="fill:#e39c9d;stroke:#9c372f;stroke-width:0.5;" x="160.737794" xlink:href="#m54152c33ac" y="44.636254"/>
     <use style="fill:#e39c9d;stroke:#9c372f;stroke-width:0.5;" x="163.823273" xlink:href="#m54152c33ac" y="41.974572"/>
     <use style="fill:#e39c9d;stroke:#9c372f;stroke-width:0.5;" x="169.001802" xlink:href="#m54152c33ac" y="36.784831"/>
     <use style="fill:#e39c9d;stroke:#9c372f;stroke-width:0.5;" x="176.525133" xlink:href="#m54152c33ac" y="37.635014"/>
     <use style="fill:#e39c9d;stroke:#9c372f;stroke-width:0.5;" x="186.216568" xlink:href="#m54152c33ac" y="37.618781"/>
     <use style="fill:#e39c9d;stroke:#9c372f;stroke-width:0.5;" x="-1" xlink:href="#m54152c33ac" y="72.779293"/>
    </g>
   </g>
   <g id="line2d_106">
    <path clip-path="url(#p2d75aae698)" d="M -1 70.260978 
L 212.16 30.347998 
L 212.16 30.347998 
" style="fill:none;stroke:#9c372f;stroke-linecap:square;stroke-width:0.75;"/>
   </g>
   <g id="patch_3">
    <path d="M 36.56 115.92 
L 36.56 7.2 
" style="fill:none;stroke:#444147;stroke-linecap:square;stroke-linejoin:miter;stroke-width:0.45;"/>
   </g>
   <g id="patch_4">
    <path d="M 36.56 115.92 
L 203.96 115.92 
" style="fill:none;stroke:#444147;stroke-linecap:square;stroke-linejoin:miter;stroke-width:0.45;"/>
   </g>
   <g id="legend_1">
    <g id="patch_5">
     <path d="M 109.34 112.92 
L 199.76 112.92 
Q 200.96 112.92 200.96 111.72 
L 200.96 86.765625 
Q 200.96 85.565625 199.76 85.565625 
L 109.34 85.565625 
Q 108.14 85.565625 108.14 86.765625 
L 108.14 111.72 
Q 108.14 112.92 109.34 112.92 
z
" style="fill:#efefef;opacity:0.8;stroke:#cccccc;stroke-linejoin:miter;"/>
    </g>
    <g id="line2d_107"/>
    <g id="line2d_108">
     <g>
      <use style="fill:#444147;stroke:#444147;" x="116.54" xlink:href="#m6538578ee8" y="90.160313"/>
     </g>
    </g>
    <g id="text_14">
     <!-- division event -->
     <defs>
      <path d="M 40.234375 0 
L 40.234375 6.546875 
Q 35.296875 -1.171875 25.734375 -1.171875 
Q 19.53125 -1.171875 14.328125 2.25 
Q 9.125 5.671875 6.265625 11.796875 
Q 3.421875 17.921875 3.421875 25.875 
Q 3.421875 33.640625 6 39.96875 
Q 8.59375 46.296875 13.765625 49.65625 
Q 18.953125 53.03125 25.34375 53.03125 
Q 30.03125 53.03125 33.6875 51.046875 
Q 37.359375 49.078125 39.65625 45.90625 
L 39.65625 71.578125 
L 48.390625 71.578125 
L 48.390625 0 
z
M 12.453125 25.875 
Q 12.453125 15.921875 16.640625 10.984375 
Q 20.84375 6.0625 26.5625 6.0625 
Q 32.328125 6.0625 36.34375 10.765625 
Q 40.375 15.484375 40.375 25.140625 
Q 40.375 35.796875 36.265625 40.765625 
Q 32.171875 45.75 26.171875 45.75 
Q 20.3125 45.75 16.375 40.96875 
Q 12.453125 36.1875 12.453125 25.875 
z
" id="ArialMT-100"/>
      <path d="M 6.640625 61.46875 
L 6.640625 71.578125 
L 15.4375 71.578125 
L 15.4375 61.46875 
z
M 6.640625 0 
L 6.640625 51.859375 
L 15.4375 51.859375 
L 15.4375 0 
z
" id="ArialMT-105"/>
      <path d="M 21 0 
L 1.265625 51.859375 
L 10.546875 51.859375 
L 21.6875 20.796875 
Q 23.484375 15.765625 25 10.359375 
Q 26.171875 14.453125 28.265625 20.21875 
L 39.796875 51.859375 
L 48.828125 51.859375 
L 29.203125 0 
z
" id="ArialMT-118"/>
      <path d="M 3.078125 15.484375 
L 11.765625 16.84375 
Q 12.5 11.625 15.84375 8.84375 
Q 19.1875 6.0625 25.203125 6.0625 
Q 31.25 6.0625 34.171875 8.515625 
Q 37.109375 10.984375 37.109375 14.3125 
Q 37.109375 17.28125 34.515625 19 
Q 32.71875 20.171875 25.53125 21.96875 
Q 15.875 24.421875 12.140625 26.203125 
Q 8.40625 27.984375 6.46875 31.125 
Q 4.546875 34.28125 4.546875 38.09375 
Q 4.546875 41.546875 6.125 44.5 
Q 7.71875 47.46875 10.453125 49.421875 
Q 12.5 50.921875 16.03125 51.96875 
Q 19.578125 53.03125 23.640625 53.03125 
Q 29.734375 53.03125 34.34375 51.265625 
Q 38.96875 49.515625 41.15625 46.5 
Q 43.359375 43.5 44.1875 38.484375 
L 35.59375 37.3125 
Q 35.015625 41.3125 32.203125 43.546875 
Q 29.390625 45.796875 24.265625 45.796875 
Q 18.21875 45.796875 15.625 43.796875 
Q 13.03125 41.796875 13.03125 39.109375 
Q 13.03125 37.40625 14.109375 36.03125 
Q 15.1875 34.625 17.484375 33.6875 
Q 18.796875 33.203125 25.25 31.453125 
Q 34.578125 28.953125 38.25 27.359375 
Q 41.9375 25.78125 44.03125 22.75 
Q 46.140625 19.734375 46.140625 15.234375 
Q 46.140625 10.84375 43.578125 6.953125 
Q 41.015625 3.078125 36.171875 0.953125 
Q 31.34375 -1.171875 25.25 -1.171875 
Q 15.140625 -1.171875 9.84375 3.03125 
Q 4.546875 7.234375 3.078125 15.484375 
z
" id="ArialMT-115"/>
      <path d="M 3.328125 25.921875 
Q 3.328125 40.328125 11.328125 47.265625 
Q 18.015625 53.03125 27.640625 53.03125 
Q 38.328125 53.03125 45.109375 46.015625 
Q 51.90625 39.015625 51.90625 26.65625 
Q 51.90625 16.65625 48.90625 10.90625 
Q 45.90625 5.171875 40.15625 2 
Q 34.421875 -1.171875 27.640625 -1.171875 
Q 16.75 -1.171875 10.03125 5.8125 
Q 3.328125 12.796875 3.328125 25.921875 
z
M 12.359375 25.921875 
Q 12.359375 15.96875 16.703125 11.015625 
Q 21.046875 6.0625 27.640625 6.0625 
Q 34.1875 6.0625 38.53125 11.03125 
Q 42.875 16.015625 42.875 26.21875 
Q 42.875 35.84375 38.5 40.796875 
Q 34.125 45.75 27.640625 45.75 
Q 21.046875 45.75 16.703125 40.8125 
Q 12.359375 35.890625 12.359375 25.921875 
z
" id="ArialMT-111"/>
      <path d="M 6.59375 0 
L 6.59375 51.859375 
L 14.5 51.859375 
L 14.5 44.484375 
Q 20.21875 53.03125 31 53.03125 
Q 35.6875 53.03125 39.625 51.34375 
Q 43.5625 49.65625 45.515625 46.921875 
Q 47.46875 44.1875 48.25 40.4375 
Q 48.734375 37.984375 48.734375 31.890625 
L 48.734375 0 
L 39.9375 0 
L 39.9375 31.546875 
Q 39.9375 36.921875 38.90625 39.578125 
Q 37.890625 42.234375 35.28125 43.8125 
Q 32.671875 45.40625 29.15625 45.40625 
Q 23.53125 45.40625 19.453125 41.84375 
Q 15.375 38.28125 15.375 28.328125 
L 15.375 0 
z
" id="ArialMT-110"/>
      <path id="ArialMT-32"/>
      <path d="M 42.09375 16.703125 
L 51.171875 15.578125 
Q 49.03125 7.625 43.21875 3.21875 
Q 37.40625 -1.171875 28.375 -1.171875 
Q 17 -1.171875 10.328125 5.828125 
Q 3.65625 12.84375 3.65625 25.484375 
Q 3.65625 38.578125 10.390625 45.796875 
Q 17.140625 53.03125 27.875 53.03125 
Q 38.28125 53.03125 44.875 45.953125 
Q 51.46875 38.875 51.46875 26.03125 
Q 51.46875 25.25 51.421875 23.6875 
L 12.75 23.6875 
Q 13.234375 15.140625 17.578125 10.59375 
Q 21.921875 6.0625 28.421875 6.0625 
Q 33.25 6.0625 36.671875 8.59375 
Q 40.09375 11.140625 42.09375 16.703125 
z
M 13.234375 30.90625 
L 42.1875 30.90625 
Q 41.609375 37.453125 38.875 40.71875 
Q 34.671875 45.796875 27.984375 45.796875 
Q 21.921875 45.796875 17.796875 41.75 
Q 13.671875 37.703125 13.234375 30.90625 
z
" id="ArialMT-101"/>
      <path d="M 25.78125 7.859375 
L 27.046875 0.09375 
Q 23.34375 -0.6875 20.40625 -0.6875 
Q 15.625 -0.6875 12.984375 0.828125 
Q 10.359375 2.34375 9.28125 4.8125 
Q 8.203125 7.28125 8.203125 15.1875 
L 8.203125 45.015625 
L 1.765625 45.015625 
L 1.765625 51.859375 
L 8.203125 51.859375 
L 8.203125 64.703125 
L 16.9375 69.96875 
L 16.9375 51.859375 
L 25.78125 51.859375 
L 25.78125 45.015625 
L 16.9375 45.015625 
L 16.9375 14.703125 
Q 16.9375 10.9375 17.40625 9.859375 
Q 17.875 8.796875 18.921875 8.15625 
Q 19.96875 7.515625 21.921875 7.515625 
Q 23.390625 7.515625 25.78125 7.859375 
z
" id="ArialMT-116"/>
     </defs>
     <g style="fill:#444147;" transform="translate(127.34 92.260312)scale(0.06 -0.06)">
      <use xlink:href="#ArialMT-100"/>
      <use x="55.615234" xlink:href="#ArialMT-105"/>
      <use x="77.832031" xlink:href="#ArialMT-118"/>
      <use x="127.832031" xlink:href="#ArialMT-105"/>
      <use x="150.048828" xlink:href="#ArialMT-115"/>
      <use x="200.048828" xlink:href="#ArialMT-105"/>
      <use x="222.265625" xlink:href="#ArialMT-111"/>
      <use x="277.880859" xlink:href="#ArialMT-110"/>
      <use x="333.496094" xlink:href="#ArialMT-32"/>
      <use x="361.279297" xlink:href="#ArialMT-101"/>
      <use x="416.894531" xlink:href="#ArialMT-118"/>
      <use x="466.894531" xlink:href="#ArialMT-101"/>
      <use x="522.509766" xlink:href="#ArialMT-110"/>
      <use x="578.125" xlink:href="#ArialMT-116"/>
     </g>
    </g>
    <g id="line2d_109"/>
    <g id="line2d_110">
     <g>
      <use style="fill:#e39c9d;stroke:#9c372f;stroke-width:0.5;" x="116.54" xlink:href="#m54152c33ac" y="98.6475"/>
     </g>
    </g>
    <g id="text_15">
     <!-- 20 events / bin -->
     <defs>
      <path d="M 50.34375 8.453125 
L 50.34375 0 
L 3.03125 0 
Q 2.9375 3.171875 4.046875 6.109375 
Q 5.859375 10.9375 9.828125 15.625 
Q 13.8125 20.3125 21.34375 26.46875 
Q 33.015625 36.03125 37.109375 41.625 
Q 41.21875 47.21875 41.21875 52.203125 
Q 41.21875 57.421875 37.46875 61 
Q 33.734375 64.59375 27.734375 64.59375 
Q 21.390625 64.59375 17.578125 60.78125 
Q 13.765625 56.984375 13.71875 50.25 
L 4.6875 51.171875 
Q 5.609375 61.28125 11.65625 66.578125 
Q 17.71875 71.875 27.9375 71.875 
Q 38.234375 71.875 44.234375 66.15625 
Q 50.25 60.453125 50.25 52 
Q 50.25 47.703125 48.484375 43.546875 
Q 46.734375 39.40625 42.65625 34.8125 
Q 38.578125 30.21875 29.109375 22.21875 
Q 21.1875 15.578125 18.9375 13.203125 
Q 16.703125 10.84375 15.234375 8.453125 
z
" id="ArialMT-50"/>
      <path d="M 0 -1.21875 
L 20.75 72.796875 
L 27.78125 72.796875 
L 7.078125 -1.21875 
z
" id="ArialMT-47"/>
      <path d="M 14.703125 0 
L 6.546875 0 
L 6.546875 71.578125 
L 15.328125 71.578125 
L 15.328125 46.046875 
Q 20.90625 53.03125 29.546875 53.03125 
Q 34.328125 53.03125 38.59375 51.09375 
Q 42.875 49.171875 45.625 45.671875 
Q 48.390625 42.1875 49.953125 37.25 
Q 51.515625 32.328125 51.515625 26.703125 
Q 51.515625 13.375 44.921875 6.09375 
Q 38.328125 -1.171875 29.109375 -1.171875 
Q 19.921875 -1.171875 14.703125 6.5 
z
M 14.59375 26.3125 
Q 14.59375 17 17.140625 12.84375 
Q 21.296875 6.0625 28.375 6.0625 
Q 34.125 6.0625 38.328125 11.0625 
Q 42.53125 16.0625 42.53125 25.984375 
Q 42.53125 36.140625 38.5 40.96875 
Q 34.46875 45.796875 28.765625 45.796875 
Q 23 45.796875 18.796875 40.796875 
Q 14.59375 35.796875 14.59375 26.3125 
z
" id="ArialMT-98"/>
     </defs>
     <g style="fill:#444147;" transform="translate(127.34 100.7475)scale(0.06 -0.06)">
      <use xlink:href="#ArialMT-50"/>
      <use x="55.615234" xlink:href="#ArialMT-48"/>
      <use x="111.230469" xlink:href="#ArialMT-32"/>
      <use x="139.013672" xlink:href="#ArialMT-101"/>
      <use x="194.628906" xlink:href="#ArialMT-118"/>
      <use x="244.628906" xlink:href="#ArialMT-101"/>
      <use x="300.244141" xlink:href="#ArialMT-110"/>
      <use x="355.859375" xlink:href="#ArialMT-116"/>
      <use x="383.642578" xlink:href="#ArialMT-115"/>
      <use x="433.642578" xlink:href="#ArialMT-32"/>
      <use x="461.425781" xlink:href="#ArialMT-47"/>
      <use x="489.208984" xlink:href="#ArialMT-32"/>
      <use x="516.992188" xlink:href="#ArialMT-98"/>
      <use x="572.607422" xlink:href="#ArialMT-105"/>
      <use x="594.824219" xlink:href="#ArialMT-110"/>
     </g>
    </g>
    <g id="line2d_111">
     <path d="M 110.54 107.22 
L 122.54 107.22 
" style="fill:none;stroke:#9c372f;stroke-linecap:square;stroke-width:0.75;"/>
    </g>
    <g id="line2d_112"/>
    <g id="text_16">
     <!-- $\alpha$ = 1570  130 [a.u. / LacI] -->
     <defs>
      <path d="M 15.71875 5.171875 
Q 16.796875 5.171875 18.328125 6.484375 
Q 19.875 7.8125 21.65625 10.0625 
Q 23.4375 12.3125 25.390625 15.265625 
Q 27.34375 18.21875 29.296875 21.484375 
Q 28.8125 25.046875 28.203125 28.484375 
Q 27.59375 31.9375 26.640625 34.625 
Q 25.6875 37.3125 24.296875 38.9375 
Q 22.90625 40.578125 20.90625 40.578125 
Q 19.484375 40.578125 17.484375 39.1875 
Q 15.484375 37.796875 13.640625 35.03125 
Q 11.8125 32.28125 10.546875 28.15625 
Q 9.28125 24.03125 9.28125 18.5 
Q 9.28125 12.15625 11.03125 8.65625 
Q 12.796875 5.171875 15.71875 5.171875 
z
M 50.296875 44.671875 
Q 48.296875 42.921875 46.34375 40.40625 
Q 44.390625 37.890625 42.40625 34.953125 
Q 40.4375 32.03125 38.484375 28.75 
Q 36.53125 25.484375 34.578125 22.171875 
Q 35.015625 19.671875 35.59375 17.078125 
Q 36.1875 14.5 36.84375 12.390625 
Q 37.5 10.296875 38.1875 8.953125 
Q 38.875 7.625 39.40625 7.625 
Q 40.1875 7.625 41.140625 8.078125 
Q 42.09375 8.546875 43.015625 9.328125 
Q 43.953125 10.109375 44.75 11.0625 
Q 45.5625 12.015625 46.09375 12.984375 
Q 46.734375 12.59375 47.015625 12.25 
Q 47.3125 11.921875 47.703125 11.53125 
Q 47.171875 10.25 46.359375 8.765625 
Q 45.5625 7.28125 44.578125 5.78125 
Q 43.609375 4.296875 42.5 2.875 
Q 41.40625 1.46875 40.296875 0.390625 
Q 39.203125 -0.6875 38.109375 -1.34375 
Q 37.015625 -2 36.078125 -2 
Q 34.859375 -2 33.984375 -0.953125 
Q 33.109375 0.09375 32.4375 2.21875 
Q 31.78125 4.34375 31.25 7.515625 
Q 30.71875 10.6875 30.125 14.890625 
Q 27.984375 11.421875 25.828125 8.34375 
Q 23.6875 5.28125 21.53125 2.984375 
Q 19.390625 0.6875 17.265625 -0.65625 
Q 15.140625 -2 12.984375 -2 
Q 11.375 -2 9.546875 -1.0625 
Q 7.71875 -0.140625 6.171875 1.875 
Q 4.640625 3.90625 3.609375 7.09375 
Q 2.59375 10.296875 2.59375 14.890625 
Q 2.59375 18.40625 3.375 22.046875 
Q 4.15625 25.6875 5.609375 29.09375 
Q 7.078125 32.515625 9.109375 35.546875 
Q 11.140625 38.578125 13.625 40.8125 
Q 16.109375 43.0625 18.984375 44.375 
Q 21.875 45.703125 25 45.703125 
Q 27.390625 45.703125 28.90625 44.484375 
Q 30.421875 43.265625 31.34375 41.09375 
Q 32.28125 38.921875 32.78125 35.859375 
Q 33.296875 32.8125 33.6875 29.15625 
Q 34.96875 31.453125 36.078125 33.625 
Q 37.203125 35.796875 38.15625 37.6875 
Q 39.109375 39.59375 39.84375 41.15625 
Q 40.578125 42.71875 41.015625 43.796875 
Q 43.109375 44.234375 45.203125 44.8125 
Q 47.3125 45.40625 49.609375 46.09375 
Q 49.90625 45.5625 50.015625 45.28125 
Q 50.140625 45.015625 50.296875 44.671875 
z
" id="GentiumPlus-Italic-945"/>
      <path d="M 52.828125 42.09375 
L 5.5625 42.09375 
L 5.5625 50.296875 
L 52.828125 50.296875 
z
M 52.828125 20.359375 
L 5.5625 20.359375 
L 5.5625 28.5625 
L 52.828125 28.5625 
z
" id="ArialMT-61"/>
      <path d="M 23.296875 12.703125 
L 23.296875 32.375 
L 3.8125 32.375 
L 3.8125 40.53125 
L 23.296875 40.53125 
L 23.296875 60.015625 
L 31.59375 60.015625 
L 31.59375 40.53125 
L 51.078125 40.53125 
L 51.078125 32.375 
L 31.59375 32.375 
L 31.59375 12.703125 
z
M 51.078125 0 
L 3.8125 0 
L 3.8125 8.203125 
L 51.078125 8.203125 
z
" id="ArialMT-177"/>
      <path d="M 6.78125 -19.875 
L 6.78125 71.578125 
L 26.171875 71.578125 
L 26.171875 64.3125 
L 15.578125 64.3125 
L 15.578125 -12.59375 
L 26.171875 -12.59375 
L 26.171875 -19.875 
z
" id="ArialMT-91"/>
      <path d="M 40.4375 6.390625 
Q 35.546875 2.25 31.03125 0.53125 
Q 26.515625 -1.171875 21.34375 -1.171875 
Q 12.796875 -1.171875 8.203125 3 
Q 3.609375 7.171875 3.609375 13.671875 
Q 3.609375 17.484375 5.34375 20.625 
Q 7.078125 23.78125 9.890625 25.6875 
Q 12.703125 27.59375 16.21875 28.5625 
Q 18.796875 29.25 24.03125 29.890625 
Q 34.671875 31.15625 39.703125 32.90625 
Q 39.75 34.71875 39.75 35.203125 
Q 39.75 40.578125 37.25 42.78125 
Q 33.890625 45.75 27.25 45.75 
Q 21.046875 45.75 18.09375 43.578125 
Q 15.140625 41.40625 13.71875 35.890625 
L 5.125 37.0625 
Q 6.296875 42.578125 8.984375 45.96875 
Q 11.671875 49.359375 16.75 51.1875 
Q 21.828125 53.03125 28.515625 53.03125 
Q 35.15625 53.03125 39.296875 51.46875 
Q 43.453125 49.90625 45.40625 47.53125 
Q 47.359375 45.171875 48.140625 41.546875 
Q 48.578125 39.3125 48.578125 33.453125 
L 48.578125 21.734375 
Q 48.578125 9.46875 49.140625 6.21875 
Q 49.703125 2.984375 51.375 0 
L 42.1875 0 
Q 40.828125 2.734375 40.4375 6.390625 
z
M 39.703125 26.03125 
Q 34.90625 24.078125 25.34375 22.703125 
Q 19.921875 21.921875 17.671875 20.9375 
Q 15.4375 19.96875 14.203125 18.09375 
Q 12.984375 16.21875 12.984375 13.921875 
Q 12.984375 10.40625 15.640625 8.0625 
Q 18.3125 5.71875 23.4375 5.71875 
Q 28.515625 5.71875 32.46875 7.9375 
Q 36.421875 10.15625 38.28125 14.015625 
Q 39.703125 17 39.703125 22.796875 
z
" id="ArialMT-97"/>
      <path d="M 9.078125 0 
L 9.078125 10.015625 
L 19.09375 10.015625 
L 19.09375 0 
z
" id="ArialMT-46"/>
      <path d="M 40.578125 0 
L 40.578125 7.625 
Q 34.515625 -1.171875 24.125 -1.171875 
Q 19.53125 -1.171875 15.546875 0.578125 
Q 11.578125 2.34375 9.640625 5 
Q 7.71875 7.671875 6.9375 11.53125 
Q 6.390625 14.109375 6.390625 19.734375 
L 6.390625 51.859375 
L 15.1875 51.859375 
L 15.1875 23.09375 
Q 15.1875 16.21875 15.71875 13.8125 
Q 16.546875 10.359375 19.234375 8.375 
Q 21.921875 6.390625 25.875 6.390625 
Q 29.828125 6.390625 33.296875 8.421875 
Q 36.765625 10.453125 38.203125 13.9375 
Q 39.65625 17.4375 39.65625 24.078125 
L 39.65625 51.859375 
L 48.4375 51.859375 
L 48.4375 0 
z
" id="ArialMT-117"/>
      <path d="M 7.328125 0 
L 7.328125 71.578125 
L 16.796875 71.578125 
L 16.796875 8.453125 
L 52.046875 8.453125 
L 52.046875 0 
z
" id="ArialMT-76"/>
      <path d="M 40.4375 19 
L 49.078125 17.875 
Q 47.65625 8.9375 41.8125 3.875 
Q 35.984375 -1.171875 27.484375 -1.171875 
Q 16.84375 -1.171875 10.375 5.78125 
Q 3.90625 12.75 3.90625 25.734375 
Q 3.90625 34.125 6.6875 40.421875 
Q 9.46875 46.734375 15.15625 49.875 
Q 20.84375 53.03125 27.546875 53.03125 
Q 35.984375 53.03125 41.359375 48.75 
Q 46.734375 44.484375 48.25 36.625 
L 39.703125 35.296875 
Q 38.484375 40.53125 35.375 43.15625 
Q 32.28125 45.796875 27.875 45.796875 
Q 21.234375 45.796875 17.078125 41.03125 
Q 12.9375 36.28125 12.9375 25.984375 
Q 12.9375 15.53125 16.9375 10.796875 
Q 20.953125 6.0625 27.390625 6.0625 
Q 32.5625 6.0625 36.03125 9.234375 
Q 39.5 12.40625 40.4375 19 
z
" id="ArialMT-99"/>
      <path d="M 9.328125 0 
L 9.328125 71.578125 
L 18.796875 71.578125 
L 18.796875 0 
z
" id="ArialMT-73"/>
      <path d="M 21.296875 -19.875 
L 1.90625 -19.875 
L 1.90625 -12.59375 
L 12.5 -12.59375 
L 12.5 64.3125 
L 1.90625 64.3125 
L 1.90625 71.578125 
L 21.296875 71.578125 
z
" id="ArialMT-93"/>
     </defs>
     <g style="fill:#444147;" transform="translate(127.34 109.32)scale(0.06 -0.06)">
      <use transform="translate(0 0.203125)" xlink:href="#GentiumPlus-Italic-945"/>
      <use transform="translate(49.902344 0.203125)" xlink:href="#ArialMT-32"/>
      <use transform="translate(77.685547 0.203125)" xlink:href="#ArialMT-61"/>
      <use transform="translate(136.083984 0.203125)" xlink:href="#ArialMT-32"/>
      <use transform="translate(163.867188 0.203125)" xlink:href="#ArialMT-49"/>
      <use transform="translate(219.482422 0.203125)" xlink:href="#ArialMT-53"/>
      <use transform="translate(275.082031 0.203125)" xlink:href="#ArialMT-55"/>
      <use transform="translate(330.697266 0.203125)" xlink:href="#ArialMT-48"/>
      <use transform="translate(386.3125 0.203125)" xlink:href="#ArialMT-32"/>
      <use transform="translate(414.095703 0.203125)" xlink:href="#ArialMT-177"/>
      <use transform="translate(468.978516 0.203125)" xlink:href="#ArialMT-32"/>
      <use transform="translate(496.761719 0.203125)" xlink:href="#ArialMT-49"/>
      <use transform="translate(552.376953 0.203125)" xlink:href="#ArialMT-51"/>
      <use transform="translate(607.992188 0.203125)" xlink:href="#ArialMT-48"/>
      <use transform="translate(663.607422 0.203125)" xlink:href="#ArialMT-32"/>
      <use transform="translate(691.390625 0.203125)" xlink:href="#ArialMT-91"/>
      <use transform="translate(719.173828 0.203125)" xlink:href="#ArialMT-97"/>
      <use transform="translate(774.789062 0.203125)" xlink:href="#ArialMT-46"/>
      <use transform="translate(802.572266 0.203125)" xlink:href="#ArialMT-117"/>
      <use transform="translate(858.1875 0.203125)" xlink:href="#ArialMT-46"/>
      <use transform="translate(885.970703 0.203125)" xlink:href="#ArialMT-32"/>
      <use transform="translate(913.753906 0.203125)" xlink:href="#ArialMT-47"/>
      <use transform="translate(941.537109 0.203125)" xlink:href="#ArialMT-32"/>
      <use transform="translate(969.320312 0.203125)" xlink:href="#ArialMT-76"/>
      <use transform="translate(1024.935547 0.203125)" xlink:href="#ArialMT-97"/>
      <use transform="translate(1080.550781 0.203125)" xlink:href="#ArialMT-99"/>
      <use transform="translate(1130.550781 0.203125)" xlink:href="#ArialMT-73"/>
      <use transform="translate(1158.333984 0.203125)" xlink:href="#ArialMT-93"/>
     </g>
    </g>
   </g>
  </g>
 </g>
 <defs>
  <clipPath id="p2d75aae698">
   <rect height="108.72" width="167.4" x="36.56" y="7.2"/>
  </clipPath>
 </defs>
</svg>
